<?xml version="1.0" standalone="no"?>
 <!DOCTYPE svg PUBLIC "-//W3C//DTD SVG 1.1//EN" 
 "http://www.w3.org/Graphics/SVG/1.1/DTD/svg11.dtd"> 
<svg xmlns="http://www.w3.org/2000/svg" version="1.1" 
    width="2.68224cm" height="3.99288cm" viewBox="0 0 10560 15720 ">
<title>SVG Picture created as BD9328EFJ.svg date 2015/05/08 13:19:14 </title>
  <desc>Picture generated by Eeschema-SVG </desc>
<g style="fill:#000000; fill-opacity:1;stroke:#000000; stroke-opacity:1;
stroke-linecap:round; stroke-linejoin:round; "
 transform="translate(0 0) scale(1 1)">
</g>
<g style="fill:#000000; fill-opacity:0.0; 
stroke:#000000; stroke-width:60; stroke-opacity:1; 
stroke-linecap:round; stroke-linejoin:round;">
<rect x="5280" y="2360" width="4500" height="5500" rx="0" />
<path d="M9780 2860
L11780 2860
" />
<path d="M8310 2820
L8380 2850
L8400 2870
L8420 2920
L8420 2990
L8400 3040
L8380 3060
L8330 3090
L8140 3090
L8140 2590
L8310 2590
L8350 2610
L8380 2630
L8400 2680
L8400 2730
L8380 2780
L8350 2800
L8310 2820
L8140 2820
" />
<path d="M8620 3060
L8690 3090
L8810 3090
L8850 3060
L8880 3040
L8900 2990
L8900 2940
L8880 2900
L8850 2870
L8810 2850
L8710 2820
L8660 2800
L8640 2780
L8620 2730
L8620 2680
L8640 2630
L8660 2610
L8710 2590
L8830 2590
L8900 2610
" />
<path d="M9050 2590
L9330 2590
" />
<path d="M9190 3090
L9190 2590
" />
<path d="M10920 2740
L10640 2740
" />
<path d="M10780 2740
L10780 2240
L10730 2310
L10680 2360
L10640 2380
" />
<path d="M9780 4360
L11780 4360
" />
<path d="M8240 4090
L8400 4590
L8570 4090
" />
<path d="M8740 4590
L8740 4090
" />
<path d="M8980 4590
L8980 4090
L9260 4590
L9260 4090
" />
<path d="M10640 3780
L10660 3760
L10710 3740
L10830 3740
L10870 3760
L10900 3780
L10920 3830
L10920 3880
L10900 3950
L10610 4240
L10920 4240
" />
<path d="M9780 5860
L11780 5860
" />
<path d="M8430 6060
L8500 6090
L8620 6090
L8660 6060
L8690 6040
L8710 5990
L8710 5940
L8690 5900
L8660 5870
L8620 5850
L8520 5820
L8470 5800
L8450 5780
L8430 5730
L8430 5680
L8450 5630
L8470 5610
L8520 5590
L8640 5590
L8710 5610
" />
<path d="M8880 5590
L9000 6090
L9100 5730
L9190 6090
L9310 5590
" />
<path d="M10610 5240
L10920 5240
L10750 5430
L10830 5430
L10870 5450
L10900 5470
L10920 5520
L10920 5640
L10900 5690
L10870 5710
L10830 5740
L10680 5740
L10640 5710
L10610 5690
" />
<path d="M9780 7360
L11780 7360
" />
<path d="M8240 7110
L8190 7090
L8120 7090
L8050 7110
L8000 7160
L7980 7210
L7960 7300
L7960 7370
L7980 7470
L8000 7510
L8050 7560
L8120 7590
L8170 7590
L8240 7560
L8260 7540
L8260 7370
L8170 7370
" />
<path d="M8480 7590
L8480 7090
L8760 7590
L8760 7090
" />
<path d="M9000 7590
L9000 7090
L9120 7090
L9190 7110
L9240 7160
L9260 7210
L9280 7300
L9280 7370
L9260 7470
L9240 7510
L9190 7560
L9120 7590
L9000 7590
" />
<path d="M10870 6900
L10870 7240
" />
<path d="M10750 6710
L10640 7070
L10940 7070
" />
<path d="M5280 2860
L3280 2860
" />
<path d="M5970 2820
L5800 2820
" />
<path d="M5800 3090
L5800 2590
L6040 2590
" />
<path d="M6400 2820
L6470 2850
L6490 2870
L6510 2920
L6510 2990
L6490 3040
L6470 3060
L6420 3090
L6230 3090
L6230 2590
L6400 2590
L6440 2610
L6470 2630
L6490 2680
L6490 2730
L6470 2780
L6440 2800
L6400 2820
L6230 2820
" />
<path d="M4400 2240
L4160 2240
L4140 2470
L4160 2450
L4210 2430
L4330 2430
L4370 2450
L4400 2470
L4420 2520
L4420 2640
L4400 2690
L4370 2710
L4330 2740
L4210 2740
L4160 2710
L4140 2690
" />
<path d="M5280 4360
L3280 4360
" />
<path d="M6080 4540
L6060 4560
L5990 4590
L5940 4590
L5870 4560
L5820 4510
L5800 4470
L5780 4370
L5780 4300
L5800 4210
L5820 4160
L5870 4110
L5940 4090
L5990 4090
L6060 4110
L6080 4130
" />
<path d="M6390 4090
L6490 4090
L6540 4110
L6580 4160
L6610 4250
L6610 4420
L6580 4510
L6540 4560
L6490 4590
L6390 4590
L6350 4560
L6300 4510
L6280 4420
L6280 4250
L6300 4160
L6350 4110
L6390 4090
" />
<path d="M6820 4590
L6820 4090
L6990 4440
L7150 4090
L7150 4590
" />
<path d="M7390 4590
L7390 4090
L7580 4090
L7630 4110
L7650 4130
L7670 4180
L7670 4250
L7650 4300
L7630 4320
L7580 4350
L7390 4350
" />
<path d="M4370 3740
L4280 3740
L4230 3760
L4210 3780
L4160 3860
L4140 3950
L4140 4140
L4160 4190
L4180 4210
L4230 4240
L4330 4240
L4370 4210
L4400 4190
L4420 4140
L4420 4020
L4400 3970
L4370 3950
L4330 3930
L4230 3930
L4180 3950
L4160 3970
L4140 4020
" />
<path d="M5280 5860
L3280 5860
" />
<path d="M5800 5820
L5970 5820
" />
<path d="M6040 6090
L5800 6090
L5800 5590
L6040 5590
" />
<path d="M6250 6090
L6250 5590
L6530 6090
L6530 5590
" />
<path d="M4110 5240
L4440 5240
L4230 5740
" />
<path d="M5280 7360
L3280 7360
" />
<path d="M5780 7560
L5850 7590
L5970 7590
L6010 7560
L6040 7540
L6060 7490
L6060 7440
L6040 7400
L6010 7370
L5970 7350
L5870 7320
L5820 7300
L5800 7280
L5780 7230
L5780 7180
L5800 7130
L5820 7110
L5870 7090
L5990 7090
L6060 7110
" />
<path d="M6260 7560
L6330 7590
L6450 7590
L6490 7560
L6520 7540
L6540 7490
L6540 7440
L6520 7400
L6490 7370
L6450 7350
L6350 7320
L6300 7300
L6280 7280
L6260 7230
L6260 7180
L6280 7130
L6300 7110
L6350 7090
L6470 7090
L6540 7110
" />
<path d="M4230 6950
L4180 6930
L4160 6900
L4140 6860
L4140 6830
L4160 6780
L4180 6760
L4230 6740
L4330 6740
L4370 6760
L4400 6780
L4420 6830
L4420 6860
L4400 6900
L4370 6930
L4330 6950
L4230 6950
L4180 6970
L4160 7000
L4140 7050
L4140 7140
L4160 7190
L4180 7210
L4230 7240
L4330 7240
L4370 7210
L4400 7190
L4420 7140
L4420 7050
L4400 7000
L4370 6970
L4330 6950
" />
<path d="M7350 530
L7350 1020
L7380 1070
L7410 1100
L7470 1130
L7580 1130
L7640 1100
L7670 1070
L7700 1020
L7700 530
" />
<path d="M8070 1070
L8100 1100
L8070 1130
L8040 1100
L8070 1070
L8070 1130
" />
<path d="M7950 560
L8010 530
L8150 530
L8210 560
L8240 620
L8240 670
L8210 730
L8180 760
L8130 790
L8100 820
L8070 870
L8070 900
" />
<path d="M5630 1820
L5720 1850
L5750 1870
L5780 1930
L5780 2020
L5750 2070
L5720 2100
L5660 2130
L5430 2130
L5430 1530
L5630 1530
L5690 1560
L5720 1590
L5750 1650
L5750 1700
L5720 1760
L5690 1790
L5630 1820
L5430 1820
" />
<path d="M6030 2130
L6030 1530
L6180 1530
L6260 1560
L6320 1620
L6350 1670
L6380 1790
L6380 1870
L6350 1990
L6320 2050
L6260 2100
L6180 2130
L6030 2130
" />
<path d="M6660 2130
L6780 2130
L6830 2100
L6860 2070
L6920 1990
L6950 1870
L6950 1650
L6920 1590
L6890 1560
L6830 1530
L6720 1530
L6660 1560
L6630 1590
L6600 1650
L6600 1790
L6630 1850
L6660 1870
L6720 1900
L6830 1900
L6890 1870
L6920 1850
L6950 1790
" />
<path d="M7150 1530
L7520 1530
L7320 1760
L7400 1760
L7460 1790
L7490 1820
L7520 1870
L7520 2020
L7490 2070
L7460 2100
L7400 2130
L7230 2130
L7170 2100
L7150 2070
" />
<path d="M7740 1590
L7770 1560
L7830 1530
L7970 1530
L8030 1560
L8060 1590
L8090 1650
L8090 1700
L8060 1790
L7720 2130
L8090 2130
" />
<path d="M8430 1790
L8370 1760
L8340 1730
L8310 1670
L8310 1650
L8340 1590
L8370 1560
L8430 1530
L8540 1530
L8600 1560
L8630 1590
L8660 1650
L8660 1670
L8630 1730
L8600 1760
L8540 1790
L8430 1790
L8370 1820
L8340 1850
L8310 1900
L8310 2020
L8340 2070
L8370 2100
L8430 2130
L8540 2130
L8600 2100
L8630 2070
L8660 2020
L8660 1900
L8630 1850
L8600 1820
L8540 1790
" />
<path d="M8910 1820
L9110 1820
" />
<path d="M9200 2130
L8910 2130
L8910 1530
L9200 1530
" />
<path d="M9650 1820
L9450 1820
" />
<path d="M9450 2130
L9450 1530
L9740 1530
" />
<path d="M10130 1530
L10130 1960
L10110 2050
L10050 2100
L9960 2130
L9910 2130
" />
</g> 
</svg>
