<?xml version="1.0" standalone="no"?>
 <!DOCTYPE svg PUBLIC "-//W3C//DTD SVG 1.1//EN" 
 "http://www.w3.org/Graphics/SVG/1.1/DTD/svg11.dtd"> 
<svg xmlns="http://www.w3.org/2000/svg" version="1.1" 
    width="8.35152cm" height="4.60248cm" viewBox="0 0 32880 18120 ">
<title>SVG Picture created as LM2576HV-ADJUSTABLE.svg date 2015/05/08 13:43:34 </title>
  <desc>Picture generated by Eeschema-SVG </desc>
<g style="fill:#000000; fill-opacity:1;stroke:#000000; stroke-opacity:1;
stroke-linecap:round; stroke-linejoin:round; "
 transform="translate(0 0) scale(1 1)">
</g>
<g style="fill:#000000; fill-opacity:0.0; 
stroke:#000000; stroke-width:60; stroke-opacity:1; 
stroke-linecap:round; stroke-linejoin:round;">
<rect x="13440" y="6560" width="6000" height="5000" rx="0" />
<path d="M13440 7060
L11440 7060
" />
<path d="M13890 6790
L14050 7290
L14220 6790
" />
<path d="M14390 7290
L14390 6790
" />
<path d="M14630 7290
L14630 6790
L14910 7290
L14910 6790
" />
<path d="M12580 6940
L12300 6940
" />
<path d="M12440 6940
L12440 6440
L12390 6510
L12340 6560
L12300 6580
" />
<path d="M13440 9060
L11440 9060
" />
<path d="M14050 8790
L14150 8790
L14200 8810
L14240 8860
L14270 8950
L14270 9120
L14240 9210
L14200 9260
L14150 9290
L14050 9290
L14010 9260
L13960 9210
L13940 9120
L13940 8950
L13960 8860
L14010 8810
L14050 8790
" />
<path d="M14690 8950
L14690 9290
" />
<path d="M14480 8950
L14480 9210
L14500 9260
L14550 9290
L14620 9290
L14670 9260
L14690 9240
" />
<path d="M14860 8950
L15050 8950
" />
<path d="M14930 8790
L14930 9210
L14950 9260
L15000 9290
L15050 9290
" />
<path d="M15220 8950
L15220 9450
" />
<path d="M15220 8980
L15270 8950
L15360 8950
L15410 8980
L15430 9000
L15460 9050
L15460 9190
L15430 9240
L15410 9260
L15360 9290
L15270 9290
L15220 9260
" />
<path d="M15880 8950
L15880 9290
" />
<path d="M15670 8950
L15670 9210
L15690 9260
L15740 9290
L15810 9290
L15860 9260
L15880 9240
" />
<path d="M16050 8950
L16240 8950
" />
<path d="M16120 8790
L16120 9210
L16140 9260
L16190 9290
L16240 9290
" />
<path d="M12300 8480
L12320 8460
L12370 8440
L12490 8440
L12530 8460
L12560 8480
L12580 8530
L12580 8580
L12560 8650
L12270 8940
L12580 8940
" />
<path d="M13440 11060
L11440 11060
" />
<path d="M14220 10810
L14170 10790
L14100 10790
L14030 10810
L13980 10860
L13960 10910
L13940 11000
L13940 11070
L13960 11170
L13980 11210
L14030 11260
L14100 11290
L14150 11290
L14220 11260
L14240 11240
L14240 11070
L14150 11070
" />
<path d="M14460 11290
L14460 10790
L14740 11290
L14740 10790
" />
<path d="M14980 11290
L14980 10790
L15100 10790
L15170 10810
L15220 10860
L15240 10910
L15260 11000
L15260 11070
L15240 11170
L15220 11210
L15170 11260
L15100 11290
L14980 11290
" />
<path d="M12270 10440
L12580 10440
L12410 10630
L12490 10630
L12530 10650
L12560 10670
L12580 10720
L12580 10840
L12560 10890
L12530 10910
L12490 10940
L12340 10940
L12300 10910
L12270 10890
" />
<path d="M19440 10060
L21440 10060
" />
<path d="M18400 10020
L18230 10020
" />
<path d="M18230 10290
L18230 9790
L18470 9790
" />
<path d="M18830 10020
L18900 10050
L18920 10070
L18940 10120
L18940 10190
L18920 10240
L18900 10260
L18850 10290
L18660 10290
L18660 9790
L18830 9790
L18870 9810
L18900 9830
L18920 9880
L18920 9930
L18900 9980
L18870 10000
L18830 10020
L18660 10020
" />
<path d="M20530 9600
L20530 9940
" />
<path d="M20410 9410
L20300 9770
L20600 9770
" />
<path d="M19440 8060
L21440 8060
" />
<path d="M16310 7790
L16410 7790
L16460 7810
L16500 7860
L16530 7950
L16530 8120
L16500 8210
L16460 8260
L16410 8290
L16310 8290
L16270 8260
L16220 8210
L16200 8120
L16200 7950
L16220 7860
L16270 7810
L16310 7790
" />
<path d="M16740 8290
L16740 7790
L17020 8290
L17020 7790
" />
<path d="M17620 7760
L17190 8410
" />
<path d="M17870 7790
L17970 7790
L18020 7810
L18060 7860
L18090 7950
L18090 8120
L18060 8210
L18020 8260
L17970 8290
L17870 8290
L17830 8260
L17780 8210
L17760 8120
L17760 7950
L17780 7860
L17830 7810
L17870 7790
" />
<path d="M18470 8020
L18300 8020
" />
<path d="M18300 8290
L18300 7790
L18540 7790
" />
<path d="M18900 8020
L18730 8020
" />
<path d="M18730 8290
L18730 7790
L18970 7790
" />
<path d="M20560 7440
L20320 7440
L20300 7670
L20320 7650
L20370 7630
L20490 7630
L20530 7650
L20560 7670
L20580 7720
L20580 7840
L20560 7890
L20530 7910
L20490 7940
L20370 7940
L20320 7910
L20300 7890
" />
<path d="M16030 3330
L16030 2730
L16260 2730
L16320 2760
L16350 2790
L16380 2850
L16380 2930
L16350 2990
L16320 3020
L16260 3050
L16030 3050
" />
<path d="M16720 3270
L16750 3300
L16720 3330
L16690 3300
L16720 3270
L16720 3330
" />
<path d="M16600 2760
L16660 2730
L16800 2730
L16860 2760
L16890 2820
L16890 2870
L16860 2930
L16830 2960
L16780 2990
L16750 3020
L16720 3070
L16720 3100
" />
<path d="M9470 6330
L9180 6330
L9180 5730
" />
<path d="M9670 6330
L9670 5730
L9870 6160
L10070 5730
L10070 6330
" />
<path d="M10330 5790
L10360 5760
L10420 5730
L10560 5730
L10620 5760
L10650 5790
L10680 5850
L10680 5900
L10650 5990
L10310 6330
L10680 6330
" />
<path d="M11220 5730
L10930 5730
L10900 6020
L10930 5990
L10990 5960
L11130 5960
L11190 5990
L11220 6020
L11250 6070
L11250 6220
L11220 6270
L11190 6300
L11130 6330
L10990 6330
L10930 6300
L10900 6270
" />
<path d="M11450 5730
L11850 5730
L11590 6330
" />
<path d="M12330 5730
L12220 5730
L12160 5760
L12130 5790
L12070 5870
L12040 5990
L12040 6220
L12070 6270
L12100 6300
L12160 6330
L12270 6330
L12330 6300
L12360 6270
L12390 6220
L12390 6070
L12360 6020
L12330 5990
L12270 5960
L12160 5960
L12100 5990
L12070 6020
L12040 6070
" />
<path d="M13070 5700
L12560 6470
" />
<path d="M13560 6330
L13270 6330
L13270 5730
" />
<path d="M13760 6330
L13760 5730
L13960 6160
L14160 5730
L14160 6330
" />
<path d="M14420 5790
L14450 5760
L14510 5730
L14650 5730
L14710 5760
L14740 5790
L14770 5850
L14770 5900
L14740 5990
L14400 6330
L14770 6330
" />
<path d="M15310 5730
L15020 5730
L14990 6020
L15020 5990
L15080 5960
L15220 5960
L15280 5990
L15310 6020
L15340 6070
L15340 6220
L15310 6270
L15280 6300
L15220 6330
L15080 6330
L15020 6300
L14990 6270
" />
<path d="M15540 5730
L15940 5730
L15680 6330
" />
<path d="M16420 5730
L16310 5730
L16250 5760
L16220 5790
L16160 5870
L16130 5990
L16130 6220
L16160 6270
L16190 6300
L16250 6330
L16360 6330
L16420 6300
L16450 6270
L16480 6220
L16480 6070
L16450 6020
L16420 5990
L16360 5960
L16250 5960
L16190 5990
L16160 6020
L16130 6070
" />
<path d="M16730 6330
L16730 5730
" />
<path d="M16730 6020
L17080 6020
" />
<path d="M17080 6330
L17080 5730
" />
<path d="M17280 5730
L17480 6330
L17680 5730
" />
<path d="M17870 6100
L18330 6100
" />
<path d="M18580 6160
L18870 6160
" />
<path d="M18530 6330
L18730 5730
L18930 6330
" />
<path d="M19120 6330
L19120 5730
L19270 5730
L19350 5760
L19410 5820
L19440 5870
L19470 5990
L19470 6070
L19440 6190
L19410 6250
L19350 6300
L19270 6330
L19120 6330
" />
<path d="M19890 5730
L19890 6160
L19870 6250
L19810 6300
L19720 6330
L19670 6330
" />
<path d="M20180 5730
L20180 6220
L20210 6270
L20240 6300
L20300 6330
L20410 6330
L20470 6300
L20500 6270
L20530 6220
L20530 5730
" />
<path d="M20780 6300
L20870 6330
L21010 6330
L21070 6300
L21100 6270
L21130 6220
L21130 6160
L21100 6100
L21070 6070
L21010 6050
L20900 6020
L20840 5990
L20810 5960
L20780 5900
L20780 5850
L20810 5790
L20840 5760
L20900 5730
L21040 5730
L21130 5760
" />
<path d="M21300 5730
L21640 5730
" />
<path d="M21470 6330
L21470 5730
" />
<path d="M21810 6160
L22100 6160
" />
<path d="M21760 6330
L21960 5730
L22160 6330
" />
<path d="M22550 6020
L22640 6050
L22670 6070
L22700 6130
L22700 6220
L22670 6270
L22640 6300
L22580 6330
L22350 6330
L22350 5730
L22550 5730
L22610 5760
L22640 5790
L22670 5850
L22670 5900
L22640 5960
L22610 5990
L22550 6020
L22350 6020
" />
<path d="M23240 6330
L22950 6330
L22950 5730
" />
<path d="M23440 6020
L23640 6020
" />
<path d="M23730 6330
L23440 6330
L23440 5730
L23730 5730
" />
</g> 
</svg>
