M48
INCH,TZ
T1C0.008
T2C0.016
T3C0.031
T4C0.040
T5C0.063
T6C0.071
T7C0.157
%
G90
G05
T1
X057028Y-044016
X058435Y-038081
X058445Y-038396
X058445Y-038720
X058445Y-039016
X058445Y-039350
X058445Y-039665
X058445Y-039980
X058465Y-037785
X059252Y-040659
X059685Y-042539
X060665Y-043055
X060669Y-041358
X061614Y-036283
X061614Y-041193
X062161Y-041520
X062402Y-040547
X062654Y-036421
X062701Y-041768
X063161Y-038102
X063185Y-037402
X063205Y-042362
X063303Y-038457
X063386Y-035906
X063472Y-040043
X063720Y-039673
X063752Y-039315
X064311Y-039209
X064409Y-043819
X064606Y-041035
X064831Y-043461
X065295Y-043441
X065846Y-043461
X066346Y-043409
X069012Y-043039
X069563Y-038665
X069563Y-039445
X069606Y-043043
X070512Y-043415
T2
X056929Y-036614
X058622Y-041193
X059449Y-029331
X059449Y-036220
X060217Y-042933
X060630Y-030315
X060827Y-038878
X062992Y-029528
X064350Y-031594
X065325Y-038720
X071280Y-031488
X071512Y-034920
X072677Y-034213
T3
X072283Y-029783
T4
X056000Y-036000
X056000Y-037000
X056000Y-038000
X056000Y-039000
X056000Y-040000
X056000Y-041000
X056000Y-042000
X056000Y-043000
X057000Y-045000
X058000Y-035000
X058000Y-045000
X059000Y-035000
X059000Y-045000
X060000Y-035000
X060000Y-045000
X061000Y-035000
X061000Y-045000
X062000Y-035000
X062000Y-045000
X063000Y-035000
X063000Y-045000
X064000Y-045000
X065000Y-045000
X066000Y-045000
X067000Y-045000
X068000Y-037000
X068000Y-038000
X068000Y-039000
X068000Y-040000
X068000Y-041000
X068000Y-045000
X069000Y-045000
X070000Y-037000
X070000Y-045000
X072000Y-036000
X072000Y-040000
X072000Y-041000
X072000Y-042000
X072000Y-043000
X072000Y-044000
X074000Y-035000
X074000Y-036000
X074000Y-037000
X074000Y-038000
X074000Y-039000
X074000Y-040000
X074000Y-041000
X074000Y-042000
X074000Y-043000
X074000Y-044000
X076000Y-037000
X076000Y-038000
X076000Y-039000
X076000Y-040000
X076000Y-041000
X076000Y-042000
T5
X076378Y-031299
T6
X074606Y-031299
T7
X055315Y-029528
X055315Y-044488
X077756Y-035236
X077756Y-044488
T0
M30
