%TF.GenerationSoftware,KiCad,Pcbnew,(after 2015-mar-04 BZR unknown)-product*%
%TF.CreationDate,2015-05-27T15:40:32-04:00*%
%TF.JobID,arduinoquad,61726475696E6F717561642E6B696361,rev?*%
%TF.FileFunction,Copper,L4,Bot,Plane*%
%FSLAX46Y46*%
G04 Gerber Fmt 4.6, Leading zero omitted, Abs format (unit mm)*
G04 Created by KiCad (PCBNEW (after 2015-mar-04 BZR unknown)-product) date 27/05/2015 3:40:32 PM*
%MOMM*%
G01*
G04 APERTURE LIST*
%ADD10C,0.100000*%
%ADD11R,2.032000X1.727200*%
%ADD12O,2.032000X1.727200*%
%ADD13C,1.600000*%
%ADD14C,1.800000*%
%ADD15C,4.200000*%
%ADD16R,2.235200X2.235200*%
%ADD17R,1.727200X2.032000*%
%ADD18O,1.727200X2.032000*%
%ADD19C,0.600000*%
%ADD20C,1.000000*%
%ADD21C,0.300000*%
%ADD22C,0.500000*%
%ADD23C,0.250000*%
%ADD24C,0.254000*%
G04 APERTURE END LIST*
D10*
D11*
X193040000Y-106680000D03*
D12*
X193040000Y-104140000D03*
X193040000Y-101600000D03*
X193040000Y-99060000D03*
X193040000Y-96520000D03*
X193040000Y-93980000D03*
D13*
X194000000Y-79500000D03*
D14*
X189500000Y-79500000D03*
D15*
X140500000Y-75000000D03*
X197500000Y-89500000D03*
X197500000Y-113000000D03*
X140500000Y-113000000D03*
D11*
X172720000Y-104140000D03*
D12*
X172720000Y-101600000D03*
X172720000Y-99060000D03*
X172720000Y-96520000D03*
X172720000Y-93980000D03*
D16*
X177800000Y-93980000D03*
X182880000Y-91440000D03*
D11*
X182880000Y-101600000D03*
D12*
X182880000Y-104140000D03*
X182880000Y-106680000D03*
X182880000Y-109220000D03*
X182880000Y-111760000D03*
D17*
X147320000Y-88900000D03*
D18*
X149860000Y-88900000D03*
X152400000Y-88900000D03*
X154940000Y-88900000D03*
X157480000Y-88900000D03*
X160020000Y-88900000D03*
D17*
X162560000Y-114300000D03*
D18*
X160020000Y-114300000D03*
X157480000Y-114300000D03*
X154940000Y-114300000D03*
X152400000Y-114300000D03*
X149860000Y-114300000D03*
X147320000Y-114300000D03*
X144780000Y-114300000D03*
D17*
X165100000Y-114300000D03*
D18*
X167640000Y-114300000D03*
X170180000Y-114300000D03*
X172720000Y-114300000D03*
X175260000Y-114300000D03*
X177800000Y-114300000D03*
D11*
X142240000Y-91440000D03*
D12*
X142240000Y-93980000D03*
X142240000Y-96520000D03*
X142240000Y-99060000D03*
X142240000Y-101600000D03*
X142240000Y-104140000D03*
X142240000Y-106680000D03*
X142240000Y-109220000D03*
D11*
X187960000Y-88900000D03*
D12*
X187960000Y-91440000D03*
X187960000Y-93980000D03*
X187960000Y-96520000D03*
X187960000Y-99060000D03*
X187960000Y-101600000D03*
X187960000Y-104140000D03*
X187960000Y-106680000D03*
X187960000Y-109220000D03*
X187960000Y-111760000D03*
D19*
X148900000Y-104630000D03*
X151000000Y-92000000D03*
X152950000Y-109050000D03*
X165925000Y-98350000D03*
X154500000Y-98750000D03*
X151000000Y-74500000D03*
X160000000Y-75000000D03*
X154000000Y-77000000D03*
X181640480Y-88696800D03*
X181051200Y-79979520D03*
D20*
X183600000Y-75650000D03*
D19*
X144600000Y-93000000D03*
D21*
X154100000Y-105050000D03*
D19*
X151600000Y-108050000D03*
D21*
X161000000Y-91200000D03*
X164100000Y-104230000D03*
X179100000Y-110275000D03*
X159260000Y-106090000D03*
X160430000Y-96780000D03*
X163600000Y-111300000D03*
X160540000Y-107600000D03*
X160790000Y-97680000D03*
X161930000Y-99860000D03*
X175290000Y-109320000D03*
X163350000Y-99590000D03*
D19*
X176690000Y-98210000D03*
X176690000Y-100190000D03*
D21*
X176800000Y-109330000D03*
X159140000Y-92510000D03*
X154090000Y-109360000D03*
X156500000Y-92160000D03*
X148500000Y-95975000D03*
X148425000Y-96725000D03*
X144850000Y-111800000D03*
X148450000Y-97525000D03*
X148450000Y-98350000D03*
X148450000Y-99100000D03*
X148450000Y-99950000D03*
X148450000Y-100750000D03*
X148450000Y-101550000D03*
X150500000Y-103275000D03*
X164670000Y-110390000D03*
X156500000Y-104630000D03*
X165850000Y-110340000D03*
X158500000Y-102990000D03*
X161220000Y-101710000D03*
X167250000Y-110390000D03*
X161850000Y-100770000D03*
X168520000Y-110260000D03*
X157890000Y-105460000D03*
X160490000Y-95000000D03*
D19*
X184600000Y-86900000D03*
X163450000Y-80250000D03*
D22*
X187960000Y-93980000D02*
X186680000Y-93980000D01*
X184396800Y-88696800D02*
X181640480Y-88696800D01*
X185400000Y-89700000D02*
X184396800Y-88696800D01*
X185400000Y-92700000D02*
X185400000Y-89700000D01*
X186680000Y-93980000D02*
X185400000Y-92700000D01*
X152950000Y-100300000D02*
X154500000Y-98750000D01*
X152950000Y-109050000D02*
X152950000Y-100300000D01*
X165925000Y-98350000D02*
X165525000Y-98750000D01*
X165525000Y-98750000D02*
X154500000Y-98750000D01*
X149825000Y-94075000D02*
X154500000Y-98750000D01*
X144600000Y-94075000D02*
X149825000Y-94075000D01*
X144075000Y-94075000D02*
X144600000Y-94075000D01*
D23*
X154500000Y-98750000D02*
X157480000Y-95770000D01*
X157480000Y-95770000D02*
X157480000Y-88900000D01*
D22*
X157480000Y-88900000D02*
X160000000Y-86380000D01*
X160000000Y-86380000D02*
X160000000Y-75000000D01*
X154940000Y-88900000D02*
X157480000Y-88900000D01*
X157480000Y-88900000D02*
X160020000Y-88900000D01*
X151000000Y-74500000D02*
X151500000Y-75000000D01*
X151500000Y-75000000D02*
X156000000Y-75000000D01*
X156000000Y-75000000D02*
X160000000Y-75000000D01*
X154000000Y-77000000D02*
X156000000Y-75000000D01*
X181051200Y-88107520D02*
X181051200Y-79979520D01*
X181640480Y-88696800D02*
X181051200Y-88107520D01*
X193040000Y-93980000D02*
X187960000Y-93980000D01*
X171715000Y-104140000D02*
X165925000Y-98350000D01*
X172720000Y-104140000D02*
X171715000Y-104140000D01*
X160760000Y-74240000D02*
X182885960Y-74240000D01*
X182885960Y-74935960D02*
X182885960Y-74240000D01*
X183600000Y-75650000D02*
X182885960Y-74935960D01*
X160760000Y-74240000D02*
X160000000Y-75000000D01*
X183600000Y-77430720D02*
X181051200Y-79979520D01*
X183600000Y-75650000D02*
X183600000Y-77430720D01*
D23*
X144600000Y-93000000D02*
X144600000Y-94075000D01*
X182850000Y-111890000D02*
X182850000Y-111815000D01*
D24*
G36*
X200790000Y-112747937D02*
X200590249Y-114102673D01*
X200235474Y-114695749D01*
X200235474Y-112458362D01*
X200235474Y-88958362D01*
X199819972Y-87952771D01*
X199051276Y-87182732D01*
X198046412Y-86765476D01*
X196958362Y-86764526D01*
X195952771Y-87180028D01*
X195435248Y-87696648D01*
X195435248Y-79215813D01*
X195217243Y-78688200D01*
X194813923Y-78284176D01*
X194286691Y-78065250D01*
X193715813Y-78064752D01*
X193188200Y-78282757D01*
X192784176Y-78686077D01*
X192565250Y-79213309D01*
X192564752Y-79784187D01*
X192782757Y-80311800D01*
X193186077Y-80715824D01*
X193713309Y-80934750D01*
X194284187Y-80935248D01*
X194811800Y-80717243D01*
X195215824Y-80313923D01*
X195434750Y-79786691D01*
X195435248Y-79215813D01*
X195435248Y-87696648D01*
X195182732Y-87948724D01*
X194765476Y-88953588D01*
X194764526Y-90041638D01*
X195180028Y-91047229D01*
X195948724Y-91817268D01*
X196953588Y-92234524D01*
X198041638Y-92235474D01*
X199047229Y-91819972D01*
X199817268Y-91051276D01*
X200234524Y-90046412D01*
X200235474Y-88958362D01*
X200235474Y-112458362D01*
X199819972Y-111452771D01*
X199051276Y-110682732D01*
X198046412Y-110265476D01*
X196958362Y-110264526D01*
X195952771Y-110680028D01*
X195182732Y-111448724D01*
X194765476Y-112453588D01*
X194764526Y-113541638D01*
X195180028Y-114547229D01*
X195948724Y-115317268D01*
X196953588Y-115734524D01*
X198041638Y-115735474D01*
X199047229Y-115319972D01*
X199817268Y-114551276D01*
X200234524Y-113546412D01*
X200235474Y-112458362D01*
X200235474Y-114695749D01*
X199933042Y-115201325D01*
X198905429Y-115964843D01*
X197612114Y-116290000D01*
X194723345Y-116290000D01*
X194723345Y-104140000D01*
X194609271Y-103566511D01*
X194284415Y-103080330D01*
X193969634Y-102870000D01*
X194284415Y-102659670D01*
X194609271Y-102173489D01*
X194723345Y-101600000D01*
X194609271Y-101026511D01*
X194284415Y-100540330D01*
X193969634Y-100330000D01*
X194284415Y-100119670D01*
X194609271Y-99633489D01*
X194723345Y-99060000D01*
X194609271Y-98486511D01*
X194284415Y-98000330D01*
X193969634Y-97790000D01*
X194284415Y-97579670D01*
X194609271Y-97093489D01*
X194723345Y-96520000D01*
X194609271Y-95946511D01*
X194284415Y-95460330D01*
X193974930Y-95253539D01*
X194390732Y-94882036D01*
X194644709Y-94354791D01*
X194647358Y-94339026D01*
X194647358Y-93620974D01*
X194644709Y-93605209D01*
X194390732Y-93077964D01*
X193954320Y-92688046D01*
X193401913Y-92494816D01*
X193167000Y-92639076D01*
X193167000Y-93853000D01*
X194526217Y-93853000D01*
X194647358Y-93620974D01*
X194647358Y-94339026D01*
X194526217Y-94107000D01*
X193167000Y-94107000D01*
X193167000Y-94127000D01*
X192913000Y-94127000D01*
X192913000Y-94107000D01*
X192913000Y-93853000D01*
X192913000Y-92639076D01*
X192678087Y-92494816D01*
X192125680Y-92688046D01*
X191689268Y-93077964D01*
X191435291Y-93605209D01*
X191432642Y-93620974D01*
X191553783Y-93853000D01*
X192913000Y-93853000D01*
X192913000Y-94107000D01*
X191553783Y-94107000D01*
X191432642Y-94339026D01*
X191435291Y-94354791D01*
X191689268Y-94882036D01*
X192105069Y-95253539D01*
X191795585Y-95460330D01*
X191470729Y-95946511D01*
X191356655Y-96520000D01*
X191470729Y-97093489D01*
X191795585Y-97579670D01*
X192110365Y-97790000D01*
X191795585Y-98000330D01*
X191470729Y-98486511D01*
X191356655Y-99060000D01*
X191470729Y-99633489D01*
X191795585Y-100119670D01*
X192110365Y-100330000D01*
X191795585Y-100540330D01*
X191470729Y-101026511D01*
X191356655Y-101600000D01*
X191470729Y-102173489D01*
X191795585Y-102659670D01*
X192110365Y-102870000D01*
X191795585Y-103080330D01*
X191470729Y-103566511D01*
X191356655Y-104140000D01*
X191470729Y-104713489D01*
X191795585Y-105199670D01*
X191811367Y-105210215D01*
X191781877Y-105215937D01*
X191569073Y-105355727D01*
X191426623Y-105566760D01*
X191376560Y-105816400D01*
X191376560Y-107543600D01*
X191423537Y-107785723D01*
X191563327Y-107998527D01*
X191774360Y-108140977D01*
X192024000Y-108191040D01*
X194056000Y-108191040D01*
X194298123Y-108144063D01*
X194510927Y-108004273D01*
X194653377Y-107793240D01*
X194703440Y-107543600D01*
X194703440Y-105816400D01*
X194656463Y-105574277D01*
X194516673Y-105361473D01*
X194305640Y-105219023D01*
X194267037Y-105211281D01*
X194284415Y-105199670D01*
X194609271Y-104713489D01*
X194723345Y-104140000D01*
X194723345Y-116290000D01*
X191035265Y-116290000D01*
X191035265Y-79196009D01*
X190802068Y-78631629D01*
X190370643Y-78199449D01*
X189806670Y-77965267D01*
X189196009Y-77964735D01*
X188631629Y-78197932D01*
X188199449Y-78629357D01*
X187965267Y-79193330D01*
X187964735Y-79803991D01*
X188197932Y-80368371D01*
X188629357Y-80800551D01*
X189193330Y-81034733D01*
X189803991Y-81035265D01*
X190368371Y-80802068D01*
X190800551Y-80370643D01*
X191034733Y-79806670D01*
X191035265Y-79196009D01*
X191035265Y-116290000D01*
X189643345Y-116290000D01*
X189643345Y-111760000D01*
X189529271Y-111186511D01*
X189204415Y-110700330D01*
X188889634Y-110490000D01*
X189204415Y-110279670D01*
X189529271Y-109793489D01*
X189643345Y-109220000D01*
X189529271Y-108646511D01*
X189204415Y-108160330D01*
X188889634Y-107950000D01*
X189204415Y-107739670D01*
X189529271Y-107253489D01*
X189643345Y-106680000D01*
X189529271Y-106106511D01*
X189204415Y-105620330D01*
X188889634Y-105410000D01*
X189204415Y-105199670D01*
X189529271Y-104713489D01*
X189643345Y-104140000D01*
X189529271Y-103566511D01*
X189204415Y-103080330D01*
X188889634Y-102870000D01*
X189204415Y-102659670D01*
X189529271Y-102173489D01*
X189643345Y-101600000D01*
X189529271Y-101026511D01*
X189204415Y-100540330D01*
X188889634Y-100330000D01*
X189204415Y-100119670D01*
X189529271Y-99633489D01*
X189643345Y-99060000D01*
X189529271Y-98486511D01*
X189204415Y-98000330D01*
X188889634Y-97790000D01*
X189204415Y-97579670D01*
X189529271Y-97093489D01*
X189643345Y-96520000D01*
X189643345Y-91440000D01*
X189529271Y-90866511D01*
X189204415Y-90380330D01*
X189188632Y-90369784D01*
X189218123Y-90364063D01*
X189430927Y-90224273D01*
X189573377Y-90013240D01*
X189623440Y-89763600D01*
X189623440Y-88036400D01*
X189576463Y-87794277D01*
X189436673Y-87581473D01*
X189225640Y-87439023D01*
X188976000Y-87388960D01*
X186944000Y-87388960D01*
X186701877Y-87435937D01*
X186489073Y-87575727D01*
X186346623Y-87786760D01*
X186296560Y-88036400D01*
X186296560Y-89763600D01*
X186343537Y-90005723D01*
X186483327Y-90218527D01*
X186694360Y-90360977D01*
X186732962Y-90368718D01*
X186715585Y-90380330D01*
X186390729Y-90866511D01*
X186276655Y-91440000D01*
X186390729Y-92013489D01*
X186715585Y-92499670D01*
X187025069Y-92706460D01*
X186609268Y-93077964D01*
X186355291Y-93605209D01*
X186352642Y-93620974D01*
X186473783Y-93853000D01*
X187833000Y-93853000D01*
X187833000Y-93833000D01*
X188087000Y-93833000D01*
X188087000Y-93853000D01*
X189446217Y-93853000D01*
X189567358Y-93620974D01*
X189564709Y-93605209D01*
X189310732Y-93077964D01*
X188894930Y-92706460D01*
X189204415Y-92499670D01*
X189529271Y-92013489D01*
X189643345Y-91440000D01*
X189643345Y-96520000D01*
X189529271Y-95946511D01*
X189204415Y-95460330D01*
X188894930Y-95253539D01*
X189310732Y-94882036D01*
X189564709Y-94354791D01*
X189567358Y-94339026D01*
X189446217Y-94107000D01*
X188087000Y-94107000D01*
X188087000Y-94127000D01*
X187833000Y-94127000D01*
X187833000Y-94107000D01*
X186473783Y-94107000D01*
X186352642Y-94339026D01*
X186355291Y-94354791D01*
X186609268Y-94882036D01*
X187025069Y-95253539D01*
X186715585Y-95460330D01*
X186390729Y-95946511D01*
X186276655Y-96520000D01*
X186390729Y-97093489D01*
X186715585Y-97579670D01*
X187030365Y-97790000D01*
X186715585Y-98000330D01*
X186390729Y-98486511D01*
X186276655Y-99060000D01*
X186390729Y-99633489D01*
X186715585Y-100119670D01*
X187030365Y-100330000D01*
X186715585Y-100540330D01*
X186390729Y-101026511D01*
X186276655Y-101600000D01*
X186390729Y-102173489D01*
X186715585Y-102659670D01*
X187030365Y-102870000D01*
X186715585Y-103080330D01*
X186390729Y-103566511D01*
X186276655Y-104140000D01*
X186390729Y-104713489D01*
X186715585Y-105199670D01*
X187030365Y-105410000D01*
X186715585Y-105620330D01*
X186390729Y-106106511D01*
X186276655Y-106680000D01*
X186390729Y-107253489D01*
X186715585Y-107739670D01*
X187030365Y-107950000D01*
X186715585Y-108160330D01*
X186390729Y-108646511D01*
X186276655Y-109220000D01*
X186390729Y-109793489D01*
X186715585Y-110279670D01*
X187030365Y-110490000D01*
X186715585Y-110700330D01*
X186390729Y-111186511D01*
X186276655Y-111760000D01*
X186390729Y-112333489D01*
X186715585Y-112819670D01*
X187201766Y-113144526D01*
X187775255Y-113258600D01*
X188144745Y-113258600D01*
X188718234Y-113144526D01*
X189204415Y-112819670D01*
X189529271Y-112333489D01*
X189643345Y-111760000D01*
X189643345Y-116290000D01*
X185535162Y-116290000D01*
X185535162Y-86714833D01*
X185393117Y-86371057D01*
X185130327Y-86107808D01*
X184786799Y-85965162D01*
X184414833Y-85964838D01*
X184071057Y-86106883D01*
X183807808Y-86369673D01*
X183665162Y-86713201D01*
X183664838Y-87085167D01*
X183806883Y-87428943D01*
X184069673Y-87692192D01*
X184413201Y-87834838D01*
X184785167Y-87835162D01*
X185128943Y-87693117D01*
X185392192Y-87430327D01*
X185534838Y-87086799D01*
X185535162Y-86714833D01*
X185535162Y-116290000D01*
X184645040Y-116290000D01*
X184645040Y-92557600D01*
X184645040Y-90322400D01*
X184598063Y-90080277D01*
X184458273Y-89867473D01*
X184247240Y-89725023D01*
X183997600Y-89674960D01*
X181762400Y-89674960D01*
X181520277Y-89721937D01*
X181307473Y-89861727D01*
X181165023Y-90072760D01*
X181114960Y-90322400D01*
X181114960Y-92557600D01*
X181161937Y-92799723D01*
X181301727Y-93012527D01*
X181512760Y-93154977D01*
X181762400Y-93205040D01*
X183997600Y-93205040D01*
X184239723Y-93158063D01*
X184452527Y-93018273D01*
X184594977Y-92807240D01*
X184645040Y-92557600D01*
X184645040Y-116290000D01*
X184563345Y-116290000D01*
X184563345Y-111760000D01*
X184449271Y-111186511D01*
X184124415Y-110700330D01*
X183809634Y-110490000D01*
X184124415Y-110279670D01*
X184449271Y-109793489D01*
X184563345Y-109220000D01*
X184449271Y-108646511D01*
X184124415Y-108160330D01*
X183809634Y-107950000D01*
X184124415Y-107739670D01*
X184449271Y-107253489D01*
X184563345Y-106680000D01*
X184449271Y-106106511D01*
X184124415Y-105620330D01*
X183809634Y-105410000D01*
X184124415Y-105199670D01*
X184449271Y-104713489D01*
X184563345Y-104140000D01*
X184449271Y-103566511D01*
X184124415Y-103080330D01*
X184108632Y-103069784D01*
X184138123Y-103064063D01*
X184350927Y-102924273D01*
X184493377Y-102713240D01*
X184543440Y-102463600D01*
X184543440Y-100736400D01*
X184496463Y-100494277D01*
X184356673Y-100281473D01*
X184145640Y-100139023D01*
X183896000Y-100088960D01*
X181864000Y-100088960D01*
X181621877Y-100135937D01*
X181409073Y-100275727D01*
X181266623Y-100486760D01*
X181216560Y-100736400D01*
X181216560Y-102463600D01*
X181263537Y-102705723D01*
X181403327Y-102918527D01*
X181614360Y-103060977D01*
X181652962Y-103068718D01*
X181635585Y-103080330D01*
X181310729Y-103566511D01*
X181196655Y-104140000D01*
X181310729Y-104713489D01*
X181635585Y-105199670D01*
X181950365Y-105410000D01*
X181635585Y-105620330D01*
X181310729Y-106106511D01*
X181196655Y-106680000D01*
X181310729Y-107253489D01*
X181635585Y-107739670D01*
X181950365Y-107950000D01*
X181635585Y-108160330D01*
X181310729Y-108646511D01*
X181196655Y-109220000D01*
X181310729Y-109793489D01*
X181635585Y-110279670D01*
X181950365Y-110490000D01*
X181635585Y-110700330D01*
X181310729Y-111186511D01*
X181196655Y-111760000D01*
X181310729Y-112333489D01*
X181635585Y-112819670D01*
X182121766Y-113144526D01*
X182695255Y-113258600D01*
X183064745Y-113258600D01*
X183638234Y-113144526D01*
X184124415Y-112819670D01*
X184449271Y-112333489D01*
X184563345Y-111760000D01*
X184563345Y-116290000D01*
X179885136Y-116290000D01*
X179885136Y-110119539D01*
X179765879Y-109830914D01*
X179565040Y-109629724D01*
X179565040Y-95097600D01*
X179565040Y-92862400D01*
X179518063Y-92620277D01*
X179378273Y-92407473D01*
X179167240Y-92265023D01*
X178917600Y-92214960D01*
X176682400Y-92214960D01*
X176440277Y-92261937D01*
X176227473Y-92401727D01*
X176085023Y-92612760D01*
X176034960Y-92862400D01*
X176034960Y-95097600D01*
X176081937Y-95339723D01*
X176221727Y-95552527D01*
X176432760Y-95694977D01*
X176682400Y-95745040D01*
X178917600Y-95745040D01*
X179159723Y-95698063D01*
X179372527Y-95558273D01*
X179514977Y-95347240D01*
X179565040Y-95097600D01*
X179565040Y-109629724D01*
X179545247Y-109609897D01*
X179256831Y-109490137D01*
X178944539Y-109489864D01*
X178655914Y-109609121D01*
X178434897Y-109829753D01*
X178315137Y-110118169D01*
X178314864Y-110430461D01*
X178434121Y-110719086D01*
X178654753Y-110940103D01*
X178943169Y-111059863D01*
X179255461Y-111060136D01*
X179544086Y-110940879D01*
X179765103Y-110720247D01*
X179884863Y-110431831D01*
X179885136Y-110119539D01*
X179885136Y-116290000D01*
X179298600Y-116290000D01*
X179298600Y-114484745D01*
X179298600Y-114115255D01*
X179184526Y-113541766D01*
X178859670Y-113055585D01*
X178373489Y-112730729D01*
X177800000Y-112616655D01*
X177625162Y-112651432D01*
X177625162Y-100004833D01*
X177625162Y-98024833D01*
X177483117Y-97681057D01*
X177220327Y-97417808D01*
X176876799Y-97275162D01*
X176504833Y-97274838D01*
X176161057Y-97416883D01*
X175897808Y-97679673D01*
X175755162Y-98023201D01*
X175754838Y-98395167D01*
X175896883Y-98738943D01*
X176159673Y-99002192D01*
X176503201Y-99144838D01*
X176875167Y-99145162D01*
X177218943Y-99003117D01*
X177482192Y-98740327D01*
X177624838Y-98396799D01*
X177625162Y-98024833D01*
X177625162Y-100004833D01*
X177483117Y-99661057D01*
X177220327Y-99397808D01*
X176876799Y-99255162D01*
X176504833Y-99254838D01*
X176161057Y-99396883D01*
X175897808Y-99659673D01*
X175755162Y-100003201D01*
X175754838Y-100375167D01*
X175896883Y-100718943D01*
X176159673Y-100982192D01*
X176503201Y-101124838D01*
X176875167Y-101125162D01*
X177218943Y-100983117D01*
X177482192Y-100720327D01*
X177624838Y-100376799D01*
X177625162Y-100004833D01*
X177625162Y-112651432D01*
X177585136Y-112659394D01*
X177585136Y-109174539D01*
X177465879Y-108885914D01*
X177245247Y-108664897D01*
X176956831Y-108545137D01*
X176644539Y-108544864D01*
X176355914Y-108664121D01*
X176134897Y-108884753D01*
X176046997Y-109096439D01*
X175955879Y-108875914D01*
X175735247Y-108654897D01*
X175446831Y-108535137D01*
X175134539Y-108534864D01*
X174845914Y-108654121D01*
X174624897Y-108874753D01*
X174505137Y-109163169D01*
X174504864Y-109475461D01*
X174624121Y-109764086D01*
X174844753Y-109985103D01*
X175133169Y-110104863D01*
X175445461Y-110105136D01*
X175734086Y-109985879D01*
X175955103Y-109765247D01*
X176043002Y-109553560D01*
X176134121Y-109774086D01*
X176354753Y-109995103D01*
X176643169Y-110114863D01*
X176955461Y-110115136D01*
X177244086Y-109995879D01*
X177465103Y-109775247D01*
X177584863Y-109486831D01*
X177585136Y-109174539D01*
X177585136Y-112659394D01*
X177226511Y-112730729D01*
X176740330Y-113055585D01*
X176530000Y-113370365D01*
X176319670Y-113055585D01*
X175833489Y-112730729D01*
X175260000Y-112616655D01*
X174686511Y-112730729D01*
X174403345Y-112919934D01*
X174403345Y-101600000D01*
X174289271Y-101026511D01*
X173964415Y-100540330D01*
X173649634Y-100330000D01*
X173964415Y-100119670D01*
X174289271Y-99633489D01*
X174403345Y-99060000D01*
X174289271Y-98486511D01*
X173964415Y-98000330D01*
X173649634Y-97790000D01*
X173964415Y-97579670D01*
X174289271Y-97093489D01*
X174403345Y-96520000D01*
X174289271Y-95946511D01*
X173964415Y-95460330D01*
X173649634Y-95250000D01*
X173964415Y-95039670D01*
X174289271Y-94553489D01*
X174403345Y-93980000D01*
X174289271Y-93406511D01*
X173964415Y-92920330D01*
X173478234Y-92595474D01*
X172904745Y-92481400D01*
X172535255Y-92481400D01*
X171961766Y-92595474D01*
X171475585Y-92920330D01*
X171150729Y-93406511D01*
X171036655Y-93980000D01*
X171150729Y-94553489D01*
X171475585Y-95039670D01*
X171790365Y-95250000D01*
X171475585Y-95460330D01*
X171150729Y-95946511D01*
X171036655Y-96520000D01*
X171150729Y-97093489D01*
X171475585Y-97579670D01*
X171790365Y-97790000D01*
X171475585Y-98000330D01*
X171150729Y-98486511D01*
X171036655Y-99060000D01*
X171150729Y-99633489D01*
X171475585Y-100119670D01*
X171790365Y-100330000D01*
X171475585Y-100540330D01*
X171150729Y-101026511D01*
X171036655Y-101600000D01*
X171150729Y-102173489D01*
X171475585Y-102659670D01*
X171497780Y-102674500D01*
X171344302Y-102738073D01*
X171165673Y-102916701D01*
X171069000Y-103150090D01*
X171069000Y-103402709D01*
X171069000Y-103854250D01*
X171227750Y-104013000D01*
X172593000Y-104013000D01*
X172593000Y-103993000D01*
X172847000Y-103993000D01*
X172847000Y-104013000D01*
X174212250Y-104013000D01*
X174371000Y-103854250D01*
X174371000Y-103402709D01*
X174371000Y-103150090D01*
X174274327Y-102916701D01*
X174095698Y-102738073D01*
X173942219Y-102674500D01*
X173964415Y-102659670D01*
X174289271Y-102173489D01*
X174403345Y-101600000D01*
X174403345Y-112919934D01*
X174371000Y-112941546D01*
X174371000Y-105129910D01*
X174371000Y-104877291D01*
X174371000Y-104425750D01*
X174212250Y-104267000D01*
X172847000Y-104267000D01*
X172847000Y-105479850D01*
X173005750Y-105638600D01*
X173862309Y-105638600D01*
X174095698Y-105541927D01*
X174274327Y-105363299D01*
X174371000Y-105129910D01*
X174371000Y-112941546D01*
X174200330Y-113055585D01*
X173990000Y-113370365D01*
X173779670Y-113055585D01*
X173293489Y-112730729D01*
X172720000Y-112616655D01*
X172593000Y-112641916D01*
X172593000Y-105479850D01*
X172593000Y-104267000D01*
X171227750Y-104267000D01*
X171069000Y-104425750D01*
X171069000Y-104877291D01*
X171069000Y-105129910D01*
X171165673Y-105363299D01*
X171344302Y-105541927D01*
X171577691Y-105638600D01*
X172434250Y-105638600D01*
X172593000Y-105479850D01*
X172593000Y-112641916D01*
X172146511Y-112730729D01*
X171660330Y-113055585D01*
X171450000Y-113370365D01*
X171239670Y-113055585D01*
X170753489Y-112730729D01*
X170180000Y-112616655D01*
X169606511Y-112730729D01*
X169305136Y-112932101D01*
X169305136Y-110104539D01*
X169185879Y-109815914D01*
X168965247Y-109594897D01*
X168676831Y-109475137D01*
X168364539Y-109474864D01*
X168075914Y-109594121D01*
X167854897Y-109814753D01*
X167834348Y-109864240D01*
X167695247Y-109724897D01*
X167406831Y-109605137D01*
X167094539Y-109604864D01*
X166805914Y-109724121D01*
X166584897Y-109944753D01*
X166560417Y-110003706D01*
X166515879Y-109895914D01*
X166295247Y-109674897D01*
X166006831Y-109555137D01*
X165694539Y-109554864D01*
X165405914Y-109674121D01*
X165234939Y-109844798D01*
X165115247Y-109724897D01*
X164885136Y-109629347D01*
X164885136Y-104074539D01*
X164765879Y-103785914D01*
X164545247Y-103564897D01*
X164385162Y-103498424D01*
X164385162Y-80064833D01*
X164243117Y-79721057D01*
X163980327Y-79457808D01*
X163636799Y-79315162D01*
X163264833Y-79314838D01*
X162921057Y-79456883D01*
X162657808Y-79719673D01*
X162515162Y-80063201D01*
X162514838Y-80435167D01*
X162656883Y-80778943D01*
X162919673Y-81042192D01*
X163263201Y-81184838D01*
X163635167Y-81185162D01*
X163978943Y-81043117D01*
X164242192Y-80780327D01*
X164384838Y-80436799D01*
X164385162Y-80064833D01*
X164385162Y-103498424D01*
X164256831Y-103445137D01*
X164135136Y-103445030D01*
X164135136Y-99434539D01*
X164015879Y-99145914D01*
X163795247Y-98924897D01*
X163506831Y-98805137D01*
X163194539Y-98804864D01*
X162905914Y-98924121D01*
X162684897Y-99144753D01*
X162579227Y-99399233D01*
X162375247Y-99194897D01*
X162086831Y-99075137D01*
X161785136Y-99074873D01*
X161785136Y-91044539D01*
X161665879Y-90755914D01*
X161505184Y-90594938D01*
X161505184Y-89261913D01*
X161505184Y-88538087D01*
X161311954Y-87985680D01*
X160922036Y-87549268D01*
X160394791Y-87295291D01*
X160379026Y-87292642D01*
X160147000Y-87413783D01*
X160147000Y-88773000D01*
X161360924Y-88773000D01*
X161505184Y-88538087D01*
X161505184Y-89261913D01*
X161360924Y-89027000D01*
X160147000Y-89027000D01*
X160147000Y-90386217D01*
X160379026Y-90507358D01*
X160394791Y-90504709D01*
X160922036Y-90250732D01*
X161311954Y-89814320D01*
X161505184Y-89261913D01*
X161505184Y-90594938D01*
X161445247Y-90534897D01*
X161156831Y-90415137D01*
X160844539Y-90414864D01*
X160555914Y-90534121D01*
X160334897Y-90754753D01*
X160215137Y-91043169D01*
X160214864Y-91355461D01*
X160334121Y-91644086D01*
X160554753Y-91865103D01*
X160843169Y-91984863D01*
X161155461Y-91985136D01*
X161444086Y-91865879D01*
X161665103Y-91645247D01*
X161784863Y-91356831D01*
X161785136Y-91044539D01*
X161785136Y-99074873D01*
X161774539Y-99074864D01*
X161575136Y-99157255D01*
X161575136Y-97524539D01*
X161455879Y-97235914D01*
X161275136Y-97054855D01*
X161275136Y-94844539D01*
X161155879Y-94555914D01*
X160935247Y-94334897D01*
X160646831Y-94215137D01*
X160334539Y-94214864D01*
X160045914Y-94334121D01*
X159925136Y-94454688D01*
X159925136Y-92354539D01*
X159893000Y-92276763D01*
X159893000Y-90386217D01*
X159893000Y-89027000D01*
X159893000Y-88773000D01*
X159893000Y-87413783D01*
X159660974Y-87292642D01*
X159645209Y-87295291D01*
X159117964Y-87549268D01*
X158750000Y-87961108D01*
X158382036Y-87549268D01*
X157854791Y-87295291D01*
X157839026Y-87292642D01*
X157607000Y-87413783D01*
X157607000Y-88773000D01*
X158679076Y-88773000D01*
X158820924Y-88773000D01*
X159893000Y-88773000D01*
X159893000Y-89027000D01*
X158820924Y-89027000D01*
X158679076Y-89027000D01*
X157607000Y-89027000D01*
X157607000Y-90386217D01*
X157839026Y-90507358D01*
X157854791Y-90504709D01*
X158382036Y-90250732D01*
X158750000Y-89838891D01*
X159117964Y-90250732D01*
X159645209Y-90504709D01*
X159660974Y-90507358D01*
X159893000Y-90386217D01*
X159893000Y-92276763D01*
X159805879Y-92065914D01*
X159585247Y-91844897D01*
X159296831Y-91725137D01*
X158984539Y-91724864D01*
X158695914Y-91844121D01*
X158474897Y-92064753D01*
X158355137Y-92353169D01*
X158354864Y-92665461D01*
X158474121Y-92954086D01*
X158694753Y-93175103D01*
X158983169Y-93294863D01*
X159295461Y-93295136D01*
X159584086Y-93175879D01*
X159805103Y-92955247D01*
X159924863Y-92666831D01*
X159925136Y-92354539D01*
X159925136Y-94454688D01*
X159824897Y-94554753D01*
X159705137Y-94843169D01*
X159704864Y-95155461D01*
X159824121Y-95444086D01*
X160044753Y-95665103D01*
X160333169Y-95784863D01*
X160645461Y-95785136D01*
X160934086Y-95665879D01*
X161155103Y-95445247D01*
X161274863Y-95156831D01*
X161275136Y-94844539D01*
X161275136Y-97054855D01*
X161235247Y-97014897D01*
X161190212Y-96996197D01*
X161214863Y-96936831D01*
X161215136Y-96624539D01*
X161095879Y-96335914D01*
X160875247Y-96114897D01*
X160586831Y-95995137D01*
X160274539Y-95994864D01*
X159985914Y-96114121D01*
X159764897Y-96334753D01*
X159645137Y-96623169D01*
X159644864Y-96935461D01*
X159764121Y-97224086D01*
X159984753Y-97445103D01*
X160029787Y-97463802D01*
X160005137Y-97523169D01*
X160004864Y-97835461D01*
X160124121Y-98124086D01*
X160344753Y-98345103D01*
X160633169Y-98464863D01*
X160945461Y-98465136D01*
X161234086Y-98345879D01*
X161455103Y-98125247D01*
X161574863Y-97836831D01*
X161575136Y-97524539D01*
X161575136Y-99157255D01*
X161485914Y-99194121D01*
X161264897Y-99414753D01*
X161145137Y-99703169D01*
X161144864Y-100015461D01*
X161247031Y-100262726D01*
X161184897Y-100324753D01*
X161065137Y-100613169D01*
X161064864Y-100924864D01*
X161064539Y-100924864D01*
X160775914Y-101044121D01*
X160554897Y-101264753D01*
X160435137Y-101553169D01*
X160434864Y-101865461D01*
X160554121Y-102154086D01*
X160774753Y-102375103D01*
X161063169Y-102494863D01*
X161375461Y-102495136D01*
X161664086Y-102375879D01*
X161885103Y-102155247D01*
X162004863Y-101866831D01*
X162005135Y-101555135D01*
X162005461Y-101555136D01*
X162294086Y-101435879D01*
X162515103Y-101215247D01*
X162634863Y-100926831D01*
X162635136Y-100614539D01*
X162532968Y-100367273D01*
X162595103Y-100305247D01*
X162700772Y-100050766D01*
X162904753Y-100255103D01*
X163193169Y-100374863D01*
X163505461Y-100375136D01*
X163794086Y-100255879D01*
X164015103Y-100035247D01*
X164134863Y-99746831D01*
X164135136Y-99434539D01*
X164135136Y-103445030D01*
X163944539Y-103444864D01*
X163655914Y-103564121D01*
X163434897Y-103784753D01*
X163315137Y-104073169D01*
X163314864Y-104385461D01*
X163434121Y-104674086D01*
X163654753Y-104895103D01*
X163943169Y-105014863D01*
X164255461Y-105015136D01*
X164544086Y-104895879D01*
X164765103Y-104675247D01*
X164884863Y-104386831D01*
X164885136Y-104074539D01*
X164885136Y-109629347D01*
X164826831Y-109605137D01*
X164514539Y-109604864D01*
X164225914Y-109724121D01*
X164004897Y-109944753D01*
X163885137Y-110233169D01*
X163884864Y-110545461D01*
X163896255Y-110573030D01*
X163756831Y-110515137D01*
X163444539Y-110514864D01*
X163155914Y-110634121D01*
X162934897Y-110854753D01*
X162815137Y-111143169D01*
X162814864Y-111455461D01*
X162934121Y-111744086D01*
X163154753Y-111965103D01*
X163443169Y-112084863D01*
X163755461Y-112085136D01*
X164044086Y-111965879D01*
X164265103Y-111745247D01*
X164384863Y-111456831D01*
X164385136Y-111144539D01*
X164373744Y-111116969D01*
X164513169Y-111174863D01*
X164825461Y-111175136D01*
X165114086Y-111055879D01*
X165285060Y-110885201D01*
X165404753Y-111005103D01*
X165693169Y-111124863D01*
X166005461Y-111125136D01*
X166294086Y-111005879D01*
X166515103Y-110785247D01*
X166539582Y-110726293D01*
X166584121Y-110834086D01*
X166804753Y-111055103D01*
X167093169Y-111174863D01*
X167405461Y-111175136D01*
X167694086Y-111055879D01*
X167915103Y-110835247D01*
X167935651Y-110785759D01*
X168074753Y-110925103D01*
X168363169Y-111044863D01*
X168675461Y-111045136D01*
X168964086Y-110925879D01*
X169185103Y-110705247D01*
X169304863Y-110416831D01*
X169305136Y-110104539D01*
X169305136Y-112932101D01*
X169120330Y-113055585D01*
X168910000Y-113370365D01*
X168699670Y-113055585D01*
X168213489Y-112730729D01*
X167640000Y-112616655D01*
X167066511Y-112730729D01*
X166580330Y-113055585D01*
X166569784Y-113071367D01*
X166564063Y-113041877D01*
X166424273Y-112829073D01*
X166213240Y-112686623D01*
X165963600Y-112636560D01*
X164236400Y-112636560D01*
X163994277Y-112683537D01*
X163829258Y-112791937D01*
X163673240Y-112686623D01*
X163423600Y-112636560D01*
X161696400Y-112636560D01*
X161454277Y-112683537D01*
X161325136Y-112768369D01*
X161325136Y-107444539D01*
X161205879Y-107155914D01*
X160985247Y-106934897D01*
X160696831Y-106815137D01*
X160384539Y-106814864D01*
X160095914Y-106934121D01*
X160045136Y-106984810D01*
X160045136Y-105934539D01*
X159925879Y-105645914D01*
X159705247Y-105424897D01*
X159416831Y-105305137D01*
X159285136Y-105305021D01*
X159285136Y-102834539D01*
X159165879Y-102545914D01*
X158945247Y-102324897D01*
X158656831Y-102205137D01*
X158344539Y-102204864D01*
X158055914Y-102324121D01*
X157834897Y-102544753D01*
X157715137Y-102833169D01*
X157714864Y-103145461D01*
X157834121Y-103434086D01*
X158054753Y-103655103D01*
X158343169Y-103774863D01*
X158655461Y-103775136D01*
X158944086Y-103655879D01*
X159165103Y-103435247D01*
X159284863Y-103146831D01*
X159285136Y-102834539D01*
X159285136Y-105305021D01*
X159104539Y-105304864D01*
X158815914Y-105424121D01*
X158674908Y-105564880D01*
X158675136Y-105304539D01*
X158555879Y-105015914D01*
X158335247Y-104794897D01*
X158046831Y-104675137D01*
X157734539Y-104674864D01*
X157445914Y-104794121D01*
X157353000Y-104886873D01*
X157353000Y-90386217D01*
X157353000Y-89027000D01*
X157353000Y-88773000D01*
X157353000Y-87413783D01*
X157120974Y-87292642D01*
X157105209Y-87295291D01*
X156577964Y-87549268D01*
X156210000Y-87961108D01*
X155842036Y-87549268D01*
X155314791Y-87295291D01*
X155299026Y-87292642D01*
X155067000Y-87413783D01*
X155067000Y-88773000D01*
X156139076Y-88773000D01*
X156280924Y-88773000D01*
X157353000Y-88773000D01*
X157353000Y-89027000D01*
X156280924Y-89027000D01*
X156139076Y-89027000D01*
X155067000Y-89027000D01*
X155067000Y-90386217D01*
X155299026Y-90507358D01*
X155314791Y-90504709D01*
X155842036Y-90250732D01*
X156210000Y-89838891D01*
X156577964Y-90250732D01*
X157105209Y-90504709D01*
X157120974Y-90507358D01*
X157353000Y-90386217D01*
X157353000Y-104886873D01*
X157285136Y-104954618D01*
X157285136Y-104474539D01*
X157285136Y-92004539D01*
X157165879Y-91715914D01*
X156945247Y-91494897D01*
X156656831Y-91375137D01*
X156344539Y-91374864D01*
X156055914Y-91494121D01*
X155834897Y-91714753D01*
X155715137Y-92003169D01*
X155714864Y-92315461D01*
X155834121Y-92604086D01*
X156054753Y-92825103D01*
X156343169Y-92944863D01*
X156655461Y-92945136D01*
X156944086Y-92825879D01*
X157165103Y-92605247D01*
X157284863Y-92316831D01*
X157285136Y-92004539D01*
X157285136Y-104474539D01*
X157165879Y-104185914D01*
X156945247Y-103964897D01*
X156656831Y-103845137D01*
X156344539Y-103844864D01*
X156055914Y-103964121D01*
X155834897Y-104184753D01*
X155715137Y-104473169D01*
X155714864Y-104785461D01*
X155834121Y-105074086D01*
X156054753Y-105295103D01*
X156343169Y-105414863D01*
X156655461Y-105415136D01*
X156944086Y-105295879D01*
X157165103Y-105075247D01*
X157284863Y-104786831D01*
X157285136Y-104474539D01*
X157285136Y-104954618D01*
X157224897Y-105014753D01*
X157105137Y-105303169D01*
X157104864Y-105615461D01*
X157224121Y-105904086D01*
X157444753Y-106125103D01*
X157733169Y-106244863D01*
X158045461Y-106245136D01*
X158334086Y-106125879D01*
X158475091Y-105985119D01*
X158474864Y-106245461D01*
X158594121Y-106534086D01*
X158814753Y-106755103D01*
X159103169Y-106874863D01*
X159415461Y-106875136D01*
X159704086Y-106755879D01*
X159925103Y-106535247D01*
X160044863Y-106246831D01*
X160045136Y-105934539D01*
X160045136Y-106984810D01*
X159874897Y-107154753D01*
X159755137Y-107443169D01*
X159754864Y-107755461D01*
X159874121Y-108044086D01*
X160094753Y-108265103D01*
X160383169Y-108384863D01*
X160695461Y-108385136D01*
X160984086Y-108265879D01*
X161205103Y-108045247D01*
X161324863Y-107756831D01*
X161325136Y-107444539D01*
X161325136Y-112768369D01*
X161241473Y-112823327D01*
X161099023Y-113034360D01*
X161091281Y-113072962D01*
X161079670Y-113055585D01*
X160593489Y-112730729D01*
X160020000Y-112616655D01*
X159446511Y-112730729D01*
X158960330Y-113055585D01*
X158750000Y-113370365D01*
X158539670Y-113055585D01*
X158053489Y-112730729D01*
X157480000Y-112616655D01*
X156906511Y-112730729D01*
X156420330Y-113055585D01*
X156210000Y-113370365D01*
X155999670Y-113055585D01*
X155513489Y-112730729D01*
X154940000Y-112616655D01*
X154885136Y-112627568D01*
X154885136Y-104894539D01*
X154813000Y-104719955D01*
X154813000Y-90386217D01*
X154813000Y-89027000D01*
X154793000Y-89027000D01*
X154793000Y-88773000D01*
X154813000Y-88773000D01*
X154813000Y-87413783D01*
X154580974Y-87292642D01*
X154565209Y-87295291D01*
X154037964Y-87549268D01*
X153666460Y-87965069D01*
X153459670Y-87655585D01*
X152973489Y-87330729D01*
X152400000Y-87216655D01*
X151826511Y-87330729D01*
X151340330Y-87655585D01*
X151130000Y-87970365D01*
X150919670Y-87655585D01*
X150433489Y-87330729D01*
X149860000Y-87216655D01*
X149286511Y-87330729D01*
X148800330Y-87655585D01*
X148789784Y-87671367D01*
X148784063Y-87641877D01*
X148644273Y-87429073D01*
X148433240Y-87286623D01*
X148183600Y-87236560D01*
X146456400Y-87236560D01*
X146214277Y-87283537D01*
X146001473Y-87423327D01*
X145859023Y-87634360D01*
X145808960Y-87884000D01*
X145808960Y-89916000D01*
X145855937Y-90158123D01*
X145995727Y-90370927D01*
X146206760Y-90513377D01*
X146456400Y-90563440D01*
X148183600Y-90563440D01*
X148425723Y-90516463D01*
X148638527Y-90376673D01*
X148780977Y-90165640D01*
X148788718Y-90127037D01*
X148800330Y-90144415D01*
X149286511Y-90469271D01*
X149860000Y-90583345D01*
X150433489Y-90469271D01*
X150919670Y-90144415D01*
X151130000Y-89829634D01*
X151340330Y-90144415D01*
X151826511Y-90469271D01*
X152400000Y-90583345D01*
X152973489Y-90469271D01*
X153459670Y-90144415D01*
X153666460Y-89834930D01*
X154037964Y-90250732D01*
X154565209Y-90504709D01*
X154580974Y-90507358D01*
X154813000Y-90386217D01*
X154813000Y-104719955D01*
X154765879Y-104605914D01*
X154545247Y-104384897D01*
X154256831Y-104265137D01*
X153944539Y-104264864D01*
X153655914Y-104384121D01*
X153434897Y-104604753D01*
X153315137Y-104893169D01*
X153314864Y-105205461D01*
X153434121Y-105494086D01*
X153654753Y-105715103D01*
X153943169Y-105834863D01*
X154255461Y-105835136D01*
X154544086Y-105715879D01*
X154765103Y-105495247D01*
X154884863Y-105206831D01*
X154885136Y-104894539D01*
X154885136Y-112627568D01*
X154875136Y-112629557D01*
X154875136Y-109204539D01*
X154755879Y-108915914D01*
X154535247Y-108694897D01*
X154246831Y-108575137D01*
X153934539Y-108574864D01*
X153645914Y-108694121D01*
X153424897Y-108914753D01*
X153305137Y-109203169D01*
X153304864Y-109515461D01*
X153424121Y-109804086D01*
X153644753Y-110025103D01*
X153933169Y-110144863D01*
X154245461Y-110145136D01*
X154534086Y-110025879D01*
X154755103Y-109805247D01*
X154874863Y-109516831D01*
X154875136Y-109204539D01*
X154875136Y-112629557D01*
X154366511Y-112730729D01*
X153880330Y-113055585D01*
X153670000Y-113370365D01*
X153459670Y-113055585D01*
X152973489Y-112730729D01*
X152535162Y-112643540D01*
X152535162Y-107864833D01*
X152393117Y-107521057D01*
X152130327Y-107257808D01*
X151935162Y-107176768D01*
X151935162Y-91814833D01*
X151793117Y-91471057D01*
X151530327Y-91207808D01*
X151186799Y-91065162D01*
X150814833Y-91064838D01*
X150471057Y-91206883D01*
X150207808Y-91469673D01*
X150065162Y-91813201D01*
X150064838Y-92185167D01*
X150206883Y-92528943D01*
X150469673Y-92792192D01*
X150813201Y-92934838D01*
X151185167Y-92935162D01*
X151528943Y-92793117D01*
X151792192Y-92530327D01*
X151934838Y-92186799D01*
X151935162Y-91814833D01*
X151935162Y-107176768D01*
X151786799Y-107115162D01*
X151414833Y-107114838D01*
X151285136Y-107168427D01*
X151285136Y-103119539D01*
X151165879Y-102830914D01*
X150945247Y-102609897D01*
X150656831Y-102490137D01*
X150344539Y-102489864D01*
X150055914Y-102609121D01*
X149834897Y-102829753D01*
X149715137Y-103118169D01*
X149714864Y-103430461D01*
X149834121Y-103719086D01*
X150054753Y-103940103D01*
X150343169Y-104059863D01*
X150655461Y-104060136D01*
X150944086Y-103940879D01*
X151165103Y-103720247D01*
X151284863Y-103431831D01*
X151285136Y-103119539D01*
X151285136Y-107168427D01*
X151071057Y-107256883D01*
X150807808Y-107519673D01*
X150665162Y-107863201D01*
X150664838Y-108235167D01*
X150806883Y-108578943D01*
X151069673Y-108842192D01*
X151413201Y-108984838D01*
X151785167Y-108985162D01*
X152128943Y-108843117D01*
X152392192Y-108580327D01*
X152534838Y-108236799D01*
X152535162Y-107864833D01*
X152535162Y-112643540D01*
X152400000Y-112616655D01*
X151826511Y-112730729D01*
X151340330Y-113055585D01*
X151130000Y-113370365D01*
X150919670Y-113055585D01*
X150433489Y-112730729D01*
X149860000Y-112616655D01*
X149835162Y-112621595D01*
X149835162Y-104444833D01*
X149693117Y-104101057D01*
X149430327Y-103837808D01*
X149285136Y-103777519D01*
X149285136Y-95819539D01*
X149165879Y-95530914D01*
X148945247Y-95309897D01*
X148656831Y-95190137D01*
X148344539Y-95189864D01*
X148055914Y-95309121D01*
X147834897Y-95529753D01*
X147715137Y-95818169D01*
X147714864Y-96130461D01*
X147771686Y-96267983D01*
X147759897Y-96279753D01*
X147640137Y-96568169D01*
X147639864Y-96880461D01*
X147753475Y-97155423D01*
X147665137Y-97368169D01*
X147664864Y-97680461D01*
X147771184Y-97937776D01*
X147665137Y-98193169D01*
X147664864Y-98505461D01*
X147755651Y-98725184D01*
X147665137Y-98943169D01*
X147664864Y-99255461D01*
X147776361Y-99525307D01*
X147665137Y-99793169D01*
X147664864Y-100105461D01*
X147766006Y-100350246D01*
X147665137Y-100593169D01*
X147664864Y-100905461D01*
X147766006Y-101150246D01*
X147665137Y-101393169D01*
X147664864Y-101705461D01*
X147784121Y-101994086D01*
X148004753Y-102215103D01*
X148293169Y-102334863D01*
X148605461Y-102335136D01*
X148894086Y-102215879D01*
X149115103Y-101995247D01*
X149234863Y-101706831D01*
X149235136Y-101394539D01*
X149133993Y-101149753D01*
X149234863Y-100906831D01*
X149235136Y-100594539D01*
X149133993Y-100349753D01*
X149234863Y-100106831D01*
X149235136Y-99794539D01*
X149123638Y-99524692D01*
X149234863Y-99256831D01*
X149235136Y-98944539D01*
X149144348Y-98724815D01*
X149234863Y-98506831D01*
X149235136Y-98194539D01*
X149128815Y-97937223D01*
X149234863Y-97681831D01*
X149235136Y-97369539D01*
X149121524Y-97094576D01*
X149209863Y-96881831D01*
X149210136Y-96569539D01*
X149153313Y-96432016D01*
X149165103Y-96420247D01*
X149284863Y-96131831D01*
X149285136Y-95819539D01*
X149285136Y-103777519D01*
X149086799Y-103695162D01*
X148714833Y-103694838D01*
X148371057Y-103836883D01*
X148107808Y-104099673D01*
X147965162Y-104443201D01*
X147964838Y-104815167D01*
X148106883Y-105158943D01*
X148369673Y-105422192D01*
X148713201Y-105564838D01*
X149085167Y-105565162D01*
X149428943Y-105423117D01*
X149692192Y-105160327D01*
X149834838Y-104816799D01*
X149835162Y-104444833D01*
X149835162Y-112621595D01*
X149286511Y-112730729D01*
X148800330Y-113055585D01*
X148590000Y-113370365D01*
X148379670Y-113055585D01*
X147893489Y-112730729D01*
X147320000Y-112616655D01*
X146746511Y-112730729D01*
X146260330Y-113055585D01*
X146050000Y-113370365D01*
X145839670Y-113055585D01*
X145635136Y-112918919D01*
X145635136Y-111644539D01*
X145515879Y-111355914D01*
X145295247Y-111134897D01*
X145006831Y-111015137D01*
X144694539Y-111014864D01*
X144405914Y-111134121D01*
X144184897Y-111354753D01*
X144065137Y-111643169D01*
X144064864Y-111955461D01*
X144184121Y-112244086D01*
X144404753Y-112465103D01*
X144693169Y-112584863D01*
X145005461Y-112585136D01*
X145294086Y-112465879D01*
X145515103Y-112245247D01*
X145634863Y-111956831D01*
X145635136Y-111644539D01*
X145635136Y-112918919D01*
X145353489Y-112730729D01*
X144780000Y-112616655D01*
X144206511Y-112730729D01*
X143923345Y-112919934D01*
X143923345Y-109220000D01*
X143809271Y-108646511D01*
X143484415Y-108160330D01*
X143169634Y-107950000D01*
X143484415Y-107739670D01*
X143809271Y-107253489D01*
X143923345Y-106680000D01*
X143809271Y-106106511D01*
X143484415Y-105620330D01*
X143169634Y-105410000D01*
X143484415Y-105199670D01*
X143809271Y-104713489D01*
X143923345Y-104140000D01*
X143809271Y-103566511D01*
X143484415Y-103080330D01*
X143169634Y-102870000D01*
X143484415Y-102659670D01*
X143809271Y-102173489D01*
X143923345Y-101600000D01*
X143809271Y-101026511D01*
X143484415Y-100540330D01*
X143169634Y-100330000D01*
X143484415Y-100119670D01*
X143809271Y-99633489D01*
X143923345Y-99060000D01*
X143809271Y-98486511D01*
X143484415Y-98000330D01*
X143169634Y-97790000D01*
X143484415Y-97579670D01*
X143809271Y-97093489D01*
X143923345Y-96520000D01*
X143903440Y-96419930D01*
X143903440Y-92303600D01*
X143903440Y-90576400D01*
X143856463Y-90334277D01*
X143716673Y-90121473D01*
X143505640Y-89979023D01*
X143256000Y-89928960D01*
X143235474Y-89928960D01*
X143235474Y-74458362D01*
X142819972Y-73452771D01*
X142051276Y-72682732D01*
X141046412Y-72265476D01*
X139958362Y-72264526D01*
X138952771Y-72680028D01*
X138182732Y-73448724D01*
X137765476Y-74453588D01*
X137764526Y-75541638D01*
X138180028Y-76547229D01*
X138948724Y-77317268D01*
X139953588Y-77734524D01*
X141041638Y-77735474D01*
X142047229Y-77319972D01*
X142817268Y-76551276D01*
X143234524Y-75546412D01*
X143235474Y-74458362D01*
X143235474Y-89928960D01*
X141224000Y-89928960D01*
X140981877Y-89975937D01*
X140769073Y-90115727D01*
X140626623Y-90326760D01*
X140576560Y-90576400D01*
X140576560Y-92303600D01*
X140623537Y-92545723D01*
X140763327Y-92758527D01*
X140974360Y-92900977D01*
X141066645Y-92919483D01*
X140889268Y-93077964D01*
X140635291Y-93605209D01*
X140632642Y-93620974D01*
X140753783Y-93853000D01*
X142113000Y-93853000D01*
X142113000Y-93833000D01*
X142367000Y-93833000D01*
X142367000Y-93853000D01*
X143726217Y-93853000D01*
X143847358Y-93620974D01*
X143844709Y-93605209D01*
X143590732Y-93077964D01*
X143414298Y-92920326D01*
X143498123Y-92904063D01*
X143710927Y-92764273D01*
X143853377Y-92553240D01*
X143903440Y-92303600D01*
X143903440Y-96419930D01*
X143809271Y-95946511D01*
X143484415Y-95460330D01*
X143174930Y-95253539D01*
X143590732Y-94882036D01*
X143844709Y-94354791D01*
X143847358Y-94339026D01*
X143726217Y-94107000D01*
X142367000Y-94107000D01*
X142367000Y-94127000D01*
X142113000Y-94127000D01*
X142113000Y-94107000D01*
X140753783Y-94107000D01*
X140632642Y-94339026D01*
X140635291Y-94354791D01*
X140889268Y-94882036D01*
X141305069Y-95253539D01*
X140995585Y-95460330D01*
X140670729Y-95946511D01*
X140556655Y-96520000D01*
X140670729Y-97093489D01*
X140995585Y-97579670D01*
X141310365Y-97790000D01*
X140995585Y-98000330D01*
X140670729Y-98486511D01*
X140556655Y-99060000D01*
X140670729Y-99633489D01*
X140995585Y-100119670D01*
X141310365Y-100330000D01*
X140995585Y-100540330D01*
X140670729Y-101026511D01*
X140556655Y-101600000D01*
X140670729Y-102173489D01*
X140995585Y-102659670D01*
X141310365Y-102870000D01*
X140995585Y-103080330D01*
X140670729Y-103566511D01*
X140556655Y-104140000D01*
X140670729Y-104713489D01*
X140995585Y-105199670D01*
X141310365Y-105410000D01*
X140995585Y-105620330D01*
X140670729Y-106106511D01*
X140556655Y-106680000D01*
X140670729Y-107253489D01*
X140995585Y-107739670D01*
X141310365Y-107950000D01*
X140995585Y-108160330D01*
X140670729Y-108646511D01*
X140556655Y-109220000D01*
X140670729Y-109793489D01*
X140986065Y-110265423D01*
X139958362Y-110264526D01*
X138952771Y-110680028D01*
X138182732Y-111448724D01*
X137765476Y-112453588D01*
X137764526Y-113541638D01*
X138180028Y-114547229D01*
X138948724Y-115317268D01*
X139953588Y-115734524D01*
X141041638Y-115735474D01*
X142047229Y-115319972D01*
X142817268Y-114551276D01*
X143234524Y-113546412D01*
X143235474Y-112458362D01*
X142819972Y-111452771D01*
X142087081Y-110718600D01*
X142424745Y-110718600D01*
X142998234Y-110604526D01*
X143484415Y-110279670D01*
X143809271Y-109793489D01*
X143923345Y-109220000D01*
X143923345Y-112919934D01*
X143720330Y-113055585D01*
X143395474Y-113541766D01*
X143281400Y-114115255D01*
X143281400Y-114484745D01*
X143395474Y-115058234D01*
X143720330Y-115544415D01*
X144206511Y-115869271D01*
X144780000Y-115983345D01*
X145353489Y-115869271D01*
X145839670Y-115544415D01*
X146050000Y-115229634D01*
X146260330Y-115544415D01*
X146746511Y-115869271D01*
X147320000Y-115983345D01*
X147893489Y-115869271D01*
X148379670Y-115544415D01*
X148590000Y-115229634D01*
X148800330Y-115544415D01*
X149286511Y-115869271D01*
X149860000Y-115983345D01*
X150433489Y-115869271D01*
X150919670Y-115544415D01*
X151130000Y-115229634D01*
X151340330Y-115544415D01*
X151826511Y-115869271D01*
X152400000Y-115983345D01*
X152973489Y-115869271D01*
X153459670Y-115544415D01*
X153670000Y-115229634D01*
X153880330Y-115544415D01*
X154366511Y-115869271D01*
X154940000Y-115983345D01*
X155513489Y-115869271D01*
X155999670Y-115544415D01*
X156210000Y-115229634D01*
X156420330Y-115544415D01*
X156906511Y-115869271D01*
X157480000Y-115983345D01*
X158053489Y-115869271D01*
X158539670Y-115544415D01*
X158750000Y-115229634D01*
X158960330Y-115544415D01*
X159446511Y-115869271D01*
X160020000Y-115983345D01*
X160593489Y-115869271D01*
X161079670Y-115544415D01*
X161090215Y-115528632D01*
X161095937Y-115558123D01*
X161235727Y-115770927D01*
X161446760Y-115913377D01*
X161696400Y-115963440D01*
X163423600Y-115963440D01*
X163665723Y-115916463D01*
X163830741Y-115808062D01*
X163986760Y-115913377D01*
X164236400Y-115963440D01*
X165963600Y-115963440D01*
X166205723Y-115916463D01*
X166418527Y-115776673D01*
X166560977Y-115565640D01*
X166568718Y-115527037D01*
X166580330Y-115544415D01*
X167066511Y-115869271D01*
X167640000Y-115983345D01*
X168213489Y-115869271D01*
X168699670Y-115544415D01*
X168910000Y-115229634D01*
X169120330Y-115544415D01*
X169606511Y-115869271D01*
X170180000Y-115983345D01*
X170753489Y-115869271D01*
X171239670Y-115544415D01*
X171450000Y-115229634D01*
X171660330Y-115544415D01*
X172146511Y-115869271D01*
X172720000Y-115983345D01*
X173293489Y-115869271D01*
X173779670Y-115544415D01*
X173990000Y-115229634D01*
X174200330Y-115544415D01*
X174686511Y-115869271D01*
X175260000Y-115983345D01*
X175833489Y-115869271D01*
X176319670Y-115544415D01*
X176530000Y-115229634D01*
X176740330Y-115544415D01*
X177226511Y-115869271D01*
X177800000Y-115983345D01*
X178373489Y-115869271D01*
X178859670Y-115544415D01*
X179184526Y-115058234D01*
X179298600Y-114484745D01*
X179298600Y-116290000D01*
X140569931Y-116290000D01*
X139246294Y-116026712D01*
X138183454Y-115316545D01*
X137473288Y-114253707D01*
X137210000Y-112930068D01*
X137210000Y-75069931D01*
X137473288Y-73746292D01*
X138183454Y-72683454D01*
X139246294Y-71973287D01*
X140569931Y-71710000D01*
X196430069Y-71710000D01*
X198136390Y-72049408D01*
X199523653Y-72976348D01*
X200450591Y-74363609D01*
X200790000Y-76069930D01*
X200790000Y-112747937D01*
X200790000Y-112747937D01*
G37*
X200790000Y-112747937D02*
X200590249Y-114102673D01*
X200235474Y-114695749D01*
X200235474Y-112458362D01*
X200235474Y-88958362D01*
X199819972Y-87952771D01*
X199051276Y-87182732D01*
X198046412Y-86765476D01*
X196958362Y-86764526D01*
X195952771Y-87180028D01*
X195435248Y-87696648D01*
X195435248Y-79215813D01*
X195217243Y-78688200D01*
X194813923Y-78284176D01*
X194286691Y-78065250D01*
X193715813Y-78064752D01*
X193188200Y-78282757D01*
X192784176Y-78686077D01*
X192565250Y-79213309D01*
X192564752Y-79784187D01*
X192782757Y-80311800D01*
X193186077Y-80715824D01*
X193713309Y-80934750D01*
X194284187Y-80935248D01*
X194811800Y-80717243D01*
X195215824Y-80313923D01*
X195434750Y-79786691D01*
X195435248Y-79215813D01*
X195435248Y-87696648D01*
X195182732Y-87948724D01*
X194765476Y-88953588D01*
X194764526Y-90041638D01*
X195180028Y-91047229D01*
X195948724Y-91817268D01*
X196953588Y-92234524D01*
X198041638Y-92235474D01*
X199047229Y-91819972D01*
X199817268Y-91051276D01*
X200234524Y-90046412D01*
X200235474Y-88958362D01*
X200235474Y-112458362D01*
X199819972Y-111452771D01*
X199051276Y-110682732D01*
X198046412Y-110265476D01*
X196958362Y-110264526D01*
X195952771Y-110680028D01*
X195182732Y-111448724D01*
X194765476Y-112453588D01*
X194764526Y-113541638D01*
X195180028Y-114547229D01*
X195948724Y-115317268D01*
X196953588Y-115734524D01*
X198041638Y-115735474D01*
X199047229Y-115319972D01*
X199817268Y-114551276D01*
X200234524Y-113546412D01*
X200235474Y-112458362D01*
X200235474Y-114695749D01*
X199933042Y-115201325D01*
X198905429Y-115964843D01*
X197612114Y-116290000D01*
X194723345Y-116290000D01*
X194723345Y-104140000D01*
X194609271Y-103566511D01*
X194284415Y-103080330D01*
X193969634Y-102870000D01*
X194284415Y-102659670D01*
X194609271Y-102173489D01*
X194723345Y-101600000D01*
X194609271Y-101026511D01*
X194284415Y-100540330D01*
X193969634Y-100330000D01*
X194284415Y-100119670D01*
X194609271Y-99633489D01*
X194723345Y-99060000D01*
X194609271Y-98486511D01*
X194284415Y-98000330D01*
X193969634Y-97790000D01*
X194284415Y-97579670D01*
X194609271Y-97093489D01*
X194723345Y-96520000D01*
X194609271Y-95946511D01*
X194284415Y-95460330D01*
X193974930Y-95253539D01*
X194390732Y-94882036D01*
X194644709Y-94354791D01*
X194647358Y-94339026D01*
X194647358Y-93620974D01*
X194644709Y-93605209D01*
X194390732Y-93077964D01*
X193954320Y-92688046D01*
X193401913Y-92494816D01*
X193167000Y-92639076D01*
X193167000Y-93853000D01*
X194526217Y-93853000D01*
X194647358Y-93620974D01*
X194647358Y-94339026D01*
X194526217Y-94107000D01*
X193167000Y-94107000D01*
X193167000Y-94127000D01*
X192913000Y-94127000D01*
X192913000Y-94107000D01*
X192913000Y-93853000D01*
X192913000Y-92639076D01*
X192678087Y-92494816D01*
X192125680Y-92688046D01*
X191689268Y-93077964D01*
X191435291Y-93605209D01*
X191432642Y-93620974D01*
X191553783Y-93853000D01*
X192913000Y-93853000D01*
X192913000Y-94107000D01*
X191553783Y-94107000D01*
X191432642Y-94339026D01*
X191435291Y-94354791D01*
X191689268Y-94882036D01*
X192105069Y-95253539D01*
X191795585Y-95460330D01*
X191470729Y-95946511D01*
X191356655Y-96520000D01*
X191470729Y-97093489D01*
X191795585Y-97579670D01*
X192110365Y-97790000D01*
X191795585Y-98000330D01*
X191470729Y-98486511D01*
X191356655Y-99060000D01*
X191470729Y-99633489D01*
X191795585Y-100119670D01*
X192110365Y-100330000D01*
X191795585Y-100540330D01*
X191470729Y-101026511D01*
X191356655Y-101600000D01*
X191470729Y-102173489D01*
X191795585Y-102659670D01*
X192110365Y-102870000D01*
X191795585Y-103080330D01*
X191470729Y-103566511D01*
X191356655Y-104140000D01*
X191470729Y-104713489D01*
X191795585Y-105199670D01*
X191811367Y-105210215D01*
X191781877Y-105215937D01*
X191569073Y-105355727D01*
X191426623Y-105566760D01*
X191376560Y-105816400D01*
X191376560Y-107543600D01*
X191423537Y-107785723D01*
X191563327Y-107998527D01*
X191774360Y-108140977D01*
X192024000Y-108191040D01*
X194056000Y-108191040D01*
X194298123Y-108144063D01*
X194510927Y-108004273D01*
X194653377Y-107793240D01*
X194703440Y-107543600D01*
X194703440Y-105816400D01*
X194656463Y-105574277D01*
X194516673Y-105361473D01*
X194305640Y-105219023D01*
X194267037Y-105211281D01*
X194284415Y-105199670D01*
X194609271Y-104713489D01*
X194723345Y-104140000D01*
X194723345Y-116290000D01*
X191035265Y-116290000D01*
X191035265Y-79196009D01*
X190802068Y-78631629D01*
X190370643Y-78199449D01*
X189806670Y-77965267D01*
X189196009Y-77964735D01*
X188631629Y-78197932D01*
X188199449Y-78629357D01*
X187965267Y-79193330D01*
X187964735Y-79803991D01*
X188197932Y-80368371D01*
X188629357Y-80800551D01*
X189193330Y-81034733D01*
X189803991Y-81035265D01*
X190368371Y-80802068D01*
X190800551Y-80370643D01*
X191034733Y-79806670D01*
X191035265Y-79196009D01*
X191035265Y-116290000D01*
X189643345Y-116290000D01*
X189643345Y-111760000D01*
X189529271Y-111186511D01*
X189204415Y-110700330D01*
X188889634Y-110490000D01*
X189204415Y-110279670D01*
X189529271Y-109793489D01*
X189643345Y-109220000D01*
X189529271Y-108646511D01*
X189204415Y-108160330D01*
X188889634Y-107950000D01*
X189204415Y-107739670D01*
X189529271Y-107253489D01*
X189643345Y-106680000D01*
X189529271Y-106106511D01*
X189204415Y-105620330D01*
X188889634Y-105410000D01*
X189204415Y-105199670D01*
X189529271Y-104713489D01*
X189643345Y-104140000D01*
X189529271Y-103566511D01*
X189204415Y-103080330D01*
X188889634Y-102870000D01*
X189204415Y-102659670D01*
X189529271Y-102173489D01*
X189643345Y-101600000D01*
X189529271Y-101026511D01*
X189204415Y-100540330D01*
X188889634Y-100330000D01*
X189204415Y-100119670D01*
X189529271Y-99633489D01*
X189643345Y-99060000D01*
X189529271Y-98486511D01*
X189204415Y-98000330D01*
X188889634Y-97790000D01*
X189204415Y-97579670D01*
X189529271Y-97093489D01*
X189643345Y-96520000D01*
X189643345Y-91440000D01*
X189529271Y-90866511D01*
X189204415Y-90380330D01*
X189188632Y-90369784D01*
X189218123Y-90364063D01*
X189430927Y-90224273D01*
X189573377Y-90013240D01*
X189623440Y-89763600D01*
X189623440Y-88036400D01*
X189576463Y-87794277D01*
X189436673Y-87581473D01*
X189225640Y-87439023D01*
X188976000Y-87388960D01*
X186944000Y-87388960D01*
X186701877Y-87435937D01*
X186489073Y-87575727D01*
X186346623Y-87786760D01*
X186296560Y-88036400D01*
X186296560Y-89763600D01*
X186343537Y-90005723D01*
X186483327Y-90218527D01*
X186694360Y-90360977D01*
X186732962Y-90368718D01*
X186715585Y-90380330D01*
X186390729Y-90866511D01*
X186276655Y-91440000D01*
X186390729Y-92013489D01*
X186715585Y-92499670D01*
X187025069Y-92706460D01*
X186609268Y-93077964D01*
X186355291Y-93605209D01*
X186352642Y-93620974D01*
X186473783Y-93853000D01*
X187833000Y-93853000D01*
X187833000Y-93833000D01*
X188087000Y-93833000D01*
X188087000Y-93853000D01*
X189446217Y-93853000D01*
X189567358Y-93620974D01*
X189564709Y-93605209D01*
X189310732Y-93077964D01*
X188894930Y-92706460D01*
X189204415Y-92499670D01*
X189529271Y-92013489D01*
X189643345Y-91440000D01*
X189643345Y-96520000D01*
X189529271Y-95946511D01*
X189204415Y-95460330D01*
X188894930Y-95253539D01*
X189310732Y-94882036D01*
X189564709Y-94354791D01*
X189567358Y-94339026D01*
X189446217Y-94107000D01*
X188087000Y-94107000D01*
X188087000Y-94127000D01*
X187833000Y-94127000D01*
X187833000Y-94107000D01*
X186473783Y-94107000D01*
X186352642Y-94339026D01*
X186355291Y-94354791D01*
X186609268Y-94882036D01*
X187025069Y-95253539D01*
X186715585Y-95460330D01*
X186390729Y-95946511D01*
X186276655Y-96520000D01*
X186390729Y-97093489D01*
X186715585Y-97579670D01*
X187030365Y-97790000D01*
X186715585Y-98000330D01*
X186390729Y-98486511D01*
X186276655Y-99060000D01*
X186390729Y-99633489D01*
X186715585Y-100119670D01*
X187030365Y-100330000D01*
X186715585Y-100540330D01*
X186390729Y-101026511D01*
X186276655Y-101600000D01*
X186390729Y-102173489D01*
X186715585Y-102659670D01*
X187030365Y-102870000D01*
X186715585Y-103080330D01*
X186390729Y-103566511D01*
X186276655Y-104140000D01*
X186390729Y-104713489D01*
X186715585Y-105199670D01*
X187030365Y-105410000D01*
X186715585Y-105620330D01*
X186390729Y-106106511D01*
X186276655Y-106680000D01*
X186390729Y-107253489D01*
X186715585Y-107739670D01*
X187030365Y-107950000D01*
X186715585Y-108160330D01*
X186390729Y-108646511D01*
X186276655Y-109220000D01*
X186390729Y-109793489D01*
X186715585Y-110279670D01*
X187030365Y-110490000D01*
X186715585Y-110700330D01*
X186390729Y-111186511D01*
X186276655Y-111760000D01*
X186390729Y-112333489D01*
X186715585Y-112819670D01*
X187201766Y-113144526D01*
X187775255Y-113258600D01*
X188144745Y-113258600D01*
X188718234Y-113144526D01*
X189204415Y-112819670D01*
X189529271Y-112333489D01*
X189643345Y-111760000D01*
X189643345Y-116290000D01*
X185535162Y-116290000D01*
X185535162Y-86714833D01*
X185393117Y-86371057D01*
X185130327Y-86107808D01*
X184786799Y-85965162D01*
X184414833Y-85964838D01*
X184071057Y-86106883D01*
X183807808Y-86369673D01*
X183665162Y-86713201D01*
X183664838Y-87085167D01*
X183806883Y-87428943D01*
X184069673Y-87692192D01*
X184413201Y-87834838D01*
X184785167Y-87835162D01*
X185128943Y-87693117D01*
X185392192Y-87430327D01*
X185534838Y-87086799D01*
X185535162Y-86714833D01*
X185535162Y-116290000D01*
X184645040Y-116290000D01*
X184645040Y-92557600D01*
X184645040Y-90322400D01*
X184598063Y-90080277D01*
X184458273Y-89867473D01*
X184247240Y-89725023D01*
X183997600Y-89674960D01*
X181762400Y-89674960D01*
X181520277Y-89721937D01*
X181307473Y-89861727D01*
X181165023Y-90072760D01*
X181114960Y-90322400D01*
X181114960Y-92557600D01*
X181161937Y-92799723D01*
X181301727Y-93012527D01*
X181512760Y-93154977D01*
X181762400Y-93205040D01*
X183997600Y-93205040D01*
X184239723Y-93158063D01*
X184452527Y-93018273D01*
X184594977Y-92807240D01*
X184645040Y-92557600D01*
X184645040Y-116290000D01*
X184563345Y-116290000D01*
X184563345Y-111760000D01*
X184449271Y-111186511D01*
X184124415Y-110700330D01*
X183809634Y-110490000D01*
X184124415Y-110279670D01*
X184449271Y-109793489D01*
X184563345Y-109220000D01*
X184449271Y-108646511D01*
X184124415Y-108160330D01*
X183809634Y-107950000D01*
X184124415Y-107739670D01*
X184449271Y-107253489D01*
X184563345Y-106680000D01*
X184449271Y-106106511D01*
X184124415Y-105620330D01*
X183809634Y-105410000D01*
X184124415Y-105199670D01*
X184449271Y-104713489D01*
X184563345Y-104140000D01*
X184449271Y-103566511D01*
X184124415Y-103080330D01*
X184108632Y-103069784D01*
X184138123Y-103064063D01*
X184350927Y-102924273D01*
X184493377Y-102713240D01*
X184543440Y-102463600D01*
X184543440Y-100736400D01*
X184496463Y-100494277D01*
X184356673Y-100281473D01*
X184145640Y-100139023D01*
X183896000Y-100088960D01*
X181864000Y-100088960D01*
X181621877Y-100135937D01*
X181409073Y-100275727D01*
X181266623Y-100486760D01*
X181216560Y-100736400D01*
X181216560Y-102463600D01*
X181263537Y-102705723D01*
X181403327Y-102918527D01*
X181614360Y-103060977D01*
X181652962Y-103068718D01*
X181635585Y-103080330D01*
X181310729Y-103566511D01*
X181196655Y-104140000D01*
X181310729Y-104713489D01*
X181635585Y-105199670D01*
X181950365Y-105410000D01*
X181635585Y-105620330D01*
X181310729Y-106106511D01*
X181196655Y-106680000D01*
X181310729Y-107253489D01*
X181635585Y-107739670D01*
X181950365Y-107950000D01*
X181635585Y-108160330D01*
X181310729Y-108646511D01*
X181196655Y-109220000D01*
X181310729Y-109793489D01*
X181635585Y-110279670D01*
X181950365Y-110490000D01*
X181635585Y-110700330D01*
X181310729Y-111186511D01*
X181196655Y-111760000D01*
X181310729Y-112333489D01*
X181635585Y-112819670D01*
X182121766Y-113144526D01*
X182695255Y-113258600D01*
X183064745Y-113258600D01*
X183638234Y-113144526D01*
X184124415Y-112819670D01*
X184449271Y-112333489D01*
X184563345Y-111760000D01*
X184563345Y-116290000D01*
X179885136Y-116290000D01*
X179885136Y-110119539D01*
X179765879Y-109830914D01*
X179565040Y-109629724D01*
X179565040Y-95097600D01*
X179565040Y-92862400D01*
X179518063Y-92620277D01*
X179378273Y-92407473D01*
X179167240Y-92265023D01*
X178917600Y-92214960D01*
X176682400Y-92214960D01*
X176440277Y-92261937D01*
X176227473Y-92401727D01*
X176085023Y-92612760D01*
X176034960Y-92862400D01*
X176034960Y-95097600D01*
X176081937Y-95339723D01*
X176221727Y-95552527D01*
X176432760Y-95694977D01*
X176682400Y-95745040D01*
X178917600Y-95745040D01*
X179159723Y-95698063D01*
X179372527Y-95558273D01*
X179514977Y-95347240D01*
X179565040Y-95097600D01*
X179565040Y-109629724D01*
X179545247Y-109609897D01*
X179256831Y-109490137D01*
X178944539Y-109489864D01*
X178655914Y-109609121D01*
X178434897Y-109829753D01*
X178315137Y-110118169D01*
X178314864Y-110430461D01*
X178434121Y-110719086D01*
X178654753Y-110940103D01*
X178943169Y-111059863D01*
X179255461Y-111060136D01*
X179544086Y-110940879D01*
X179765103Y-110720247D01*
X179884863Y-110431831D01*
X179885136Y-110119539D01*
X179885136Y-116290000D01*
X179298600Y-116290000D01*
X179298600Y-114484745D01*
X179298600Y-114115255D01*
X179184526Y-113541766D01*
X178859670Y-113055585D01*
X178373489Y-112730729D01*
X177800000Y-112616655D01*
X177625162Y-112651432D01*
X177625162Y-100004833D01*
X177625162Y-98024833D01*
X177483117Y-97681057D01*
X177220327Y-97417808D01*
X176876799Y-97275162D01*
X176504833Y-97274838D01*
X176161057Y-97416883D01*
X175897808Y-97679673D01*
X175755162Y-98023201D01*
X175754838Y-98395167D01*
X175896883Y-98738943D01*
X176159673Y-99002192D01*
X176503201Y-99144838D01*
X176875167Y-99145162D01*
X177218943Y-99003117D01*
X177482192Y-98740327D01*
X177624838Y-98396799D01*
X177625162Y-98024833D01*
X177625162Y-100004833D01*
X177483117Y-99661057D01*
X177220327Y-99397808D01*
X176876799Y-99255162D01*
X176504833Y-99254838D01*
X176161057Y-99396883D01*
X175897808Y-99659673D01*
X175755162Y-100003201D01*
X175754838Y-100375167D01*
X175896883Y-100718943D01*
X176159673Y-100982192D01*
X176503201Y-101124838D01*
X176875167Y-101125162D01*
X177218943Y-100983117D01*
X177482192Y-100720327D01*
X177624838Y-100376799D01*
X177625162Y-100004833D01*
X177625162Y-112651432D01*
X177585136Y-112659394D01*
X177585136Y-109174539D01*
X177465879Y-108885914D01*
X177245247Y-108664897D01*
X176956831Y-108545137D01*
X176644539Y-108544864D01*
X176355914Y-108664121D01*
X176134897Y-108884753D01*
X176046997Y-109096439D01*
X175955879Y-108875914D01*
X175735247Y-108654897D01*
X175446831Y-108535137D01*
X175134539Y-108534864D01*
X174845914Y-108654121D01*
X174624897Y-108874753D01*
X174505137Y-109163169D01*
X174504864Y-109475461D01*
X174624121Y-109764086D01*
X174844753Y-109985103D01*
X175133169Y-110104863D01*
X175445461Y-110105136D01*
X175734086Y-109985879D01*
X175955103Y-109765247D01*
X176043002Y-109553560D01*
X176134121Y-109774086D01*
X176354753Y-109995103D01*
X176643169Y-110114863D01*
X176955461Y-110115136D01*
X177244086Y-109995879D01*
X177465103Y-109775247D01*
X177584863Y-109486831D01*
X177585136Y-109174539D01*
X177585136Y-112659394D01*
X177226511Y-112730729D01*
X176740330Y-113055585D01*
X176530000Y-113370365D01*
X176319670Y-113055585D01*
X175833489Y-112730729D01*
X175260000Y-112616655D01*
X174686511Y-112730729D01*
X174403345Y-112919934D01*
X174403345Y-101600000D01*
X174289271Y-101026511D01*
X173964415Y-100540330D01*
X173649634Y-100330000D01*
X173964415Y-100119670D01*
X174289271Y-99633489D01*
X174403345Y-99060000D01*
X174289271Y-98486511D01*
X173964415Y-98000330D01*
X173649634Y-97790000D01*
X173964415Y-97579670D01*
X174289271Y-97093489D01*
X174403345Y-96520000D01*
X174289271Y-95946511D01*
X173964415Y-95460330D01*
X173649634Y-95250000D01*
X173964415Y-95039670D01*
X174289271Y-94553489D01*
X174403345Y-93980000D01*
X174289271Y-93406511D01*
X173964415Y-92920330D01*
X173478234Y-92595474D01*
X172904745Y-92481400D01*
X172535255Y-92481400D01*
X171961766Y-92595474D01*
X171475585Y-92920330D01*
X171150729Y-93406511D01*
X171036655Y-93980000D01*
X171150729Y-94553489D01*
X171475585Y-95039670D01*
X171790365Y-95250000D01*
X171475585Y-95460330D01*
X171150729Y-95946511D01*
X171036655Y-96520000D01*
X171150729Y-97093489D01*
X171475585Y-97579670D01*
X171790365Y-97790000D01*
X171475585Y-98000330D01*
X171150729Y-98486511D01*
X171036655Y-99060000D01*
X171150729Y-99633489D01*
X171475585Y-100119670D01*
X171790365Y-100330000D01*
X171475585Y-100540330D01*
X171150729Y-101026511D01*
X171036655Y-101600000D01*
X171150729Y-102173489D01*
X171475585Y-102659670D01*
X171497780Y-102674500D01*
X171344302Y-102738073D01*
X171165673Y-102916701D01*
X171069000Y-103150090D01*
X171069000Y-103402709D01*
X171069000Y-103854250D01*
X171227750Y-104013000D01*
X172593000Y-104013000D01*
X172593000Y-103993000D01*
X172847000Y-103993000D01*
X172847000Y-104013000D01*
X174212250Y-104013000D01*
X174371000Y-103854250D01*
X174371000Y-103402709D01*
X174371000Y-103150090D01*
X174274327Y-102916701D01*
X174095698Y-102738073D01*
X173942219Y-102674500D01*
X173964415Y-102659670D01*
X174289271Y-102173489D01*
X174403345Y-101600000D01*
X174403345Y-112919934D01*
X174371000Y-112941546D01*
X174371000Y-105129910D01*
X174371000Y-104877291D01*
X174371000Y-104425750D01*
X174212250Y-104267000D01*
X172847000Y-104267000D01*
X172847000Y-105479850D01*
X173005750Y-105638600D01*
X173862309Y-105638600D01*
X174095698Y-105541927D01*
X174274327Y-105363299D01*
X174371000Y-105129910D01*
X174371000Y-112941546D01*
X174200330Y-113055585D01*
X173990000Y-113370365D01*
X173779670Y-113055585D01*
X173293489Y-112730729D01*
X172720000Y-112616655D01*
X172593000Y-112641916D01*
X172593000Y-105479850D01*
X172593000Y-104267000D01*
X171227750Y-104267000D01*
X171069000Y-104425750D01*
X171069000Y-104877291D01*
X171069000Y-105129910D01*
X171165673Y-105363299D01*
X171344302Y-105541927D01*
X171577691Y-105638600D01*
X172434250Y-105638600D01*
X172593000Y-105479850D01*
X172593000Y-112641916D01*
X172146511Y-112730729D01*
X171660330Y-113055585D01*
X171450000Y-113370365D01*
X171239670Y-113055585D01*
X170753489Y-112730729D01*
X170180000Y-112616655D01*
X169606511Y-112730729D01*
X169305136Y-112932101D01*
X169305136Y-110104539D01*
X169185879Y-109815914D01*
X168965247Y-109594897D01*
X168676831Y-109475137D01*
X168364539Y-109474864D01*
X168075914Y-109594121D01*
X167854897Y-109814753D01*
X167834348Y-109864240D01*
X167695247Y-109724897D01*
X167406831Y-109605137D01*
X167094539Y-109604864D01*
X166805914Y-109724121D01*
X166584897Y-109944753D01*
X166560417Y-110003706D01*
X166515879Y-109895914D01*
X166295247Y-109674897D01*
X166006831Y-109555137D01*
X165694539Y-109554864D01*
X165405914Y-109674121D01*
X165234939Y-109844798D01*
X165115247Y-109724897D01*
X164885136Y-109629347D01*
X164885136Y-104074539D01*
X164765879Y-103785914D01*
X164545247Y-103564897D01*
X164385162Y-103498424D01*
X164385162Y-80064833D01*
X164243117Y-79721057D01*
X163980327Y-79457808D01*
X163636799Y-79315162D01*
X163264833Y-79314838D01*
X162921057Y-79456883D01*
X162657808Y-79719673D01*
X162515162Y-80063201D01*
X162514838Y-80435167D01*
X162656883Y-80778943D01*
X162919673Y-81042192D01*
X163263201Y-81184838D01*
X163635167Y-81185162D01*
X163978943Y-81043117D01*
X164242192Y-80780327D01*
X164384838Y-80436799D01*
X164385162Y-80064833D01*
X164385162Y-103498424D01*
X164256831Y-103445137D01*
X164135136Y-103445030D01*
X164135136Y-99434539D01*
X164015879Y-99145914D01*
X163795247Y-98924897D01*
X163506831Y-98805137D01*
X163194539Y-98804864D01*
X162905914Y-98924121D01*
X162684897Y-99144753D01*
X162579227Y-99399233D01*
X162375247Y-99194897D01*
X162086831Y-99075137D01*
X161785136Y-99074873D01*
X161785136Y-91044539D01*
X161665879Y-90755914D01*
X161505184Y-90594938D01*
X161505184Y-89261913D01*
X161505184Y-88538087D01*
X161311954Y-87985680D01*
X160922036Y-87549268D01*
X160394791Y-87295291D01*
X160379026Y-87292642D01*
X160147000Y-87413783D01*
X160147000Y-88773000D01*
X161360924Y-88773000D01*
X161505184Y-88538087D01*
X161505184Y-89261913D01*
X161360924Y-89027000D01*
X160147000Y-89027000D01*
X160147000Y-90386217D01*
X160379026Y-90507358D01*
X160394791Y-90504709D01*
X160922036Y-90250732D01*
X161311954Y-89814320D01*
X161505184Y-89261913D01*
X161505184Y-90594938D01*
X161445247Y-90534897D01*
X161156831Y-90415137D01*
X160844539Y-90414864D01*
X160555914Y-90534121D01*
X160334897Y-90754753D01*
X160215137Y-91043169D01*
X160214864Y-91355461D01*
X160334121Y-91644086D01*
X160554753Y-91865103D01*
X160843169Y-91984863D01*
X161155461Y-91985136D01*
X161444086Y-91865879D01*
X161665103Y-91645247D01*
X161784863Y-91356831D01*
X161785136Y-91044539D01*
X161785136Y-99074873D01*
X161774539Y-99074864D01*
X161575136Y-99157255D01*
X161575136Y-97524539D01*
X161455879Y-97235914D01*
X161275136Y-97054855D01*
X161275136Y-94844539D01*
X161155879Y-94555914D01*
X160935247Y-94334897D01*
X160646831Y-94215137D01*
X160334539Y-94214864D01*
X160045914Y-94334121D01*
X159925136Y-94454688D01*
X159925136Y-92354539D01*
X159893000Y-92276763D01*
X159893000Y-90386217D01*
X159893000Y-89027000D01*
X159893000Y-88773000D01*
X159893000Y-87413783D01*
X159660974Y-87292642D01*
X159645209Y-87295291D01*
X159117964Y-87549268D01*
X158750000Y-87961108D01*
X158382036Y-87549268D01*
X157854791Y-87295291D01*
X157839026Y-87292642D01*
X157607000Y-87413783D01*
X157607000Y-88773000D01*
X158679076Y-88773000D01*
X158820924Y-88773000D01*
X159893000Y-88773000D01*
X159893000Y-89027000D01*
X158820924Y-89027000D01*
X158679076Y-89027000D01*
X157607000Y-89027000D01*
X157607000Y-90386217D01*
X157839026Y-90507358D01*
X157854791Y-90504709D01*
X158382036Y-90250732D01*
X158750000Y-89838891D01*
X159117964Y-90250732D01*
X159645209Y-90504709D01*
X159660974Y-90507358D01*
X159893000Y-90386217D01*
X159893000Y-92276763D01*
X159805879Y-92065914D01*
X159585247Y-91844897D01*
X159296831Y-91725137D01*
X158984539Y-91724864D01*
X158695914Y-91844121D01*
X158474897Y-92064753D01*
X158355137Y-92353169D01*
X158354864Y-92665461D01*
X158474121Y-92954086D01*
X158694753Y-93175103D01*
X158983169Y-93294863D01*
X159295461Y-93295136D01*
X159584086Y-93175879D01*
X159805103Y-92955247D01*
X159924863Y-92666831D01*
X159925136Y-92354539D01*
X159925136Y-94454688D01*
X159824897Y-94554753D01*
X159705137Y-94843169D01*
X159704864Y-95155461D01*
X159824121Y-95444086D01*
X160044753Y-95665103D01*
X160333169Y-95784863D01*
X160645461Y-95785136D01*
X160934086Y-95665879D01*
X161155103Y-95445247D01*
X161274863Y-95156831D01*
X161275136Y-94844539D01*
X161275136Y-97054855D01*
X161235247Y-97014897D01*
X161190212Y-96996197D01*
X161214863Y-96936831D01*
X161215136Y-96624539D01*
X161095879Y-96335914D01*
X160875247Y-96114897D01*
X160586831Y-95995137D01*
X160274539Y-95994864D01*
X159985914Y-96114121D01*
X159764897Y-96334753D01*
X159645137Y-96623169D01*
X159644864Y-96935461D01*
X159764121Y-97224086D01*
X159984753Y-97445103D01*
X160029787Y-97463802D01*
X160005137Y-97523169D01*
X160004864Y-97835461D01*
X160124121Y-98124086D01*
X160344753Y-98345103D01*
X160633169Y-98464863D01*
X160945461Y-98465136D01*
X161234086Y-98345879D01*
X161455103Y-98125247D01*
X161574863Y-97836831D01*
X161575136Y-97524539D01*
X161575136Y-99157255D01*
X161485914Y-99194121D01*
X161264897Y-99414753D01*
X161145137Y-99703169D01*
X161144864Y-100015461D01*
X161247031Y-100262726D01*
X161184897Y-100324753D01*
X161065137Y-100613169D01*
X161064864Y-100924864D01*
X161064539Y-100924864D01*
X160775914Y-101044121D01*
X160554897Y-101264753D01*
X160435137Y-101553169D01*
X160434864Y-101865461D01*
X160554121Y-102154086D01*
X160774753Y-102375103D01*
X161063169Y-102494863D01*
X161375461Y-102495136D01*
X161664086Y-102375879D01*
X161885103Y-102155247D01*
X162004863Y-101866831D01*
X162005135Y-101555135D01*
X162005461Y-101555136D01*
X162294086Y-101435879D01*
X162515103Y-101215247D01*
X162634863Y-100926831D01*
X162635136Y-100614539D01*
X162532968Y-100367273D01*
X162595103Y-100305247D01*
X162700772Y-100050766D01*
X162904753Y-100255103D01*
X163193169Y-100374863D01*
X163505461Y-100375136D01*
X163794086Y-100255879D01*
X164015103Y-100035247D01*
X164134863Y-99746831D01*
X164135136Y-99434539D01*
X164135136Y-103445030D01*
X163944539Y-103444864D01*
X163655914Y-103564121D01*
X163434897Y-103784753D01*
X163315137Y-104073169D01*
X163314864Y-104385461D01*
X163434121Y-104674086D01*
X163654753Y-104895103D01*
X163943169Y-105014863D01*
X164255461Y-105015136D01*
X164544086Y-104895879D01*
X164765103Y-104675247D01*
X164884863Y-104386831D01*
X164885136Y-104074539D01*
X164885136Y-109629347D01*
X164826831Y-109605137D01*
X164514539Y-109604864D01*
X164225914Y-109724121D01*
X164004897Y-109944753D01*
X163885137Y-110233169D01*
X163884864Y-110545461D01*
X163896255Y-110573030D01*
X163756831Y-110515137D01*
X163444539Y-110514864D01*
X163155914Y-110634121D01*
X162934897Y-110854753D01*
X162815137Y-111143169D01*
X162814864Y-111455461D01*
X162934121Y-111744086D01*
X163154753Y-111965103D01*
X163443169Y-112084863D01*
X163755461Y-112085136D01*
X164044086Y-111965879D01*
X164265103Y-111745247D01*
X164384863Y-111456831D01*
X164385136Y-111144539D01*
X164373744Y-111116969D01*
X164513169Y-111174863D01*
X164825461Y-111175136D01*
X165114086Y-111055879D01*
X165285060Y-110885201D01*
X165404753Y-111005103D01*
X165693169Y-111124863D01*
X166005461Y-111125136D01*
X166294086Y-111005879D01*
X166515103Y-110785247D01*
X166539582Y-110726293D01*
X166584121Y-110834086D01*
X166804753Y-111055103D01*
X167093169Y-111174863D01*
X167405461Y-111175136D01*
X167694086Y-111055879D01*
X167915103Y-110835247D01*
X167935651Y-110785759D01*
X168074753Y-110925103D01*
X168363169Y-111044863D01*
X168675461Y-111045136D01*
X168964086Y-110925879D01*
X169185103Y-110705247D01*
X169304863Y-110416831D01*
X169305136Y-110104539D01*
X169305136Y-112932101D01*
X169120330Y-113055585D01*
X168910000Y-113370365D01*
X168699670Y-113055585D01*
X168213489Y-112730729D01*
X167640000Y-112616655D01*
X167066511Y-112730729D01*
X166580330Y-113055585D01*
X166569784Y-113071367D01*
X166564063Y-113041877D01*
X166424273Y-112829073D01*
X166213240Y-112686623D01*
X165963600Y-112636560D01*
X164236400Y-112636560D01*
X163994277Y-112683537D01*
X163829258Y-112791937D01*
X163673240Y-112686623D01*
X163423600Y-112636560D01*
X161696400Y-112636560D01*
X161454277Y-112683537D01*
X161325136Y-112768369D01*
X161325136Y-107444539D01*
X161205879Y-107155914D01*
X160985247Y-106934897D01*
X160696831Y-106815137D01*
X160384539Y-106814864D01*
X160095914Y-106934121D01*
X160045136Y-106984810D01*
X160045136Y-105934539D01*
X159925879Y-105645914D01*
X159705247Y-105424897D01*
X159416831Y-105305137D01*
X159285136Y-105305021D01*
X159285136Y-102834539D01*
X159165879Y-102545914D01*
X158945247Y-102324897D01*
X158656831Y-102205137D01*
X158344539Y-102204864D01*
X158055914Y-102324121D01*
X157834897Y-102544753D01*
X157715137Y-102833169D01*
X157714864Y-103145461D01*
X157834121Y-103434086D01*
X158054753Y-103655103D01*
X158343169Y-103774863D01*
X158655461Y-103775136D01*
X158944086Y-103655879D01*
X159165103Y-103435247D01*
X159284863Y-103146831D01*
X159285136Y-102834539D01*
X159285136Y-105305021D01*
X159104539Y-105304864D01*
X158815914Y-105424121D01*
X158674908Y-105564880D01*
X158675136Y-105304539D01*
X158555879Y-105015914D01*
X158335247Y-104794897D01*
X158046831Y-104675137D01*
X157734539Y-104674864D01*
X157445914Y-104794121D01*
X157353000Y-104886873D01*
X157353000Y-90386217D01*
X157353000Y-89027000D01*
X157353000Y-88773000D01*
X157353000Y-87413783D01*
X157120974Y-87292642D01*
X157105209Y-87295291D01*
X156577964Y-87549268D01*
X156210000Y-87961108D01*
X155842036Y-87549268D01*
X155314791Y-87295291D01*
X155299026Y-87292642D01*
X155067000Y-87413783D01*
X155067000Y-88773000D01*
X156139076Y-88773000D01*
X156280924Y-88773000D01*
X157353000Y-88773000D01*
X157353000Y-89027000D01*
X156280924Y-89027000D01*
X156139076Y-89027000D01*
X155067000Y-89027000D01*
X155067000Y-90386217D01*
X155299026Y-90507358D01*
X155314791Y-90504709D01*
X155842036Y-90250732D01*
X156210000Y-89838891D01*
X156577964Y-90250732D01*
X157105209Y-90504709D01*
X157120974Y-90507358D01*
X157353000Y-90386217D01*
X157353000Y-104886873D01*
X157285136Y-104954618D01*
X157285136Y-104474539D01*
X157285136Y-92004539D01*
X157165879Y-91715914D01*
X156945247Y-91494897D01*
X156656831Y-91375137D01*
X156344539Y-91374864D01*
X156055914Y-91494121D01*
X155834897Y-91714753D01*
X155715137Y-92003169D01*
X155714864Y-92315461D01*
X155834121Y-92604086D01*
X156054753Y-92825103D01*
X156343169Y-92944863D01*
X156655461Y-92945136D01*
X156944086Y-92825879D01*
X157165103Y-92605247D01*
X157284863Y-92316831D01*
X157285136Y-92004539D01*
X157285136Y-104474539D01*
X157165879Y-104185914D01*
X156945247Y-103964897D01*
X156656831Y-103845137D01*
X156344539Y-103844864D01*
X156055914Y-103964121D01*
X155834897Y-104184753D01*
X155715137Y-104473169D01*
X155714864Y-104785461D01*
X155834121Y-105074086D01*
X156054753Y-105295103D01*
X156343169Y-105414863D01*
X156655461Y-105415136D01*
X156944086Y-105295879D01*
X157165103Y-105075247D01*
X157284863Y-104786831D01*
X157285136Y-104474539D01*
X157285136Y-104954618D01*
X157224897Y-105014753D01*
X157105137Y-105303169D01*
X157104864Y-105615461D01*
X157224121Y-105904086D01*
X157444753Y-106125103D01*
X157733169Y-106244863D01*
X158045461Y-106245136D01*
X158334086Y-106125879D01*
X158475091Y-105985119D01*
X158474864Y-106245461D01*
X158594121Y-106534086D01*
X158814753Y-106755103D01*
X159103169Y-106874863D01*
X159415461Y-106875136D01*
X159704086Y-106755879D01*
X159925103Y-106535247D01*
X160044863Y-106246831D01*
X160045136Y-105934539D01*
X160045136Y-106984810D01*
X159874897Y-107154753D01*
X159755137Y-107443169D01*
X159754864Y-107755461D01*
X159874121Y-108044086D01*
X160094753Y-108265103D01*
X160383169Y-108384863D01*
X160695461Y-108385136D01*
X160984086Y-108265879D01*
X161205103Y-108045247D01*
X161324863Y-107756831D01*
X161325136Y-107444539D01*
X161325136Y-112768369D01*
X161241473Y-112823327D01*
X161099023Y-113034360D01*
X161091281Y-113072962D01*
X161079670Y-113055585D01*
X160593489Y-112730729D01*
X160020000Y-112616655D01*
X159446511Y-112730729D01*
X158960330Y-113055585D01*
X158750000Y-113370365D01*
X158539670Y-113055585D01*
X158053489Y-112730729D01*
X157480000Y-112616655D01*
X156906511Y-112730729D01*
X156420330Y-113055585D01*
X156210000Y-113370365D01*
X155999670Y-113055585D01*
X155513489Y-112730729D01*
X154940000Y-112616655D01*
X154885136Y-112627568D01*
X154885136Y-104894539D01*
X154813000Y-104719955D01*
X154813000Y-90386217D01*
X154813000Y-89027000D01*
X154793000Y-89027000D01*
X154793000Y-88773000D01*
X154813000Y-88773000D01*
X154813000Y-87413783D01*
X154580974Y-87292642D01*
X154565209Y-87295291D01*
X154037964Y-87549268D01*
X153666460Y-87965069D01*
X153459670Y-87655585D01*
X152973489Y-87330729D01*
X152400000Y-87216655D01*
X151826511Y-87330729D01*
X151340330Y-87655585D01*
X151130000Y-87970365D01*
X150919670Y-87655585D01*
X150433489Y-87330729D01*
X149860000Y-87216655D01*
X149286511Y-87330729D01*
X148800330Y-87655585D01*
X148789784Y-87671367D01*
X148784063Y-87641877D01*
X148644273Y-87429073D01*
X148433240Y-87286623D01*
X148183600Y-87236560D01*
X146456400Y-87236560D01*
X146214277Y-87283537D01*
X146001473Y-87423327D01*
X145859023Y-87634360D01*
X145808960Y-87884000D01*
X145808960Y-89916000D01*
X145855937Y-90158123D01*
X145995727Y-90370927D01*
X146206760Y-90513377D01*
X146456400Y-90563440D01*
X148183600Y-90563440D01*
X148425723Y-90516463D01*
X148638527Y-90376673D01*
X148780977Y-90165640D01*
X148788718Y-90127037D01*
X148800330Y-90144415D01*
X149286511Y-90469271D01*
X149860000Y-90583345D01*
X150433489Y-90469271D01*
X150919670Y-90144415D01*
X151130000Y-89829634D01*
X151340330Y-90144415D01*
X151826511Y-90469271D01*
X152400000Y-90583345D01*
X152973489Y-90469271D01*
X153459670Y-90144415D01*
X153666460Y-89834930D01*
X154037964Y-90250732D01*
X154565209Y-90504709D01*
X154580974Y-90507358D01*
X154813000Y-90386217D01*
X154813000Y-104719955D01*
X154765879Y-104605914D01*
X154545247Y-104384897D01*
X154256831Y-104265137D01*
X153944539Y-104264864D01*
X153655914Y-104384121D01*
X153434897Y-104604753D01*
X153315137Y-104893169D01*
X153314864Y-105205461D01*
X153434121Y-105494086D01*
X153654753Y-105715103D01*
X153943169Y-105834863D01*
X154255461Y-105835136D01*
X154544086Y-105715879D01*
X154765103Y-105495247D01*
X154884863Y-105206831D01*
X154885136Y-104894539D01*
X154885136Y-112627568D01*
X154875136Y-112629557D01*
X154875136Y-109204539D01*
X154755879Y-108915914D01*
X154535247Y-108694897D01*
X154246831Y-108575137D01*
X153934539Y-108574864D01*
X153645914Y-108694121D01*
X153424897Y-108914753D01*
X153305137Y-109203169D01*
X153304864Y-109515461D01*
X153424121Y-109804086D01*
X153644753Y-110025103D01*
X153933169Y-110144863D01*
X154245461Y-110145136D01*
X154534086Y-110025879D01*
X154755103Y-109805247D01*
X154874863Y-109516831D01*
X154875136Y-109204539D01*
X154875136Y-112629557D01*
X154366511Y-112730729D01*
X153880330Y-113055585D01*
X153670000Y-113370365D01*
X153459670Y-113055585D01*
X152973489Y-112730729D01*
X152535162Y-112643540D01*
X152535162Y-107864833D01*
X152393117Y-107521057D01*
X152130327Y-107257808D01*
X151935162Y-107176768D01*
X151935162Y-91814833D01*
X151793117Y-91471057D01*
X151530327Y-91207808D01*
X151186799Y-91065162D01*
X150814833Y-91064838D01*
X150471057Y-91206883D01*
X150207808Y-91469673D01*
X150065162Y-91813201D01*
X150064838Y-92185167D01*
X150206883Y-92528943D01*
X150469673Y-92792192D01*
X150813201Y-92934838D01*
X151185167Y-92935162D01*
X151528943Y-92793117D01*
X151792192Y-92530327D01*
X151934838Y-92186799D01*
X151935162Y-91814833D01*
X151935162Y-107176768D01*
X151786799Y-107115162D01*
X151414833Y-107114838D01*
X151285136Y-107168427D01*
X151285136Y-103119539D01*
X151165879Y-102830914D01*
X150945247Y-102609897D01*
X150656831Y-102490137D01*
X150344539Y-102489864D01*
X150055914Y-102609121D01*
X149834897Y-102829753D01*
X149715137Y-103118169D01*
X149714864Y-103430461D01*
X149834121Y-103719086D01*
X150054753Y-103940103D01*
X150343169Y-104059863D01*
X150655461Y-104060136D01*
X150944086Y-103940879D01*
X151165103Y-103720247D01*
X151284863Y-103431831D01*
X151285136Y-103119539D01*
X151285136Y-107168427D01*
X151071057Y-107256883D01*
X150807808Y-107519673D01*
X150665162Y-107863201D01*
X150664838Y-108235167D01*
X150806883Y-108578943D01*
X151069673Y-108842192D01*
X151413201Y-108984838D01*
X151785167Y-108985162D01*
X152128943Y-108843117D01*
X152392192Y-108580327D01*
X152534838Y-108236799D01*
X152535162Y-107864833D01*
X152535162Y-112643540D01*
X152400000Y-112616655D01*
X151826511Y-112730729D01*
X151340330Y-113055585D01*
X151130000Y-113370365D01*
X150919670Y-113055585D01*
X150433489Y-112730729D01*
X149860000Y-112616655D01*
X149835162Y-112621595D01*
X149835162Y-104444833D01*
X149693117Y-104101057D01*
X149430327Y-103837808D01*
X149285136Y-103777519D01*
X149285136Y-95819539D01*
X149165879Y-95530914D01*
X148945247Y-95309897D01*
X148656831Y-95190137D01*
X148344539Y-95189864D01*
X148055914Y-95309121D01*
X147834897Y-95529753D01*
X147715137Y-95818169D01*
X147714864Y-96130461D01*
X147771686Y-96267983D01*
X147759897Y-96279753D01*
X147640137Y-96568169D01*
X147639864Y-96880461D01*
X147753475Y-97155423D01*
X147665137Y-97368169D01*
X147664864Y-97680461D01*
X147771184Y-97937776D01*
X147665137Y-98193169D01*
X147664864Y-98505461D01*
X147755651Y-98725184D01*
X147665137Y-98943169D01*
X147664864Y-99255461D01*
X147776361Y-99525307D01*
X147665137Y-99793169D01*
X147664864Y-100105461D01*
X147766006Y-100350246D01*
X147665137Y-100593169D01*
X147664864Y-100905461D01*
X147766006Y-101150246D01*
X147665137Y-101393169D01*
X147664864Y-101705461D01*
X147784121Y-101994086D01*
X148004753Y-102215103D01*
X148293169Y-102334863D01*
X148605461Y-102335136D01*
X148894086Y-102215879D01*
X149115103Y-101995247D01*
X149234863Y-101706831D01*
X149235136Y-101394539D01*
X149133993Y-101149753D01*
X149234863Y-100906831D01*
X149235136Y-100594539D01*
X149133993Y-100349753D01*
X149234863Y-100106831D01*
X149235136Y-99794539D01*
X149123638Y-99524692D01*
X149234863Y-99256831D01*
X149235136Y-98944539D01*
X149144348Y-98724815D01*
X149234863Y-98506831D01*
X149235136Y-98194539D01*
X149128815Y-97937223D01*
X149234863Y-97681831D01*
X149235136Y-97369539D01*
X149121524Y-97094576D01*
X149209863Y-96881831D01*
X149210136Y-96569539D01*
X149153313Y-96432016D01*
X149165103Y-96420247D01*
X149284863Y-96131831D01*
X149285136Y-95819539D01*
X149285136Y-103777519D01*
X149086799Y-103695162D01*
X148714833Y-103694838D01*
X148371057Y-103836883D01*
X148107808Y-104099673D01*
X147965162Y-104443201D01*
X147964838Y-104815167D01*
X148106883Y-105158943D01*
X148369673Y-105422192D01*
X148713201Y-105564838D01*
X149085167Y-105565162D01*
X149428943Y-105423117D01*
X149692192Y-105160327D01*
X149834838Y-104816799D01*
X149835162Y-104444833D01*
X149835162Y-112621595D01*
X149286511Y-112730729D01*
X148800330Y-113055585D01*
X148590000Y-113370365D01*
X148379670Y-113055585D01*
X147893489Y-112730729D01*
X147320000Y-112616655D01*
X146746511Y-112730729D01*
X146260330Y-113055585D01*
X146050000Y-113370365D01*
X145839670Y-113055585D01*
X145635136Y-112918919D01*
X145635136Y-111644539D01*
X145515879Y-111355914D01*
X145295247Y-111134897D01*
X145006831Y-111015137D01*
X144694539Y-111014864D01*
X144405914Y-111134121D01*
X144184897Y-111354753D01*
X144065137Y-111643169D01*
X144064864Y-111955461D01*
X144184121Y-112244086D01*
X144404753Y-112465103D01*
X144693169Y-112584863D01*
X145005461Y-112585136D01*
X145294086Y-112465879D01*
X145515103Y-112245247D01*
X145634863Y-111956831D01*
X145635136Y-111644539D01*
X145635136Y-112918919D01*
X145353489Y-112730729D01*
X144780000Y-112616655D01*
X144206511Y-112730729D01*
X143923345Y-112919934D01*
X143923345Y-109220000D01*
X143809271Y-108646511D01*
X143484415Y-108160330D01*
X143169634Y-107950000D01*
X143484415Y-107739670D01*
X143809271Y-107253489D01*
X143923345Y-106680000D01*
X143809271Y-106106511D01*
X143484415Y-105620330D01*
X143169634Y-105410000D01*
X143484415Y-105199670D01*
X143809271Y-104713489D01*
X143923345Y-104140000D01*
X143809271Y-103566511D01*
X143484415Y-103080330D01*
X143169634Y-102870000D01*
X143484415Y-102659670D01*
X143809271Y-102173489D01*
X143923345Y-101600000D01*
X143809271Y-101026511D01*
X143484415Y-100540330D01*
X143169634Y-100330000D01*
X143484415Y-100119670D01*
X143809271Y-99633489D01*
X143923345Y-99060000D01*
X143809271Y-98486511D01*
X143484415Y-98000330D01*
X143169634Y-97790000D01*
X143484415Y-97579670D01*
X143809271Y-97093489D01*
X143923345Y-96520000D01*
X143903440Y-96419930D01*
X143903440Y-92303600D01*
X143903440Y-90576400D01*
X143856463Y-90334277D01*
X143716673Y-90121473D01*
X143505640Y-89979023D01*
X143256000Y-89928960D01*
X143235474Y-89928960D01*
X143235474Y-74458362D01*
X142819972Y-73452771D01*
X142051276Y-72682732D01*
X141046412Y-72265476D01*
X139958362Y-72264526D01*
X138952771Y-72680028D01*
X138182732Y-73448724D01*
X137765476Y-74453588D01*
X137764526Y-75541638D01*
X138180028Y-76547229D01*
X138948724Y-77317268D01*
X139953588Y-77734524D01*
X141041638Y-77735474D01*
X142047229Y-77319972D01*
X142817268Y-76551276D01*
X143234524Y-75546412D01*
X143235474Y-74458362D01*
X143235474Y-89928960D01*
X141224000Y-89928960D01*
X140981877Y-89975937D01*
X140769073Y-90115727D01*
X140626623Y-90326760D01*
X140576560Y-90576400D01*
X140576560Y-92303600D01*
X140623537Y-92545723D01*
X140763327Y-92758527D01*
X140974360Y-92900977D01*
X141066645Y-92919483D01*
X140889268Y-93077964D01*
X140635291Y-93605209D01*
X140632642Y-93620974D01*
X140753783Y-93853000D01*
X142113000Y-93853000D01*
X142113000Y-93833000D01*
X142367000Y-93833000D01*
X142367000Y-93853000D01*
X143726217Y-93853000D01*
X143847358Y-93620974D01*
X143844709Y-93605209D01*
X143590732Y-93077964D01*
X143414298Y-92920326D01*
X143498123Y-92904063D01*
X143710927Y-92764273D01*
X143853377Y-92553240D01*
X143903440Y-92303600D01*
X143903440Y-96419930D01*
X143809271Y-95946511D01*
X143484415Y-95460330D01*
X143174930Y-95253539D01*
X143590732Y-94882036D01*
X143844709Y-94354791D01*
X143847358Y-94339026D01*
X143726217Y-94107000D01*
X142367000Y-94107000D01*
X142367000Y-94127000D01*
X142113000Y-94127000D01*
X142113000Y-94107000D01*
X140753783Y-94107000D01*
X140632642Y-94339026D01*
X140635291Y-94354791D01*
X140889268Y-94882036D01*
X141305069Y-95253539D01*
X140995585Y-95460330D01*
X140670729Y-95946511D01*
X140556655Y-96520000D01*
X140670729Y-97093489D01*
X140995585Y-97579670D01*
X141310365Y-97790000D01*
X140995585Y-98000330D01*
X140670729Y-98486511D01*
X140556655Y-99060000D01*
X140670729Y-99633489D01*
X140995585Y-100119670D01*
X141310365Y-100330000D01*
X140995585Y-100540330D01*
X140670729Y-101026511D01*
X140556655Y-101600000D01*
X140670729Y-102173489D01*
X140995585Y-102659670D01*
X141310365Y-102870000D01*
X140995585Y-103080330D01*
X140670729Y-103566511D01*
X140556655Y-104140000D01*
X140670729Y-104713489D01*
X140995585Y-105199670D01*
X141310365Y-105410000D01*
X140995585Y-105620330D01*
X140670729Y-106106511D01*
X140556655Y-106680000D01*
X140670729Y-107253489D01*
X140995585Y-107739670D01*
X141310365Y-107950000D01*
X140995585Y-108160330D01*
X140670729Y-108646511D01*
X140556655Y-109220000D01*
X140670729Y-109793489D01*
X140986065Y-110265423D01*
X139958362Y-110264526D01*
X138952771Y-110680028D01*
X138182732Y-111448724D01*
X137765476Y-112453588D01*
X137764526Y-113541638D01*
X138180028Y-114547229D01*
X138948724Y-115317268D01*
X139953588Y-115734524D01*
X141041638Y-115735474D01*
X142047229Y-115319972D01*
X142817268Y-114551276D01*
X143234524Y-113546412D01*
X143235474Y-112458362D01*
X142819972Y-111452771D01*
X142087081Y-110718600D01*
X142424745Y-110718600D01*
X142998234Y-110604526D01*
X143484415Y-110279670D01*
X143809271Y-109793489D01*
X143923345Y-109220000D01*
X143923345Y-112919934D01*
X143720330Y-113055585D01*
X143395474Y-113541766D01*
X143281400Y-114115255D01*
X143281400Y-114484745D01*
X143395474Y-115058234D01*
X143720330Y-115544415D01*
X144206511Y-115869271D01*
X144780000Y-115983345D01*
X145353489Y-115869271D01*
X145839670Y-115544415D01*
X146050000Y-115229634D01*
X146260330Y-115544415D01*
X146746511Y-115869271D01*
X147320000Y-115983345D01*
X147893489Y-115869271D01*
X148379670Y-115544415D01*
X148590000Y-115229634D01*
X148800330Y-115544415D01*
X149286511Y-115869271D01*
X149860000Y-115983345D01*
X150433489Y-115869271D01*
X150919670Y-115544415D01*
X151130000Y-115229634D01*
X151340330Y-115544415D01*
X151826511Y-115869271D01*
X152400000Y-115983345D01*
X152973489Y-115869271D01*
X153459670Y-115544415D01*
X153670000Y-115229634D01*
X153880330Y-115544415D01*
X154366511Y-115869271D01*
X154940000Y-115983345D01*
X155513489Y-115869271D01*
X155999670Y-115544415D01*
X156210000Y-115229634D01*
X156420330Y-115544415D01*
X156906511Y-115869271D01*
X157480000Y-115983345D01*
X158053489Y-115869271D01*
X158539670Y-115544415D01*
X158750000Y-115229634D01*
X158960330Y-115544415D01*
X159446511Y-115869271D01*
X160020000Y-115983345D01*
X160593489Y-115869271D01*
X161079670Y-115544415D01*
X161090215Y-115528632D01*
X161095937Y-115558123D01*
X161235727Y-115770927D01*
X161446760Y-115913377D01*
X161696400Y-115963440D01*
X163423600Y-115963440D01*
X163665723Y-115916463D01*
X163830741Y-115808062D01*
X163986760Y-115913377D01*
X164236400Y-115963440D01*
X165963600Y-115963440D01*
X166205723Y-115916463D01*
X166418527Y-115776673D01*
X166560977Y-115565640D01*
X166568718Y-115527037D01*
X166580330Y-115544415D01*
X167066511Y-115869271D01*
X167640000Y-115983345D01*
X168213489Y-115869271D01*
X168699670Y-115544415D01*
X168910000Y-115229634D01*
X169120330Y-115544415D01*
X169606511Y-115869271D01*
X170180000Y-115983345D01*
X170753489Y-115869271D01*
X171239670Y-115544415D01*
X171450000Y-115229634D01*
X171660330Y-115544415D01*
X172146511Y-115869271D01*
X172720000Y-115983345D01*
X173293489Y-115869271D01*
X173779670Y-115544415D01*
X173990000Y-115229634D01*
X174200330Y-115544415D01*
X174686511Y-115869271D01*
X175260000Y-115983345D01*
X175833489Y-115869271D01*
X176319670Y-115544415D01*
X176530000Y-115229634D01*
X176740330Y-115544415D01*
X177226511Y-115869271D01*
X177800000Y-115983345D01*
X178373489Y-115869271D01*
X178859670Y-115544415D01*
X179184526Y-115058234D01*
X179298600Y-114484745D01*
X179298600Y-116290000D01*
X140569931Y-116290000D01*
X139246294Y-116026712D01*
X138183454Y-115316545D01*
X137473288Y-114253707D01*
X137210000Y-112930068D01*
X137210000Y-75069931D01*
X137473288Y-73746292D01*
X138183454Y-72683454D01*
X139246294Y-71973287D01*
X140569931Y-71710000D01*
X196430069Y-71710000D01*
X198136390Y-72049408D01*
X199523653Y-72976348D01*
X200450591Y-74363609D01*
X200790000Y-76069930D01*
X200790000Y-112747937D01*
M02*
