%TF.GenerationSoftware,KiCad,Pcbnew,(after 2015-mar-04 BZR unknown)-product*%
%TF.CreationDate,2015-05-27T15:40:32-04:00*%
%TF.JobID,arduinoquad,61726475696E6F717561642E6B696361,rev?*%
%TF.FileFunction,Paste,Top*%
%FSLAX46Y46*%
G04 Gerber Fmt 4.6, Leading zero omitted, Abs format (unit mm)*
G04 Created by KiCad (PCBNEW (after 2015-mar-04 BZR unknown)-product) date 27/05/2015 3:40:32 PM*
%MOMM*%
G01*
G04 APERTURE LIST*
%ADD10C,0.100000*%
%ADD11R,1.400000X1.600000*%
%ADD12R,2.800000X2.400000*%
%ADD13R,3.500120X2.301240*%
%ADD14R,0.750000X1.200000*%
%ADD15R,1.200000X0.750000*%
%ADD16R,1.198880X1.198880*%
%ADD17R,0.650000X1.060000*%
%ADD18R,2.000000X3.500000*%
%ADD19R,1.800860X0.800100*%
%ADD20R,1.300000X1.500000*%
%ADD21R,1.500000X1.300000*%
%ADD22R,0.900000X1.200000*%
%ADD23R,1.060000X0.650000*%
%ADD24R,1.600000X0.300000*%
%ADD25R,0.550000X1.600000*%
%ADD26R,1.600000X0.550000*%
%ADD27R,5.080000X5.080000*%
G04 APERTURE END LIST*
D10*
D11*
X168560000Y-102505000D03*
X164060000Y-102505000D03*
X164060000Y-94095000D03*
X168560000Y-94095000D03*
X166310000Y-94095000D03*
D12*
X187900000Y-73800000D03*
X194000000Y-85200000D03*
X194000000Y-73800000D03*
X187900000Y-85200000D03*
D13*
X173700020Y-76800000D03*
X168299980Y-76800000D03*
D14*
X149750000Y-106550000D03*
X149750000Y-108450000D03*
D15*
X151800000Y-106500000D03*
X153700000Y-106500000D03*
D14*
X179400000Y-81950000D03*
X179400000Y-80050000D03*
D15*
X177850000Y-89600000D03*
X179750000Y-89600000D03*
D14*
X147750000Y-78200000D03*
X147750000Y-76300000D03*
D16*
X157250000Y-77450980D03*
X157250000Y-79549020D03*
D17*
X180650000Y-86900000D03*
X181600000Y-86900000D03*
X182550000Y-86900000D03*
X182550000Y-84700000D03*
X180650000Y-84700000D03*
X181600000Y-84700000D03*
D18*
X174900000Y-84800000D03*
X165900000Y-84800000D03*
D19*
X180301140Y-77550000D03*
X180301140Y-75650000D03*
X177298860Y-76600000D03*
D20*
X161400000Y-82950000D03*
X161400000Y-80250000D03*
D21*
X161450000Y-77200000D03*
X164150000Y-77200000D03*
D20*
X149000000Y-91650000D03*
X149000000Y-94350000D03*
X163490000Y-88490000D03*
X163490000Y-91190000D03*
D21*
X182050000Y-82200000D03*
X184750000Y-82200000D03*
D22*
X156250000Y-82400000D03*
X156250000Y-84600000D03*
X158500000Y-82400000D03*
X158500000Y-84600000D03*
D23*
X152350000Y-77950000D03*
X152350000Y-77000000D03*
X152350000Y-76050000D03*
X150150000Y-76050000D03*
X150150000Y-77950000D03*
D24*
X146400000Y-93000000D03*
X146400000Y-93950000D03*
X146400000Y-92050000D03*
D25*
X157300000Y-94500000D03*
X156500000Y-94500000D03*
X155700000Y-94500000D03*
X154900000Y-94500000D03*
X154100000Y-94500000D03*
X153300000Y-94500000D03*
X152500000Y-94500000D03*
X151700000Y-94500000D03*
D26*
X150250000Y-95950000D03*
X150250000Y-96750000D03*
X150250000Y-97550000D03*
X150250000Y-98350000D03*
X150250000Y-99150000D03*
X150250000Y-99950000D03*
X150250000Y-100750000D03*
X150250000Y-101550000D03*
D25*
X151700000Y-103000000D03*
X152500000Y-103000000D03*
X153300000Y-103000000D03*
X154100000Y-103000000D03*
X154900000Y-103000000D03*
X155700000Y-103000000D03*
X156500000Y-103000000D03*
X157300000Y-103000000D03*
D26*
X158750000Y-101550000D03*
X158750000Y-100750000D03*
X158750000Y-99950000D03*
X158750000Y-99150000D03*
X158750000Y-98350000D03*
X158750000Y-97550000D03*
X158750000Y-96750000D03*
X158750000Y-95950000D03*
D27*
X154500000Y-98750000D03*
M02*
