%TF.GenerationSoftware,KiCad,Pcbnew,(after 2015-mar-04 BZR unknown)-product*%
%TF.CreationDate,2015-05-27T15:40:32-04:00*%
%TF.JobID,arduinoquad,61726475696E6F717561642E6B696361,rev?*%
%TF.FileFunction,Other,Fab,Top*%
%FSLAX46Y46*%
G04 Gerber Fmt 4.6, Leading zero omitted, Abs format (unit mm)*
G04 Created by KiCad (PCBNEW (after 2015-mar-04 BZR unknown)-product) date 27/05/2015 3:40:32 PM*
%MOMM*%
G01*
G04 APERTURE LIST*
%ADD10C,0.100000*%
%ADD11C,0.150000*%
G04 APERTURE END LIST*
D10*
D11*
X170964762Y-102191905D02*
X171012381Y-102049048D01*
X171012381Y-101810952D01*
X170964762Y-101715714D01*
X170917143Y-101668095D01*
X170821905Y-101620476D01*
X170726667Y-101620476D01*
X170631429Y-101668095D01*
X170583810Y-101715714D01*
X170536190Y-101810952D01*
X170488571Y-102001429D01*
X170440952Y-102096667D01*
X170393333Y-102144286D01*
X170298095Y-102191905D01*
X170202857Y-102191905D01*
X170107619Y-102144286D01*
X170060000Y-102096667D01*
X170012381Y-102001429D01*
X170012381Y-101763333D01*
X170060000Y-101620476D01*
X170012381Y-101287143D02*
X171012381Y-101049048D01*
X170298095Y-100858571D01*
X171012381Y-100668095D01*
X170012381Y-100430000D01*
X171107619Y-100287143D02*
X171107619Y-99525238D01*
X171012381Y-99287143D02*
X170012381Y-99287143D01*
X170012381Y-98906190D01*
X170060000Y-98810952D01*
X170107619Y-98763333D01*
X170202857Y-98715714D01*
X170345714Y-98715714D01*
X170440952Y-98763333D01*
X170488571Y-98810952D01*
X170536190Y-98906190D01*
X170536190Y-99287143D01*
X170012381Y-98287143D02*
X170821905Y-98287143D01*
X170917143Y-98239524D01*
X170964762Y-98191905D01*
X171012381Y-98096667D01*
X171012381Y-97906190D01*
X170964762Y-97810952D01*
X170917143Y-97763333D01*
X170821905Y-97715714D01*
X170012381Y-97715714D01*
X170964762Y-97287143D02*
X171012381Y-97144286D01*
X171012381Y-96906190D01*
X170964762Y-96810952D01*
X170917143Y-96763333D01*
X170821905Y-96715714D01*
X170726667Y-96715714D01*
X170631429Y-96763333D01*
X170583810Y-96810952D01*
X170536190Y-96906190D01*
X170488571Y-97096667D01*
X170440952Y-97191905D01*
X170393333Y-97239524D01*
X170298095Y-97287143D01*
X170202857Y-97287143D01*
X170107619Y-97239524D01*
X170060000Y-97191905D01*
X170012381Y-97096667D01*
X170012381Y-96858571D01*
X170060000Y-96715714D01*
X171012381Y-96287143D02*
X170012381Y-96287143D01*
X170488571Y-96287143D02*
X170488571Y-95715714D01*
X171012381Y-95715714D02*
X170012381Y-95715714D01*
X190647143Y-110703809D02*
X190694762Y-110751428D01*
X190742381Y-110894285D01*
X190742381Y-110989523D01*
X190694762Y-111132381D01*
X190599524Y-111227619D01*
X190504286Y-111275238D01*
X190313810Y-111322857D01*
X190170952Y-111322857D01*
X189980476Y-111275238D01*
X189885238Y-111227619D01*
X189790000Y-111132381D01*
X189742381Y-110989523D01*
X189742381Y-110894285D01*
X189790000Y-110751428D01*
X189837619Y-110703809D01*
X189742381Y-110084762D02*
X189742381Y-109894285D01*
X189790000Y-109799047D01*
X189885238Y-109703809D01*
X190075714Y-109656190D01*
X190409048Y-109656190D01*
X190599524Y-109703809D01*
X190694762Y-109799047D01*
X190742381Y-109894285D01*
X190742381Y-110084762D01*
X190694762Y-110180000D01*
X190599524Y-110275238D01*
X190409048Y-110322857D01*
X190075714Y-110322857D01*
X189885238Y-110275238D01*
X189790000Y-110180000D01*
X189742381Y-110084762D01*
X190742381Y-109227619D02*
X189742381Y-109227619D01*
X190742381Y-108656190D01*
X189742381Y-108656190D01*
X190742381Y-108180000D02*
X189742381Y-108180000D01*
X190742381Y-107608571D01*
X189742381Y-107608571D01*
X190837619Y-107370476D02*
X190837619Y-106608571D01*
X189742381Y-106180000D02*
X189742381Y-106084761D01*
X189790000Y-105989523D01*
X189837619Y-105941904D01*
X189932857Y-105894285D01*
X190123333Y-105846666D01*
X190361429Y-105846666D01*
X190551905Y-105894285D01*
X190647143Y-105941904D01*
X190694762Y-105989523D01*
X190742381Y-106084761D01*
X190742381Y-106180000D01*
X190694762Y-106275238D01*
X190647143Y-106322857D01*
X190551905Y-106370476D01*
X190361429Y-106418095D01*
X190123333Y-106418095D01*
X189932857Y-106370476D01*
X189837619Y-106322857D01*
X189790000Y-106275238D01*
X189742381Y-106180000D01*
X190742381Y-104894285D02*
X190742381Y-105465714D01*
X190742381Y-105180000D02*
X189742381Y-105180000D01*
X189885238Y-105275238D01*
X189980476Y-105370476D01*
X190028095Y-105465714D01*
X189742381Y-104560952D02*
X190742381Y-103894285D01*
X189742381Y-103894285D02*
X190742381Y-104560952D01*
X189742381Y-103322857D02*
X189742381Y-103227618D01*
X189790000Y-103132380D01*
X189837619Y-103084761D01*
X189932857Y-103037142D01*
X190123333Y-102989523D01*
X190361429Y-102989523D01*
X190551905Y-103037142D01*
X190647143Y-103084761D01*
X190694762Y-103132380D01*
X190742381Y-103227618D01*
X190742381Y-103322857D01*
X190694762Y-103418095D01*
X190647143Y-103465714D01*
X190551905Y-103513333D01*
X190361429Y-103560952D01*
X190123333Y-103560952D01*
X189932857Y-103513333D01*
X189837619Y-103465714D01*
X189790000Y-103418095D01*
X189742381Y-103322857D01*
X189742381Y-102132380D02*
X189742381Y-102322857D01*
X189790000Y-102418095D01*
X189837619Y-102465714D01*
X189980476Y-102560952D01*
X190170952Y-102608571D01*
X190551905Y-102608571D01*
X190647143Y-102560952D01*
X190694762Y-102513333D01*
X190742381Y-102418095D01*
X190742381Y-102227618D01*
X190694762Y-102132380D01*
X190647143Y-102084761D01*
X190551905Y-102037142D01*
X190313810Y-102037142D01*
X190218571Y-102084761D01*
X190170952Y-102132380D01*
X190123333Y-102227618D01*
X190123333Y-102418095D01*
X190170952Y-102513333D01*
X190218571Y-102560952D01*
X190313810Y-102608571D01*
X189595238Y-85428051D02*
X189738095Y-85475670D01*
X189785714Y-85523290D01*
X189833333Y-85618528D01*
X189833333Y-85761385D01*
X189785714Y-85856623D01*
X189738095Y-85904242D01*
X189642857Y-85951861D01*
X189261904Y-85951861D01*
X189261904Y-84951861D01*
X189595238Y-84951861D01*
X189690476Y-84999480D01*
X189738095Y-85047099D01*
X189785714Y-85142337D01*
X189785714Y-85237575D01*
X189738095Y-85332813D01*
X189690476Y-85380432D01*
X189595238Y-85428051D01*
X189261904Y-85428051D01*
X190214285Y-85666147D02*
X190690476Y-85666147D01*
X190119047Y-85951861D02*
X190452380Y-84951861D01*
X190785714Y-85951861D01*
X191690476Y-85951861D02*
X191357142Y-85475670D01*
X191119047Y-85951861D02*
X191119047Y-84951861D01*
X191500000Y-84951861D01*
X191595238Y-84999480D01*
X191642857Y-85047099D01*
X191690476Y-85142337D01*
X191690476Y-85285194D01*
X191642857Y-85380432D01*
X191595238Y-85428051D01*
X191500000Y-85475670D01*
X191119047Y-85475670D01*
X192690476Y-85951861D02*
X192357142Y-85475670D01*
X192119047Y-85951861D02*
X192119047Y-84951861D01*
X192500000Y-84951861D01*
X192595238Y-84999480D01*
X192642857Y-85047099D01*
X192690476Y-85142337D01*
X192690476Y-85285194D01*
X192642857Y-85380432D01*
X192595238Y-85428051D01*
X192500000Y-85475670D01*
X192119047Y-85475670D01*
X193119047Y-85428051D02*
X193452381Y-85428051D01*
X193595238Y-85951861D02*
X193119047Y-85951861D01*
X193119047Y-84951861D01*
X193595238Y-84951861D01*
X194500000Y-85951861D02*
X194023809Y-85951861D01*
X194023809Y-84951861D01*
X194595238Y-86047099D02*
X195357143Y-86047099D01*
X195880953Y-84951861D02*
X195880953Y-85666147D01*
X195833333Y-85809004D01*
X195738095Y-85904242D01*
X195595238Y-85951861D01*
X195500000Y-85951861D01*
X196309524Y-85666147D02*
X196785715Y-85666147D01*
X196214286Y-85951861D02*
X196547619Y-84951861D01*
X196880953Y-85951861D01*
X197785715Y-85856623D02*
X197738096Y-85904242D01*
X197595239Y-85951861D01*
X197500001Y-85951861D01*
X197357143Y-85904242D01*
X197261905Y-85809004D01*
X197214286Y-85713766D01*
X197166667Y-85523290D01*
X197166667Y-85380432D01*
X197214286Y-85189956D01*
X197261905Y-85094718D01*
X197357143Y-84999480D01*
X197500001Y-84951861D01*
X197595239Y-84951861D01*
X197738096Y-84999480D01*
X197785715Y-85047099D01*
X198214286Y-85951861D02*
X198214286Y-84951861D01*
X198785715Y-85951861D02*
X198357143Y-85380432D01*
X198785715Y-84951861D02*
X198214286Y-85523290D01*
X134555552Y-69367661D02*
X134555552Y-68367661D01*
X134555552Y-68843851D02*
X135126981Y-68843851D01*
X135126981Y-69367661D02*
X135126981Y-68367661D01*
X135746028Y-69367661D02*
X135650790Y-69320042D01*
X135603171Y-69272423D01*
X135555552Y-69177185D01*
X135555552Y-68891470D01*
X135603171Y-68796232D01*
X135650790Y-68748613D01*
X135746028Y-68700994D01*
X135888886Y-68700994D01*
X135984124Y-68748613D01*
X136031743Y-68796232D01*
X136079362Y-68891470D01*
X136079362Y-69177185D01*
X136031743Y-69272423D01*
X135984124Y-69320042D01*
X135888886Y-69367661D01*
X135746028Y-69367661D01*
X136650790Y-69367661D02*
X136555552Y-69320042D01*
X136507933Y-69224804D01*
X136507933Y-68367661D01*
X137412696Y-69320042D02*
X137317458Y-69367661D01*
X137126981Y-69367661D01*
X137031743Y-69320042D01*
X136984124Y-69224804D01*
X136984124Y-68843851D01*
X137031743Y-68748613D01*
X137126981Y-68700994D01*
X137317458Y-68700994D01*
X137412696Y-68748613D01*
X137460315Y-68843851D01*
X137460315Y-68939090D01*
X136984124Y-69034328D01*
X137650791Y-69462899D02*
X138412696Y-69462899D01*
X139079363Y-68700994D02*
X139079363Y-69367661D01*
X138841267Y-68320042D02*
X138603172Y-69034328D01*
X139222220Y-69034328D01*
X139603172Y-69367661D02*
X139603172Y-68700994D01*
X139603172Y-68796232D02*
X139650791Y-68748613D01*
X139746029Y-68700994D01*
X139888887Y-68700994D01*
X139984125Y-68748613D01*
X140031744Y-68843851D01*
X140031744Y-69367661D01*
X140031744Y-68843851D02*
X140079363Y-68748613D01*
X140174601Y-68700994D01*
X140317458Y-68700994D01*
X140412696Y-68748613D01*
X140460315Y-68843851D01*
X140460315Y-69367661D01*
X140936505Y-69367661D02*
X140936505Y-68700994D01*
X140936505Y-68796232D02*
X140984124Y-68748613D01*
X141079362Y-68700994D01*
X141222220Y-68700994D01*
X141317458Y-68748613D01*
X141365077Y-68843851D01*
X141365077Y-69367661D01*
X141365077Y-68843851D02*
X141412696Y-68748613D01*
X141507934Y-68700994D01*
X141650791Y-68700994D01*
X141746029Y-68748613D01*
X141793648Y-68843851D01*
X141793648Y-69367661D01*
X196780952Y-85752381D02*
X196780952Y-84752381D01*
X196780952Y-85228571D02*
X197352381Y-85228571D01*
X197352381Y-85752381D02*
X197352381Y-84752381D01*
X197971428Y-85752381D02*
X197876190Y-85704762D01*
X197828571Y-85657143D01*
X197780952Y-85561905D01*
X197780952Y-85276190D01*
X197828571Y-85180952D01*
X197876190Y-85133333D01*
X197971428Y-85085714D01*
X198114286Y-85085714D01*
X198209524Y-85133333D01*
X198257143Y-85180952D01*
X198304762Y-85276190D01*
X198304762Y-85561905D01*
X198257143Y-85657143D01*
X198209524Y-85704762D01*
X198114286Y-85752381D01*
X197971428Y-85752381D01*
X198876190Y-85752381D02*
X198780952Y-85704762D01*
X198733333Y-85609524D01*
X198733333Y-84752381D01*
X199638096Y-85704762D02*
X199542858Y-85752381D01*
X199352381Y-85752381D01*
X199257143Y-85704762D01*
X199209524Y-85609524D01*
X199209524Y-85228571D01*
X199257143Y-85133333D01*
X199352381Y-85085714D01*
X199542858Y-85085714D01*
X199638096Y-85133333D01*
X199685715Y-85228571D01*
X199685715Y-85323810D01*
X199209524Y-85419048D01*
X199876191Y-85847619D02*
X200638096Y-85847619D01*
X201304763Y-85085714D02*
X201304763Y-85752381D01*
X201066667Y-84704762D02*
X200828572Y-85419048D01*
X201447620Y-85419048D01*
X201828572Y-85752381D02*
X201828572Y-85085714D01*
X201828572Y-85180952D02*
X201876191Y-85133333D01*
X201971429Y-85085714D01*
X202114287Y-85085714D01*
X202209525Y-85133333D01*
X202257144Y-85228571D01*
X202257144Y-85752381D01*
X202257144Y-85228571D02*
X202304763Y-85133333D01*
X202400001Y-85085714D01*
X202542858Y-85085714D01*
X202638096Y-85133333D01*
X202685715Y-85228571D01*
X202685715Y-85752381D01*
X203161905Y-85752381D02*
X203161905Y-85085714D01*
X203161905Y-85180952D02*
X203209524Y-85133333D01*
X203304762Y-85085714D01*
X203447620Y-85085714D01*
X203542858Y-85133333D01*
X203590477Y-85228571D01*
X203590477Y-85752381D01*
X203590477Y-85228571D02*
X203638096Y-85133333D01*
X203733334Y-85085714D01*
X203876191Y-85085714D01*
X203971429Y-85133333D01*
X204019048Y-85228571D01*
X204019048Y-85752381D01*
X196780952Y-109252381D02*
X196780952Y-108252381D01*
X196780952Y-108728571D02*
X197352381Y-108728571D01*
X197352381Y-109252381D02*
X197352381Y-108252381D01*
X197971428Y-109252381D02*
X197876190Y-109204762D01*
X197828571Y-109157143D01*
X197780952Y-109061905D01*
X197780952Y-108776190D01*
X197828571Y-108680952D01*
X197876190Y-108633333D01*
X197971428Y-108585714D01*
X198114286Y-108585714D01*
X198209524Y-108633333D01*
X198257143Y-108680952D01*
X198304762Y-108776190D01*
X198304762Y-109061905D01*
X198257143Y-109157143D01*
X198209524Y-109204762D01*
X198114286Y-109252381D01*
X197971428Y-109252381D01*
X198876190Y-109252381D02*
X198780952Y-109204762D01*
X198733333Y-109109524D01*
X198733333Y-108252381D01*
X199638096Y-109204762D02*
X199542858Y-109252381D01*
X199352381Y-109252381D01*
X199257143Y-109204762D01*
X199209524Y-109109524D01*
X199209524Y-108728571D01*
X199257143Y-108633333D01*
X199352381Y-108585714D01*
X199542858Y-108585714D01*
X199638096Y-108633333D01*
X199685715Y-108728571D01*
X199685715Y-108823810D01*
X199209524Y-108919048D01*
X199876191Y-109347619D02*
X200638096Y-109347619D01*
X201304763Y-108585714D02*
X201304763Y-109252381D01*
X201066667Y-108204762D02*
X200828572Y-108919048D01*
X201447620Y-108919048D01*
X201828572Y-109252381D02*
X201828572Y-108585714D01*
X201828572Y-108680952D02*
X201876191Y-108633333D01*
X201971429Y-108585714D01*
X202114287Y-108585714D01*
X202209525Y-108633333D01*
X202257144Y-108728571D01*
X202257144Y-109252381D01*
X202257144Y-108728571D02*
X202304763Y-108633333D01*
X202400001Y-108585714D01*
X202542858Y-108585714D01*
X202638096Y-108633333D01*
X202685715Y-108728571D01*
X202685715Y-109252381D01*
X203161905Y-109252381D02*
X203161905Y-108585714D01*
X203161905Y-108680952D02*
X203209524Y-108633333D01*
X203304762Y-108585714D01*
X203447620Y-108585714D01*
X203542858Y-108633333D01*
X203590477Y-108728571D01*
X203590477Y-109252381D01*
X203590477Y-108728571D02*
X203638096Y-108633333D01*
X203733334Y-108585714D01*
X203876191Y-108585714D01*
X203971429Y-108633333D01*
X204019048Y-108728571D01*
X204019048Y-109252381D01*
X136780952Y-109252381D02*
X136780952Y-108252381D01*
X136780952Y-108728571D02*
X137352381Y-108728571D01*
X137352381Y-109252381D02*
X137352381Y-108252381D01*
X137971428Y-109252381D02*
X137876190Y-109204762D01*
X137828571Y-109157143D01*
X137780952Y-109061905D01*
X137780952Y-108776190D01*
X137828571Y-108680952D01*
X137876190Y-108633333D01*
X137971428Y-108585714D01*
X138114286Y-108585714D01*
X138209524Y-108633333D01*
X138257143Y-108680952D01*
X138304762Y-108776190D01*
X138304762Y-109061905D01*
X138257143Y-109157143D01*
X138209524Y-109204762D01*
X138114286Y-109252381D01*
X137971428Y-109252381D01*
X138876190Y-109252381D02*
X138780952Y-109204762D01*
X138733333Y-109109524D01*
X138733333Y-108252381D01*
X139638096Y-109204762D02*
X139542858Y-109252381D01*
X139352381Y-109252381D01*
X139257143Y-109204762D01*
X139209524Y-109109524D01*
X139209524Y-108728571D01*
X139257143Y-108633333D01*
X139352381Y-108585714D01*
X139542858Y-108585714D01*
X139638096Y-108633333D01*
X139685715Y-108728571D01*
X139685715Y-108823810D01*
X139209524Y-108919048D01*
X139876191Y-109347619D02*
X140638096Y-109347619D01*
X141304763Y-108585714D02*
X141304763Y-109252381D01*
X141066667Y-108204762D02*
X140828572Y-108919048D01*
X141447620Y-108919048D01*
X141828572Y-109252381D02*
X141828572Y-108585714D01*
X141828572Y-108680952D02*
X141876191Y-108633333D01*
X141971429Y-108585714D01*
X142114287Y-108585714D01*
X142209525Y-108633333D01*
X142257144Y-108728571D01*
X142257144Y-109252381D01*
X142257144Y-108728571D02*
X142304763Y-108633333D01*
X142400001Y-108585714D01*
X142542858Y-108585714D01*
X142638096Y-108633333D01*
X142685715Y-108728571D01*
X142685715Y-109252381D01*
X143161905Y-109252381D02*
X143161905Y-108585714D01*
X143161905Y-108680952D02*
X143209524Y-108633333D01*
X143304762Y-108585714D01*
X143447620Y-108585714D01*
X143542858Y-108633333D01*
X143590477Y-108728571D01*
X143590477Y-109252381D01*
X143590477Y-108728571D02*
X143638096Y-108633333D01*
X143733334Y-108585714D01*
X143876191Y-108585714D01*
X143971429Y-108633333D01*
X144019048Y-108728571D01*
X144019048Y-109252381D01*
X164590475Y-72502381D02*
X164590475Y-71502381D01*
X164828570Y-71502381D01*
X164971428Y-71550000D01*
X165066666Y-71645238D01*
X165114285Y-71740476D01*
X165161904Y-71930952D01*
X165161904Y-72073810D01*
X165114285Y-72264286D01*
X165066666Y-72359524D01*
X164971428Y-72454762D01*
X164828570Y-72502381D01*
X164590475Y-72502381D01*
X165352380Y-72597619D02*
X166114285Y-72597619D01*
X166304761Y-72454762D02*
X166447618Y-72502381D01*
X166685714Y-72502381D01*
X166780952Y-72454762D01*
X166828571Y-72407143D01*
X166876190Y-72311905D01*
X166876190Y-72216667D01*
X166828571Y-72121429D01*
X166780952Y-72073810D01*
X166685714Y-72026190D01*
X166495237Y-71978571D01*
X166399999Y-71930952D01*
X166352380Y-71883333D01*
X166304761Y-71788095D01*
X166304761Y-71692857D01*
X166352380Y-71597619D01*
X166399999Y-71550000D01*
X166495237Y-71502381D01*
X166733333Y-71502381D01*
X166876190Y-71550000D01*
X167733333Y-72454762D02*
X167638095Y-72502381D01*
X167447618Y-72502381D01*
X167352380Y-72454762D01*
X167304761Y-72407143D01*
X167257142Y-72311905D01*
X167257142Y-72026190D01*
X167304761Y-71930952D01*
X167352380Y-71883333D01*
X167447618Y-71835714D01*
X167638095Y-71835714D01*
X167733333Y-71883333D01*
X168161904Y-72502381D02*
X168161904Y-71502381D01*
X168590476Y-72502381D02*
X168590476Y-71978571D01*
X168542857Y-71883333D01*
X168447619Y-71835714D01*
X168304761Y-71835714D01*
X168209523Y-71883333D01*
X168161904Y-71930952D01*
X169209523Y-72502381D02*
X169114285Y-72454762D01*
X169066666Y-72407143D01*
X169019047Y-72311905D01*
X169019047Y-72026190D01*
X169066666Y-71930952D01*
X169114285Y-71883333D01*
X169209523Y-71835714D01*
X169352381Y-71835714D01*
X169447619Y-71883333D01*
X169495238Y-71930952D01*
X169542857Y-72026190D01*
X169542857Y-72311905D01*
X169495238Y-72407143D01*
X169447619Y-72454762D01*
X169352381Y-72502381D01*
X169209523Y-72502381D01*
X169828571Y-71835714D02*
X170209523Y-71835714D01*
X169971428Y-71502381D02*
X169971428Y-72359524D01*
X170019047Y-72454762D01*
X170114285Y-72502381D01*
X170209523Y-72502381D01*
X170400000Y-71835714D02*
X170780952Y-71835714D01*
X170542857Y-71502381D02*
X170542857Y-72359524D01*
X170590476Y-72454762D01*
X170685714Y-72502381D01*
X170780952Y-72502381D01*
X171114286Y-72502381D02*
X171114286Y-71502381D01*
X171209524Y-72121429D02*
X171495239Y-72502381D01*
X171495239Y-71835714D02*
X171114286Y-72216667D01*
X171828572Y-71835714D02*
X172066667Y-72502381D01*
X172304763Y-71835714D02*
X172066667Y-72502381D01*
X171971429Y-72740476D01*
X171923810Y-72788095D01*
X171828572Y-72835714D01*
X172447620Y-72597619D02*
X173209525Y-72597619D01*
X173400001Y-72454762D02*
X173542858Y-72502381D01*
X173780954Y-72502381D01*
X173876192Y-72454762D01*
X173923811Y-72407143D01*
X173971430Y-72311905D01*
X173971430Y-72216667D01*
X173923811Y-72121429D01*
X173876192Y-72073810D01*
X173780954Y-72026190D01*
X173590477Y-71978571D01*
X173495239Y-71930952D01*
X173447620Y-71883333D01*
X173400001Y-71788095D01*
X173400001Y-71692857D01*
X173447620Y-71597619D01*
X173495239Y-71550000D01*
X173590477Y-71502381D01*
X173828573Y-71502381D01*
X173971430Y-71550000D01*
X174400001Y-72502381D02*
X174400001Y-71835714D01*
X174400001Y-71930952D02*
X174447620Y-71883333D01*
X174542858Y-71835714D01*
X174685716Y-71835714D01*
X174780954Y-71883333D01*
X174828573Y-71978571D01*
X174828573Y-72502381D01*
X174828573Y-71978571D02*
X174876192Y-71883333D01*
X174971430Y-71835714D01*
X175114287Y-71835714D01*
X175209525Y-71883333D01*
X175257144Y-71978571D01*
X175257144Y-72502381D01*
X176161906Y-72502381D02*
X176161906Y-71978571D01*
X176114287Y-71883333D01*
X176019049Y-71835714D01*
X175828572Y-71835714D01*
X175733334Y-71883333D01*
X176161906Y-72454762D02*
X176066668Y-72502381D01*
X175828572Y-72502381D01*
X175733334Y-72454762D01*
X175685715Y-72359524D01*
X175685715Y-72264286D01*
X175733334Y-72169048D01*
X175828572Y-72121429D01*
X176066668Y-72121429D01*
X176161906Y-72073810D01*
X176780953Y-72502381D02*
X176685715Y-72454762D01*
X176638096Y-72359524D01*
X176638096Y-71502381D01*
X177304763Y-72502381D02*
X177209525Y-72454762D01*
X177161906Y-72359524D01*
X177161906Y-71502381D01*
X148302381Y-108904762D02*
X148302381Y-109476191D01*
X148302381Y-109190477D02*
X147302381Y-109190477D01*
X147445238Y-109285715D01*
X147540476Y-109380953D01*
X147588095Y-109476191D01*
X147302381Y-108285715D02*
X147302381Y-108190476D01*
X147350000Y-108095238D01*
X147397619Y-108047619D01*
X147492857Y-108000000D01*
X147683333Y-107952381D01*
X147921429Y-107952381D01*
X148111905Y-108000000D01*
X148207143Y-108047619D01*
X148254762Y-108095238D01*
X148302381Y-108190476D01*
X148302381Y-108285715D01*
X148254762Y-108380953D01*
X148207143Y-108428572D01*
X148111905Y-108476191D01*
X147921429Y-108523810D01*
X147683333Y-108523810D01*
X147492857Y-108476191D01*
X147397619Y-108428572D01*
X147350000Y-108380953D01*
X147302381Y-108285715D01*
X147302381Y-107333334D02*
X147302381Y-107238095D01*
X147350000Y-107142857D01*
X147397619Y-107095238D01*
X147492857Y-107047619D01*
X147683333Y-107000000D01*
X147921429Y-107000000D01*
X148111905Y-107047619D01*
X148207143Y-107095238D01*
X148254762Y-107142857D01*
X148302381Y-107238095D01*
X148302381Y-107333334D01*
X148254762Y-107428572D01*
X148207143Y-107476191D01*
X148111905Y-107523810D01*
X147921429Y-107571429D01*
X147683333Y-107571429D01*
X147492857Y-107523810D01*
X147397619Y-107476191D01*
X147350000Y-107428572D01*
X147302381Y-107333334D01*
X147635714Y-106571429D02*
X148302381Y-106571429D01*
X147730952Y-106571429D02*
X147683333Y-106523810D01*
X147635714Y-106428572D01*
X147635714Y-106285714D01*
X147683333Y-106190476D01*
X147778571Y-106142857D01*
X148302381Y-106142857D01*
X147635714Y-105809524D02*
X147635714Y-105428572D01*
X148302381Y-105666667D02*
X147445238Y-105666667D01*
X147350000Y-105619048D01*
X147302381Y-105523810D01*
X147302381Y-105428572D01*
X151345238Y-108852381D02*
X150773809Y-108852381D01*
X151059523Y-108852381D02*
X151059523Y-107852381D01*
X150964285Y-107995238D01*
X150869047Y-108090476D01*
X150773809Y-108138095D01*
X151964285Y-107852381D02*
X152059524Y-107852381D01*
X152154762Y-107900000D01*
X152202381Y-107947619D01*
X152250000Y-108042857D01*
X152297619Y-108233333D01*
X152297619Y-108471429D01*
X152250000Y-108661905D01*
X152202381Y-108757143D01*
X152154762Y-108804762D01*
X152059524Y-108852381D01*
X151964285Y-108852381D01*
X151869047Y-108804762D01*
X151821428Y-108757143D01*
X151773809Y-108661905D01*
X151726190Y-108471429D01*
X151726190Y-108233333D01*
X151773809Y-108042857D01*
X151821428Y-107947619D01*
X151869047Y-107900000D01*
X151964285Y-107852381D01*
X152916666Y-107852381D02*
X153011905Y-107852381D01*
X153107143Y-107900000D01*
X153154762Y-107947619D01*
X153202381Y-108042857D01*
X153250000Y-108233333D01*
X153250000Y-108471429D01*
X153202381Y-108661905D01*
X153154762Y-108757143D01*
X153107143Y-108804762D01*
X153011905Y-108852381D01*
X152916666Y-108852381D01*
X152821428Y-108804762D01*
X152773809Y-108757143D01*
X152726190Y-108661905D01*
X152678571Y-108471429D01*
X152678571Y-108233333D01*
X152726190Y-108042857D01*
X152773809Y-107947619D01*
X152821428Y-107900000D01*
X152916666Y-107852381D01*
X153678571Y-108185714D02*
X153678571Y-108852381D01*
X153678571Y-108280952D02*
X153726190Y-108233333D01*
X153821428Y-108185714D01*
X153964286Y-108185714D01*
X154059524Y-108233333D01*
X154107143Y-108328571D01*
X154107143Y-108852381D01*
X154440476Y-108185714D02*
X154821428Y-108185714D01*
X154583333Y-108852381D02*
X154583333Y-107995238D01*
X154630952Y-107900000D01*
X154726190Y-107852381D01*
X154821428Y-107852381D01*
X181085714Y-82404761D02*
X181752381Y-82404761D01*
X180704762Y-82642857D02*
X181419048Y-82880952D01*
X181419048Y-82261904D01*
X181657143Y-81880952D02*
X181704762Y-81833333D01*
X181752381Y-81880952D01*
X181704762Y-81928571D01*
X181657143Y-81880952D01*
X181752381Y-81880952D01*
X180752381Y-81500000D02*
X180752381Y-80833333D01*
X181752381Y-81261905D01*
X181085714Y-80023809D02*
X181752381Y-80023809D01*
X181085714Y-80452381D02*
X181609524Y-80452381D01*
X181704762Y-80404762D01*
X181752381Y-80309524D01*
X181752381Y-80166666D01*
X181704762Y-80071428D01*
X181657143Y-80023809D01*
X181228571Y-79214285D02*
X181228571Y-79547619D01*
X181752381Y-79547619D02*
X180752381Y-79547619D01*
X180752381Y-79071428D01*
X177252381Y-91952381D02*
X176680952Y-91952381D01*
X176966666Y-91952381D02*
X176966666Y-90952381D01*
X176871428Y-91095238D01*
X176776190Y-91190476D01*
X176680952Y-91238095D01*
X177871428Y-90952381D02*
X177966667Y-90952381D01*
X178061905Y-91000000D01*
X178109524Y-91047619D01*
X178157143Y-91142857D01*
X178204762Y-91333333D01*
X178204762Y-91571429D01*
X178157143Y-91761905D01*
X178109524Y-91857143D01*
X178061905Y-91904762D01*
X177966667Y-91952381D01*
X177871428Y-91952381D01*
X177776190Y-91904762D01*
X177728571Y-91857143D01*
X177680952Y-91761905D01*
X177633333Y-91571429D01*
X177633333Y-91333333D01*
X177680952Y-91142857D01*
X177728571Y-91047619D01*
X177776190Y-91000000D01*
X177871428Y-90952381D01*
X178823809Y-90952381D02*
X178919048Y-90952381D01*
X179014286Y-91000000D01*
X179061905Y-91047619D01*
X179109524Y-91142857D01*
X179157143Y-91333333D01*
X179157143Y-91571429D01*
X179109524Y-91761905D01*
X179061905Y-91857143D01*
X179014286Y-91904762D01*
X178919048Y-91952381D01*
X178823809Y-91952381D01*
X178728571Y-91904762D01*
X178680952Y-91857143D01*
X178633333Y-91761905D01*
X178585714Y-91571429D01*
X178585714Y-91333333D01*
X178633333Y-91142857D01*
X178680952Y-91047619D01*
X178728571Y-91000000D01*
X178823809Y-90952381D01*
X179585714Y-91285714D02*
X179585714Y-91952381D01*
X179585714Y-91380952D02*
X179633333Y-91333333D01*
X179728571Y-91285714D01*
X179871429Y-91285714D01*
X179966667Y-91333333D01*
X180014286Y-91428571D01*
X180014286Y-91952381D01*
X180823810Y-91428571D02*
X180490476Y-91428571D01*
X180490476Y-91952381D02*
X180490476Y-90952381D01*
X180966667Y-90952381D01*
X150102381Y-77845238D02*
X150102381Y-78416667D01*
X150102381Y-78130953D02*
X149102381Y-78130953D01*
X149245238Y-78226191D01*
X149340476Y-78321429D01*
X149388095Y-78416667D01*
X149435714Y-76988095D02*
X150102381Y-76988095D01*
X149435714Y-77416667D02*
X149959524Y-77416667D01*
X150054762Y-77369048D01*
X150102381Y-77273810D01*
X150102381Y-77130952D01*
X150054762Y-77035714D01*
X150007143Y-76988095D01*
X149578571Y-76178571D02*
X149578571Y-76511905D01*
X150102381Y-76511905D02*
X149102381Y-76511905D01*
X149102381Y-76035714D01*
X158972381Y-79142857D02*
X158972381Y-79619048D01*
X157972381Y-79619048D01*
X158448571Y-78809524D02*
X158448571Y-78476190D01*
X158972381Y-78333333D02*
X158972381Y-78809524D01*
X157972381Y-78809524D01*
X157972381Y-78333333D01*
X158972381Y-77904762D02*
X157972381Y-77904762D01*
X157972381Y-77666667D01*
X158020000Y-77523809D01*
X158115238Y-77428571D01*
X158210476Y-77380952D01*
X158400952Y-77333333D01*
X158543810Y-77333333D01*
X158734286Y-77380952D01*
X158829524Y-77428571D01*
X158924762Y-77523809D01*
X158972381Y-77666667D01*
X158972381Y-77904762D01*
X168856191Y-109277143D02*
X168808572Y-109324762D01*
X168665715Y-109372381D01*
X168570477Y-109372381D01*
X168427619Y-109324762D01*
X168332381Y-109229524D01*
X168284762Y-109134286D01*
X168237143Y-108943810D01*
X168237143Y-108800952D01*
X168284762Y-108610476D01*
X168332381Y-108515238D01*
X168427619Y-108420000D01*
X168570477Y-108372381D01*
X168665715Y-108372381D01*
X168808572Y-108420000D01*
X168856191Y-108467619D01*
X169475238Y-108372381D02*
X169665715Y-108372381D01*
X169760953Y-108420000D01*
X169856191Y-108515238D01*
X169903810Y-108705714D01*
X169903810Y-109039048D01*
X169856191Y-109229524D01*
X169760953Y-109324762D01*
X169665715Y-109372381D01*
X169475238Y-109372381D01*
X169380000Y-109324762D01*
X169284762Y-109229524D01*
X169237143Y-109039048D01*
X169237143Y-108705714D01*
X169284762Y-108515238D01*
X169380000Y-108420000D01*
X169475238Y-108372381D01*
X170332381Y-109372381D02*
X170332381Y-108372381D01*
X170903810Y-109372381D01*
X170903810Y-108372381D01*
X171380000Y-109372381D02*
X171380000Y-108372381D01*
X171951429Y-109372381D01*
X171951429Y-108372381D01*
X172189524Y-109467619D02*
X172951429Y-109467619D01*
X173380000Y-108372381D02*
X173475239Y-108372381D01*
X173570477Y-108420000D01*
X173618096Y-108467619D01*
X173665715Y-108562857D01*
X173713334Y-108753333D01*
X173713334Y-108991429D01*
X173665715Y-109181905D01*
X173618096Y-109277143D01*
X173570477Y-109324762D01*
X173475239Y-109372381D01*
X173380000Y-109372381D01*
X173284762Y-109324762D01*
X173237143Y-109277143D01*
X173189524Y-109181905D01*
X173141905Y-108991429D01*
X173141905Y-108753333D01*
X173189524Y-108562857D01*
X173237143Y-108467619D01*
X173284762Y-108420000D01*
X173380000Y-108372381D01*
X174665715Y-109372381D02*
X174094286Y-109372381D01*
X174380000Y-109372381D02*
X174380000Y-108372381D01*
X174284762Y-108515238D01*
X174189524Y-108610476D01*
X174094286Y-108658095D01*
X174999048Y-108372381D02*
X175665715Y-109372381D01*
X175665715Y-108372381D02*
X174999048Y-109372381D01*
X176237143Y-108372381D02*
X176332382Y-108372381D01*
X176427620Y-108420000D01*
X176475239Y-108467619D01*
X176522858Y-108562857D01*
X176570477Y-108753333D01*
X176570477Y-108991429D01*
X176522858Y-109181905D01*
X176475239Y-109277143D01*
X176427620Y-109324762D01*
X176332382Y-109372381D01*
X176237143Y-109372381D01*
X176141905Y-109324762D01*
X176094286Y-109277143D01*
X176046667Y-109181905D01*
X175999048Y-108991429D01*
X175999048Y-108753333D01*
X176046667Y-108562857D01*
X176094286Y-108467619D01*
X176141905Y-108420000D01*
X176237143Y-108372381D01*
X177475239Y-108372381D02*
X176999048Y-108372381D01*
X176951429Y-108848571D01*
X176999048Y-108800952D01*
X177094286Y-108753333D01*
X177332382Y-108753333D01*
X177427620Y-108800952D01*
X177475239Y-108848571D01*
X177522858Y-108943810D01*
X177522858Y-109181905D01*
X177475239Y-109277143D01*
X177427620Y-109324762D01*
X177332382Y-109372381D01*
X177094286Y-109372381D01*
X176999048Y-109324762D01*
X176951429Y-109277143D01*
X184666667Y-89680952D02*
X184666667Y-89204761D01*
X184952381Y-89776190D02*
X183952381Y-89442857D01*
X184952381Y-89109523D01*
X183952381Y-88585714D02*
X183952381Y-88395237D01*
X184000000Y-88299999D01*
X184095238Y-88204761D01*
X184285714Y-88157142D01*
X184619048Y-88157142D01*
X184809524Y-88204761D01*
X184904762Y-88299999D01*
X184952381Y-88395237D01*
X184952381Y-88585714D01*
X184904762Y-88680952D01*
X184809524Y-88776190D01*
X184619048Y-88823809D01*
X184285714Y-88823809D01*
X184095238Y-88776190D01*
X184000000Y-88680952D01*
X183952381Y-88585714D01*
X183952381Y-87823809D02*
X183952381Y-87157142D01*
X184952381Y-87823809D01*
X184952381Y-87157142D01*
X184952381Y-86252380D02*
X184952381Y-86823809D01*
X184952381Y-86538095D02*
X183952381Y-86538095D01*
X184095238Y-86633333D01*
X184190476Y-86728571D01*
X184238095Y-86823809D01*
X184047619Y-85871428D02*
X184000000Y-85823809D01*
X183952381Y-85728571D01*
X183952381Y-85490475D01*
X184000000Y-85395237D01*
X184047619Y-85347618D01*
X184142857Y-85299999D01*
X184238095Y-85299999D01*
X184380952Y-85347618D01*
X184952381Y-85919047D01*
X184952381Y-85299999D01*
X184380952Y-84728571D02*
X184333333Y-84823809D01*
X184285714Y-84871428D01*
X184190476Y-84919047D01*
X184142857Y-84919047D01*
X184047619Y-84871428D01*
X184000000Y-84823809D01*
X183952381Y-84728571D01*
X183952381Y-84538094D01*
X184000000Y-84442856D01*
X184047619Y-84395237D01*
X184142857Y-84347618D01*
X184190476Y-84347618D01*
X184285714Y-84395237D01*
X184333333Y-84442856D01*
X184380952Y-84538094D01*
X184380952Y-84728571D01*
X184428571Y-84823809D01*
X184476190Y-84871428D01*
X184571429Y-84919047D01*
X184761905Y-84919047D01*
X184857143Y-84871428D01*
X184904762Y-84823809D01*
X184952381Y-84728571D01*
X184952381Y-84538094D01*
X184904762Y-84442856D01*
X184857143Y-84395237D01*
X184761905Y-84347618D01*
X184571429Y-84347618D01*
X184476190Y-84395237D01*
X184428571Y-84442856D01*
X184380952Y-84538094D01*
X184047619Y-83966666D02*
X184000000Y-83919047D01*
X183952381Y-83823809D01*
X183952381Y-83585713D01*
X184000000Y-83490475D01*
X184047619Y-83442856D01*
X184142857Y-83395237D01*
X184238095Y-83395237D01*
X184380952Y-83442856D01*
X184952381Y-84014285D01*
X184952381Y-83395237D01*
X184857143Y-82395237D02*
X184904762Y-82442856D01*
X184952381Y-82585713D01*
X184952381Y-82680951D01*
X184904762Y-82823809D01*
X184809524Y-82919047D01*
X184714286Y-82966666D01*
X184523810Y-83014285D01*
X184380952Y-83014285D01*
X184190476Y-82966666D01*
X184095238Y-82919047D01*
X184000000Y-82823809D01*
X183952381Y-82680951D01*
X183952381Y-82585713D01*
X184000000Y-82442856D01*
X184047619Y-82395237D01*
X184952381Y-81966666D02*
X183952381Y-81966666D01*
X162947619Y-86538095D02*
X162900000Y-86490476D01*
X162852381Y-86395238D01*
X162852381Y-86157142D01*
X162900000Y-86061904D01*
X162947619Y-86014285D01*
X163042857Y-85966666D01*
X163138095Y-85966666D01*
X163280952Y-86014285D01*
X163852381Y-86585714D01*
X163852381Y-85966666D01*
X162947619Y-85585714D02*
X162900000Y-85538095D01*
X162852381Y-85442857D01*
X162852381Y-85204761D01*
X162900000Y-85109523D01*
X162947619Y-85061904D01*
X163042857Y-85014285D01*
X163138095Y-85014285D01*
X163280952Y-85061904D01*
X163852381Y-85633333D01*
X163852381Y-85014285D01*
X163185714Y-84157142D02*
X163852381Y-84157142D01*
X163185714Y-84585714D02*
X163709524Y-84585714D01*
X163804762Y-84538095D01*
X163852381Y-84442857D01*
X163852381Y-84299999D01*
X163804762Y-84204761D01*
X163757143Y-84157142D01*
X163852381Y-83680952D02*
X162852381Y-83680952D01*
X163328571Y-83680952D02*
X163328571Y-83109523D01*
X163852381Y-83109523D02*
X162852381Y-83109523D01*
X173856191Y-88277143D02*
X173808572Y-88324762D01*
X173665715Y-88372381D01*
X173570477Y-88372381D01*
X173427619Y-88324762D01*
X173332381Y-88229524D01*
X173284762Y-88134286D01*
X173237143Y-87943810D01*
X173237143Y-87800952D01*
X173284762Y-87610476D01*
X173332381Y-87515238D01*
X173427619Y-87420000D01*
X173570477Y-87372381D01*
X173665715Y-87372381D01*
X173808572Y-87420000D01*
X173856191Y-87467619D01*
X174475238Y-87372381D02*
X174665715Y-87372381D01*
X174760953Y-87420000D01*
X174856191Y-87515238D01*
X174903810Y-87705714D01*
X174903810Y-88039048D01*
X174856191Y-88229524D01*
X174760953Y-88324762D01*
X174665715Y-88372381D01*
X174475238Y-88372381D01*
X174380000Y-88324762D01*
X174284762Y-88229524D01*
X174237143Y-88039048D01*
X174237143Y-87705714D01*
X174284762Y-87515238D01*
X174380000Y-87420000D01*
X174475238Y-87372381D01*
X175332381Y-88372381D02*
X175332381Y-87372381D01*
X175903810Y-88372381D01*
X175903810Y-87372381D01*
X176380000Y-88372381D02*
X176380000Y-87372381D01*
X176951429Y-88372381D01*
X176951429Y-87372381D01*
X177189524Y-88467619D02*
X177951429Y-88467619D01*
X178380000Y-87372381D02*
X178475239Y-87372381D01*
X178570477Y-87420000D01*
X178618096Y-87467619D01*
X178665715Y-87562857D01*
X178713334Y-87753333D01*
X178713334Y-87991429D01*
X178665715Y-88181905D01*
X178618096Y-88277143D01*
X178570477Y-88324762D01*
X178475239Y-88372381D01*
X178380000Y-88372381D01*
X178284762Y-88324762D01*
X178237143Y-88277143D01*
X178189524Y-88181905D01*
X178141905Y-87991429D01*
X178141905Y-87753333D01*
X178189524Y-87562857D01*
X178237143Y-87467619D01*
X178284762Y-87420000D01*
X178380000Y-87372381D01*
X179665715Y-88372381D02*
X179094286Y-88372381D01*
X179380000Y-88372381D02*
X179380000Y-87372381D01*
X179284762Y-87515238D01*
X179189524Y-87610476D01*
X179094286Y-87658095D01*
X179999048Y-87372381D02*
X180665715Y-88372381D01*
X180665715Y-87372381D02*
X179999048Y-88372381D01*
X181237143Y-87372381D02*
X181332382Y-87372381D01*
X181427620Y-87420000D01*
X181475239Y-87467619D01*
X181522858Y-87562857D01*
X181570477Y-87753333D01*
X181570477Y-87991429D01*
X181522858Y-88181905D01*
X181475239Y-88277143D01*
X181427620Y-88324762D01*
X181332382Y-88372381D01*
X181237143Y-88372381D01*
X181141905Y-88324762D01*
X181094286Y-88277143D01*
X181046667Y-88181905D01*
X180999048Y-87991429D01*
X180999048Y-87753333D01*
X181046667Y-87562857D01*
X181094286Y-87467619D01*
X181141905Y-87420000D01*
X181237143Y-87372381D01*
X182522858Y-88372381D02*
X181951429Y-88372381D01*
X182237143Y-88372381D02*
X182237143Y-87372381D01*
X182141905Y-87515238D01*
X182046667Y-87610476D01*
X181951429Y-87658095D01*
X178856191Y-88697143D02*
X178808572Y-88744762D01*
X178665715Y-88792381D01*
X178570477Y-88792381D01*
X178427619Y-88744762D01*
X178332381Y-88649524D01*
X178284762Y-88554286D01*
X178237143Y-88363810D01*
X178237143Y-88220952D01*
X178284762Y-88030476D01*
X178332381Y-87935238D01*
X178427619Y-87840000D01*
X178570477Y-87792381D01*
X178665715Y-87792381D01*
X178808572Y-87840000D01*
X178856191Y-87887619D01*
X179475238Y-87792381D02*
X179665715Y-87792381D01*
X179760953Y-87840000D01*
X179856191Y-87935238D01*
X179903810Y-88125714D01*
X179903810Y-88459048D01*
X179856191Y-88649524D01*
X179760953Y-88744762D01*
X179665715Y-88792381D01*
X179475238Y-88792381D01*
X179380000Y-88744762D01*
X179284762Y-88649524D01*
X179237143Y-88459048D01*
X179237143Y-88125714D01*
X179284762Y-87935238D01*
X179380000Y-87840000D01*
X179475238Y-87792381D01*
X180332381Y-88792381D02*
X180332381Y-87792381D01*
X180903810Y-88792381D01*
X180903810Y-87792381D01*
X181380000Y-88792381D02*
X181380000Y-87792381D01*
X181951429Y-88792381D01*
X181951429Y-87792381D01*
X182189524Y-88887619D02*
X182951429Y-88887619D01*
X183380000Y-87792381D02*
X183475239Y-87792381D01*
X183570477Y-87840000D01*
X183618096Y-87887619D01*
X183665715Y-87982857D01*
X183713334Y-88173333D01*
X183713334Y-88411429D01*
X183665715Y-88601905D01*
X183618096Y-88697143D01*
X183570477Y-88744762D01*
X183475239Y-88792381D01*
X183380000Y-88792381D01*
X183284762Y-88744762D01*
X183237143Y-88697143D01*
X183189524Y-88601905D01*
X183141905Y-88411429D01*
X183141905Y-88173333D01*
X183189524Y-87982857D01*
X183237143Y-87887619D01*
X183284762Y-87840000D01*
X183380000Y-87792381D01*
X184665715Y-88792381D02*
X184094286Y-88792381D01*
X184380000Y-88792381D02*
X184380000Y-87792381D01*
X184284762Y-87935238D01*
X184189524Y-88030476D01*
X184094286Y-88078095D01*
X184999048Y-87792381D02*
X185665715Y-88792381D01*
X185665715Y-87792381D02*
X184999048Y-88792381D01*
X186237143Y-87792381D02*
X186332382Y-87792381D01*
X186427620Y-87840000D01*
X186475239Y-87887619D01*
X186522858Y-87982857D01*
X186570477Y-88173333D01*
X186570477Y-88411429D01*
X186522858Y-88601905D01*
X186475239Y-88697143D01*
X186427620Y-88744762D01*
X186332382Y-88792381D01*
X186237143Y-88792381D01*
X186141905Y-88744762D01*
X186094286Y-88697143D01*
X186046667Y-88601905D01*
X185999048Y-88411429D01*
X185999048Y-88173333D01*
X186046667Y-87982857D01*
X186094286Y-87887619D01*
X186141905Y-87840000D01*
X186237143Y-87792381D01*
X187522858Y-88792381D02*
X186951429Y-88792381D01*
X187237143Y-88792381D02*
X187237143Y-87792381D01*
X187141905Y-87935238D01*
X187046667Y-88030476D01*
X186951429Y-88078095D01*
X179356191Y-96897143D02*
X179308572Y-96944762D01*
X179165715Y-96992381D01*
X179070477Y-96992381D01*
X178927619Y-96944762D01*
X178832381Y-96849524D01*
X178784762Y-96754286D01*
X178737143Y-96563810D01*
X178737143Y-96420952D01*
X178784762Y-96230476D01*
X178832381Y-96135238D01*
X178927619Y-96040000D01*
X179070477Y-95992381D01*
X179165715Y-95992381D01*
X179308572Y-96040000D01*
X179356191Y-96087619D01*
X179975238Y-95992381D02*
X180165715Y-95992381D01*
X180260953Y-96040000D01*
X180356191Y-96135238D01*
X180403810Y-96325714D01*
X180403810Y-96659048D01*
X180356191Y-96849524D01*
X180260953Y-96944762D01*
X180165715Y-96992381D01*
X179975238Y-96992381D01*
X179880000Y-96944762D01*
X179784762Y-96849524D01*
X179737143Y-96659048D01*
X179737143Y-96325714D01*
X179784762Y-96135238D01*
X179880000Y-96040000D01*
X179975238Y-95992381D01*
X180832381Y-96992381D02*
X180832381Y-95992381D01*
X181403810Y-96992381D01*
X181403810Y-95992381D01*
X181880000Y-96992381D02*
X181880000Y-95992381D01*
X182451429Y-96992381D01*
X182451429Y-95992381D01*
X182689524Y-97087619D02*
X183451429Y-97087619D01*
X183880000Y-95992381D02*
X183975239Y-95992381D01*
X184070477Y-96040000D01*
X184118096Y-96087619D01*
X184165715Y-96182857D01*
X184213334Y-96373333D01*
X184213334Y-96611429D01*
X184165715Y-96801905D01*
X184118096Y-96897143D01*
X184070477Y-96944762D01*
X183975239Y-96992381D01*
X183880000Y-96992381D01*
X183784762Y-96944762D01*
X183737143Y-96897143D01*
X183689524Y-96801905D01*
X183641905Y-96611429D01*
X183641905Y-96373333D01*
X183689524Y-96182857D01*
X183737143Y-96087619D01*
X183784762Y-96040000D01*
X183880000Y-95992381D01*
X185165715Y-96992381D02*
X184594286Y-96992381D01*
X184880000Y-96992381D02*
X184880000Y-95992381D01*
X184784762Y-96135238D01*
X184689524Y-96230476D01*
X184594286Y-96278095D01*
X185499048Y-95992381D02*
X186165715Y-96992381D01*
X186165715Y-95992381D02*
X185499048Y-96992381D01*
X186737143Y-95992381D02*
X186832382Y-95992381D01*
X186927620Y-96040000D01*
X186975239Y-96087619D01*
X187022858Y-96182857D01*
X187070477Y-96373333D01*
X187070477Y-96611429D01*
X187022858Y-96801905D01*
X186975239Y-96897143D01*
X186927620Y-96944762D01*
X186832382Y-96992381D01*
X186737143Y-96992381D01*
X186641905Y-96944762D01*
X186594286Y-96897143D01*
X186546667Y-96801905D01*
X186499048Y-96611429D01*
X186499048Y-96373333D01*
X186546667Y-96182857D01*
X186594286Y-96087619D01*
X186641905Y-96040000D01*
X186737143Y-95992381D01*
X187975239Y-95992381D02*
X187499048Y-95992381D01*
X187451429Y-96468571D01*
X187499048Y-96420952D01*
X187594286Y-96373333D01*
X187832382Y-96373333D01*
X187927620Y-96420952D01*
X187975239Y-96468571D01*
X188022858Y-96563810D01*
X188022858Y-96801905D01*
X187975239Y-96897143D01*
X187927620Y-96944762D01*
X187832382Y-96992381D01*
X187594286Y-96992381D01*
X187499048Y-96944762D01*
X187451429Y-96897143D01*
X140196191Y-89257143D02*
X140148572Y-89304762D01*
X140005715Y-89352381D01*
X139910477Y-89352381D01*
X139767619Y-89304762D01*
X139672381Y-89209524D01*
X139624762Y-89114286D01*
X139577143Y-88923810D01*
X139577143Y-88780952D01*
X139624762Y-88590476D01*
X139672381Y-88495238D01*
X139767619Y-88400000D01*
X139910477Y-88352381D01*
X140005715Y-88352381D01*
X140148572Y-88400000D01*
X140196191Y-88447619D01*
X140815238Y-88352381D02*
X141005715Y-88352381D01*
X141100953Y-88400000D01*
X141196191Y-88495238D01*
X141243810Y-88685714D01*
X141243810Y-89019048D01*
X141196191Y-89209524D01*
X141100953Y-89304762D01*
X141005715Y-89352381D01*
X140815238Y-89352381D01*
X140720000Y-89304762D01*
X140624762Y-89209524D01*
X140577143Y-89019048D01*
X140577143Y-88685714D01*
X140624762Y-88495238D01*
X140720000Y-88400000D01*
X140815238Y-88352381D01*
X141672381Y-89352381D02*
X141672381Y-88352381D01*
X142243810Y-89352381D01*
X142243810Y-88352381D01*
X142720000Y-89352381D02*
X142720000Y-88352381D01*
X143291429Y-89352381D01*
X143291429Y-88352381D01*
X143529524Y-89447619D02*
X144291429Y-89447619D01*
X144720000Y-88352381D02*
X144815239Y-88352381D01*
X144910477Y-88400000D01*
X144958096Y-88447619D01*
X145005715Y-88542857D01*
X145053334Y-88733333D01*
X145053334Y-88971429D01*
X145005715Y-89161905D01*
X144958096Y-89257143D01*
X144910477Y-89304762D01*
X144815239Y-89352381D01*
X144720000Y-89352381D01*
X144624762Y-89304762D01*
X144577143Y-89257143D01*
X144529524Y-89161905D01*
X144481905Y-88971429D01*
X144481905Y-88733333D01*
X144529524Y-88542857D01*
X144577143Y-88447619D01*
X144624762Y-88400000D01*
X144720000Y-88352381D01*
X146005715Y-89352381D02*
X145434286Y-89352381D01*
X145720000Y-89352381D02*
X145720000Y-88352381D01*
X145624762Y-88495238D01*
X145529524Y-88590476D01*
X145434286Y-88638095D01*
X146339048Y-88352381D02*
X147005715Y-89352381D01*
X147005715Y-88352381D02*
X146339048Y-89352381D01*
X147577143Y-88352381D02*
X147672382Y-88352381D01*
X147767620Y-88400000D01*
X147815239Y-88447619D01*
X147862858Y-88542857D01*
X147910477Y-88733333D01*
X147910477Y-88971429D01*
X147862858Y-89161905D01*
X147815239Y-89257143D01*
X147767620Y-89304762D01*
X147672382Y-89352381D01*
X147577143Y-89352381D01*
X147481905Y-89304762D01*
X147434286Y-89257143D01*
X147386667Y-89161905D01*
X147339048Y-88971429D01*
X147339048Y-88733333D01*
X147386667Y-88542857D01*
X147434286Y-88447619D01*
X147481905Y-88400000D01*
X147577143Y-88352381D01*
X148767620Y-88352381D02*
X148577143Y-88352381D01*
X148481905Y-88400000D01*
X148434286Y-88447619D01*
X148339048Y-88590476D01*
X148291429Y-88780952D01*
X148291429Y-89161905D01*
X148339048Y-89257143D01*
X148386667Y-89304762D01*
X148481905Y-89352381D01*
X148672382Y-89352381D01*
X148767620Y-89304762D01*
X148815239Y-89257143D01*
X148862858Y-89161905D01*
X148862858Y-88923810D01*
X148815239Y-88828571D01*
X148767620Y-88780952D01*
X148672382Y-88733333D01*
X148481905Y-88733333D01*
X148386667Y-88780952D01*
X148339048Y-88828571D01*
X148291429Y-88923810D01*
X166017143Y-118323809D02*
X166064762Y-118371428D01*
X166112381Y-118514285D01*
X166112381Y-118609523D01*
X166064762Y-118752381D01*
X165969524Y-118847619D01*
X165874286Y-118895238D01*
X165683810Y-118942857D01*
X165540952Y-118942857D01*
X165350476Y-118895238D01*
X165255238Y-118847619D01*
X165160000Y-118752381D01*
X165112381Y-118609523D01*
X165112381Y-118514285D01*
X165160000Y-118371428D01*
X165207619Y-118323809D01*
X165112381Y-117704762D02*
X165112381Y-117514285D01*
X165160000Y-117419047D01*
X165255238Y-117323809D01*
X165445714Y-117276190D01*
X165779048Y-117276190D01*
X165969524Y-117323809D01*
X166064762Y-117419047D01*
X166112381Y-117514285D01*
X166112381Y-117704762D01*
X166064762Y-117800000D01*
X165969524Y-117895238D01*
X165779048Y-117942857D01*
X165445714Y-117942857D01*
X165255238Y-117895238D01*
X165160000Y-117800000D01*
X165112381Y-117704762D01*
X166112381Y-116847619D02*
X165112381Y-116847619D01*
X166112381Y-116276190D01*
X165112381Y-116276190D01*
X166112381Y-115800000D02*
X165112381Y-115800000D01*
X166112381Y-115228571D01*
X165112381Y-115228571D01*
X166207619Y-114990476D02*
X166207619Y-114228571D01*
X165112381Y-113800000D02*
X165112381Y-113704761D01*
X165160000Y-113609523D01*
X165207619Y-113561904D01*
X165302857Y-113514285D01*
X165493333Y-113466666D01*
X165731429Y-113466666D01*
X165921905Y-113514285D01*
X166017143Y-113561904D01*
X166064762Y-113609523D01*
X166112381Y-113704761D01*
X166112381Y-113800000D01*
X166064762Y-113895238D01*
X166017143Y-113942857D01*
X165921905Y-113990476D01*
X165731429Y-114038095D01*
X165493333Y-114038095D01*
X165302857Y-113990476D01*
X165207619Y-113942857D01*
X165160000Y-113895238D01*
X165112381Y-113800000D01*
X166112381Y-112514285D02*
X166112381Y-113085714D01*
X166112381Y-112800000D02*
X165112381Y-112800000D01*
X165255238Y-112895238D01*
X165350476Y-112990476D01*
X165398095Y-113085714D01*
X165112381Y-112180952D02*
X166112381Y-111514285D01*
X165112381Y-111514285D02*
X166112381Y-112180952D01*
X165112381Y-110942857D02*
X165112381Y-110847618D01*
X165160000Y-110752380D01*
X165207619Y-110704761D01*
X165302857Y-110657142D01*
X165493333Y-110609523D01*
X165731429Y-110609523D01*
X165921905Y-110657142D01*
X166017143Y-110704761D01*
X166064762Y-110752380D01*
X166112381Y-110847618D01*
X166112381Y-110942857D01*
X166064762Y-111038095D01*
X166017143Y-111085714D01*
X165921905Y-111133333D01*
X165731429Y-111180952D01*
X165493333Y-111180952D01*
X165302857Y-111133333D01*
X165207619Y-111085714D01*
X165160000Y-111038095D01*
X165112381Y-110942857D01*
X165540952Y-110038095D02*
X165493333Y-110133333D01*
X165445714Y-110180952D01*
X165350476Y-110228571D01*
X165302857Y-110228571D01*
X165207619Y-110180952D01*
X165160000Y-110133333D01*
X165112381Y-110038095D01*
X165112381Y-109847618D01*
X165160000Y-109752380D01*
X165207619Y-109704761D01*
X165302857Y-109657142D01*
X165350476Y-109657142D01*
X165445714Y-109704761D01*
X165493333Y-109752380D01*
X165540952Y-109847618D01*
X165540952Y-110038095D01*
X165588571Y-110133333D01*
X165636190Y-110180952D01*
X165731429Y-110228571D01*
X165921905Y-110228571D01*
X166017143Y-110180952D01*
X166064762Y-110133333D01*
X166112381Y-110038095D01*
X166112381Y-109847618D01*
X166064762Y-109752380D01*
X166017143Y-109704761D01*
X165921905Y-109657142D01*
X165731429Y-109657142D01*
X165636190Y-109704761D01*
X165588571Y-109752380D01*
X165540952Y-109847618D01*
X162357143Y-118323809D02*
X162404762Y-118371428D01*
X162452381Y-118514285D01*
X162452381Y-118609523D01*
X162404762Y-118752381D01*
X162309524Y-118847619D01*
X162214286Y-118895238D01*
X162023810Y-118942857D01*
X161880952Y-118942857D01*
X161690476Y-118895238D01*
X161595238Y-118847619D01*
X161500000Y-118752381D01*
X161452381Y-118609523D01*
X161452381Y-118514285D01*
X161500000Y-118371428D01*
X161547619Y-118323809D01*
X161452381Y-117704762D02*
X161452381Y-117514285D01*
X161500000Y-117419047D01*
X161595238Y-117323809D01*
X161785714Y-117276190D01*
X162119048Y-117276190D01*
X162309524Y-117323809D01*
X162404762Y-117419047D01*
X162452381Y-117514285D01*
X162452381Y-117704762D01*
X162404762Y-117800000D01*
X162309524Y-117895238D01*
X162119048Y-117942857D01*
X161785714Y-117942857D01*
X161595238Y-117895238D01*
X161500000Y-117800000D01*
X161452381Y-117704762D01*
X162452381Y-116847619D02*
X161452381Y-116847619D01*
X162452381Y-116276190D01*
X161452381Y-116276190D01*
X162452381Y-115800000D02*
X161452381Y-115800000D01*
X162452381Y-115228571D01*
X161452381Y-115228571D01*
X162547619Y-114990476D02*
X162547619Y-114228571D01*
X161452381Y-113800000D02*
X161452381Y-113704761D01*
X161500000Y-113609523D01*
X161547619Y-113561904D01*
X161642857Y-113514285D01*
X161833333Y-113466666D01*
X162071429Y-113466666D01*
X162261905Y-113514285D01*
X162357143Y-113561904D01*
X162404762Y-113609523D01*
X162452381Y-113704761D01*
X162452381Y-113800000D01*
X162404762Y-113895238D01*
X162357143Y-113942857D01*
X162261905Y-113990476D01*
X162071429Y-114038095D01*
X161833333Y-114038095D01*
X161642857Y-113990476D01*
X161547619Y-113942857D01*
X161500000Y-113895238D01*
X161452381Y-113800000D01*
X162452381Y-112514285D02*
X162452381Y-113085714D01*
X162452381Y-112800000D02*
X161452381Y-112800000D01*
X161595238Y-112895238D01*
X161690476Y-112990476D01*
X161738095Y-113085714D01*
X161452381Y-112180952D02*
X162452381Y-111514285D01*
X161452381Y-111514285D02*
X162452381Y-112180952D01*
X161452381Y-110942857D02*
X161452381Y-110847618D01*
X161500000Y-110752380D01*
X161547619Y-110704761D01*
X161642857Y-110657142D01*
X161833333Y-110609523D01*
X162071429Y-110609523D01*
X162261905Y-110657142D01*
X162357143Y-110704761D01*
X162404762Y-110752380D01*
X162452381Y-110847618D01*
X162452381Y-110942857D01*
X162404762Y-111038095D01*
X162357143Y-111085714D01*
X162261905Y-111133333D01*
X162071429Y-111180952D01*
X161833333Y-111180952D01*
X161642857Y-111133333D01*
X161547619Y-111085714D01*
X161500000Y-111038095D01*
X161452381Y-110942857D01*
X161452381Y-109752380D02*
X161452381Y-109942857D01*
X161500000Y-110038095D01*
X161547619Y-110085714D01*
X161690476Y-110180952D01*
X161880952Y-110228571D01*
X162261905Y-110228571D01*
X162357143Y-110180952D01*
X162404762Y-110133333D01*
X162452381Y-110038095D01*
X162452381Y-109847618D01*
X162404762Y-109752380D01*
X162357143Y-109704761D01*
X162261905Y-109657142D01*
X162023810Y-109657142D01*
X161928571Y-109704761D01*
X161880952Y-109752380D01*
X161833333Y-109847618D01*
X161833333Y-110038095D01*
X161880952Y-110133333D01*
X161928571Y-110180952D01*
X162023810Y-110228571D01*
X138216191Y-88697143D02*
X138168572Y-88744762D01*
X138025715Y-88792381D01*
X137930477Y-88792381D01*
X137787619Y-88744762D01*
X137692381Y-88649524D01*
X137644762Y-88554286D01*
X137597143Y-88363810D01*
X137597143Y-88220952D01*
X137644762Y-88030476D01*
X137692381Y-87935238D01*
X137787619Y-87840000D01*
X137930477Y-87792381D01*
X138025715Y-87792381D01*
X138168572Y-87840000D01*
X138216191Y-87887619D01*
X138835238Y-87792381D02*
X139025715Y-87792381D01*
X139120953Y-87840000D01*
X139216191Y-87935238D01*
X139263810Y-88125714D01*
X139263810Y-88459048D01*
X139216191Y-88649524D01*
X139120953Y-88744762D01*
X139025715Y-88792381D01*
X138835238Y-88792381D01*
X138740000Y-88744762D01*
X138644762Y-88649524D01*
X138597143Y-88459048D01*
X138597143Y-88125714D01*
X138644762Y-87935238D01*
X138740000Y-87840000D01*
X138835238Y-87792381D01*
X139692381Y-88792381D02*
X139692381Y-87792381D01*
X140263810Y-88792381D01*
X140263810Y-87792381D01*
X140740000Y-88792381D02*
X140740000Y-87792381D01*
X141311429Y-88792381D01*
X141311429Y-87792381D01*
X141549524Y-88887619D02*
X142311429Y-88887619D01*
X142740000Y-87792381D02*
X142835239Y-87792381D01*
X142930477Y-87840000D01*
X142978096Y-87887619D01*
X143025715Y-87982857D01*
X143073334Y-88173333D01*
X143073334Y-88411429D01*
X143025715Y-88601905D01*
X142978096Y-88697143D01*
X142930477Y-88744762D01*
X142835239Y-88792381D01*
X142740000Y-88792381D01*
X142644762Y-88744762D01*
X142597143Y-88697143D01*
X142549524Y-88601905D01*
X142501905Y-88411429D01*
X142501905Y-88173333D01*
X142549524Y-87982857D01*
X142597143Y-87887619D01*
X142644762Y-87840000D01*
X142740000Y-87792381D01*
X144025715Y-88792381D02*
X143454286Y-88792381D01*
X143740000Y-88792381D02*
X143740000Y-87792381D01*
X143644762Y-87935238D01*
X143549524Y-88030476D01*
X143454286Y-88078095D01*
X144359048Y-87792381D02*
X145025715Y-88792381D01*
X145025715Y-87792381D02*
X144359048Y-88792381D01*
X145597143Y-87792381D02*
X145692382Y-87792381D01*
X145787620Y-87840000D01*
X145835239Y-87887619D01*
X145882858Y-87982857D01*
X145930477Y-88173333D01*
X145930477Y-88411429D01*
X145882858Y-88601905D01*
X145835239Y-88697143D01*
X145787620Y-88744762D01*
X145692382Y-88792381D01*
X145597143Y-88792381D01*
X145501905Y-88744762D01*
X145454286Y-88697143D01*
X145406667Y-88601905D01*
X145359048Y-88411429D01*
X145359048Y-88173333D01*
X145406667Y-87982857D01*
X145454286Y-87887619D01*
X145501905Y-87840000D01*
X145597143Y-87792381D01*
X146501905Y-88220952D02*
X146406667Y-88173333D01*
X146359048Y-88125714D01*
X146311429Y-88030476D01*
X146311429Y-87982857D01*
X146359048Y-87887619D01*
X146406667Y-87840000D01*
X146501905Y-87792381D01*
X146692382Y-87792381D01*
X146787620Y-87840000D01*
X146835239Y-87887619D01*
X146882858Y-87982857D01*
X146882858Y-88030476D01*
X146835239Y-88125714D01*
X146787620Y-88173333D01*
X146692382Y-88220952D01*
X146501905Y-88220952D01*
X146406667Y-88268571D01*
X146359048Y-88316190D01*
X146311429Y-88411429D01*
X146311429Y-88601905D01*
X146359048Y-88697143D01*
X146406667Y-88744762D01*
X146501905Y-88792381D01*
X146692382Y-88792381D01*
X146787620Y-88744762D01*
X146835239Y-88697143D01*
X146882858Y-88601905D01*
X146882858Y-88411429D01*
X146835239Y-88316190D01*
X146787620Y-88268571D01*
X146692382Y-88220952D01*
X182776667Y-79695238D02*
X182776667Y-79219047D01*
X183062381Y-79790476D02*
X182062381Y-79457143D01*
X183062381Y-79123809D01*
X182062381Y-78600000D02*
X182062381Y-78409523D01*
X182110000Y-78314285D01*
X182205238Y-78219047D01*
X182395714Y-78171428D01*
X182729048Y-78171428D01*
X182919524Y-78219047D01*
X183014762Y-78314285D01*
X183062381Y-78409523D01*
X183062381Y-78600000D01*
X183014762Y-78695238D01*
X182919524Y-78790476D01*
X182729048Y-78838095D01*
X182395714Y-78838095D01*
X182205238Y-78790476D01*
X182110000Y-78695238D01*
X182062381Y-78600000D01*
X182062381Y-77838095D02*
X182062381Y-77219047D01*
X182443333Y-77552381D01*
X182443333Y-77409523D01*
X182490952Y-77314285D01*
X182538571Y-77266666D01*
X182633810Y-77219047D01*
X182871905Y-77219047D01*
X182967143Y-77266666D01*
X183014762Y-77314285D01*
X183062381Y-77409523D01*
X183062381Y-77695238D01*
X183014762Y-77790476D01*
X182967143Y-77838095D01*
X182395714Y-76361904D02*
X183062381Y-76361904D01*
X182014762Y-76600000D02*
X182729048Y-76838095D01*
X182729048Y-76219047D01*
X182062381Y-75647619D02*
X182062381Y-75552380D01*
X182110000Y-75457142D01*
X182157619Y-75409523D01*
X182252857Y-75361904D01*
X182443333Y-75314285D01*
X182681429Y-75314285D01*
X182871905Y-75361904D01*
X182967143Y-75409523D01*
X183014762Y-75457142D01*
X183062381Y-75552380D01*
X183062381Y-75647619D01*
X183014762Y-75742857D01*
X182967143Y-75790476D01*
X182871905Y-75838095D01*
X182681429Y-75885714D01*
X182443333Y-75885714D01*
X182252857Y-75838095D01*
X182157619Y-75790476D01*
X182110000Y-75742857D01*
X182062381Y-75647619D01*
X182395714Y-74457142D02*
X183062381Y-74457142D01*
X182014762Y-74695238D02*
X182729048Y-74933333D01*
X182729048Y-74314285D01*
X182776667Y-73980952D02*
X182776667Y-73504761D01*
X183062381Y-74076190D02*
X182062381Y-73742857D01*
X183062381Y-73409523D01*
X163285714Y-83099999D02*
X163952381Y-83099999D01*
X162904762Y-83338095D02*
X163619048Y-83576190D01*
X163619048Y-82957142D01*
X163952381Y-82528571D02*
X163952381Y-82338095D01*
X163904762Y-82242856D01*
X163857143Y-82195237D01*
X163714286Y-82099999D01*
X163523810Y-82052380D01*
X163142857Y-82052380D01*
X163047619Y-82099999D01*
X163000000Y-82147618D01*
X162952381Y-82242856D01*
X162952381Y-82433333D01*
X163000000Y-82528571D01*
X163047619Y-82576190D01*
X163142857Y-82623809D01*
X163380952Y-82623809D01*
X163476190Y-82576190D01*
X163523810Y-82528571D01*
X163571429Y-82433333D01*
X163571429Y-82242856D01*
X163523810Y-82147618D01*
X163476190Y-82099999D01*
X163380952Y-82052380D01*
X163857143Y-81623809D02*
X163904762Y-81576190D01*
X163952381Y-81623809D01*
X163904762Y-81671428D01*
X163857143Y-81623809D01*
X163952381Y-81623809D01*
X163952381Y-81100000D02*
X163952381Y-80909524D01*
X163904762Y-80814285D01*
X163857143Y-80766666D01*
X163714286Y-80671428D01*
X163523810Y-80623809D01*
X163142857Y-80623809D01*
X163047619Y-80671428D01*
X163000000Y-80719047D01*
X162952381Y-80814285D01*
X162952381Y-81004762D01*
X163000000Y-81100000D01*
X163047619Y-81147619D01*
X163142857Y-81195238D01*
X163380952Y-81195238D01*
X163476190Y-81147619D01*
X163523810Y-81100000D01*
X163571429Y-81004762D01*
X163571429Y-80814285D01*
X163523810Y-80719047D01*
X163476190Y-80671428D01*
X163380952Y-80623809D01*
X163952381Y-80195238D02*
X162952381Y-80195238D01*
X163952381Y-79623809D02*
X163380952Y-80052381D01*
X162952381Y-79623809D02*
X163523810Y-80195238D01*
X161395239Y-79752381D02*
X160823810Y-79752381D01*
X161109524Y-79752381D02*
X161109524Y-78752381D01*
X161014286Y-78895238D01*
X160919048Y-78990476D01*
X160823810Y-79038095D01*
X162300001Y-78752381D02*
X161823810Y-78752381D01*
X161776191Y-79228571D01*
X161823810Y-79180952D01*
X161919048Y-79133333D01*
X162157144Y-79133333D01*
X162252382Y-79180952D01*
X162300001Y-79228571D01*
X162347620Y-79323810D01*
X162347620Y-79561905D01*
X162300001Y-79657143D01*
X162252382Y-79704762D01*
X162157144Y-79752381D01*
X161919048Y-79752381D01*
X161823810Y-79704762D01*
X161776191Y-79657143D01*
X162776191Y-79657143D02*
X162823810Y-79704762D01*
X162776191Y-79752381D01*
X162728572Y-79704762D01*
X162776191Y-79657143D01*
X162776191Y-79752381D01*
X163395238Y-79180952D02*
X163300000Y-79133333D01*
X163252381Y-79085714D01*
X163204762Y-78990476D01*
X163204762Y-78942857D01*
X163252381Y-78847619D01*
X163300000Y-78800000D01*
X163395238Y-78752381D01*
X163585715Y-78752381D01*
X163680953Y-78800000D01*
X163728572Y-78847619D01*
X163776191Y-78942857D01*
X163776191Y-78990476D01*
X163728572Y-79085714D01*
X163680953Y-79133333D01*
X163585715Y-79180952D01*
X163395238Y-79180952D01*
X163300000Y-79228571D01*
X163252381Y-79276190D01*
X163204762Y-79371429D01*
X163204762Y-79561905D01*
X163252381Y-79657143D01*
X163300000Y-79704762D01*
X163395238Y-79752381D01*
X163585715Y-79752381D01*
X163680953Y-79704762D01*
X163728572Y-79657143D01*
X163776191Y-79561905D01*
X163776191Y-79371429D01*
X163728572Y-79276190D01*
X163680953Y-79228571D01*
X163585715Y-79180952D01*
X164204762Y-79752381D02*
X164204762Y-78752381D01*
X164776191Y-79752381D02*
X164347619Y-79180952D01*
X164776191Y-78752381D02*
X164204762Y-79323810D01*
X147352381Y-93285714D02*
X147352381Y-93857143D01*
X147352381Y-93571429D02*
X146352381Y-93571429D01*
X146495238Y-93666667D01*
X146590476Y-93761905D01*
X146638095Y-93857143D01*
X147352381Y-92857143D02*
X146352381Y-92857143D01*
X147066667Y-92523809D01*
X146352381Y-92190476D01*
X147352381Y-92190476D01*
X161842381Y-90530476D02*
X161842381Y-91101905D01*
X161842381Y-90816191D02*
X160842381Y-90816191D01*
X160985238Y-90911429D01*
X161080476Y-91006667D01*
X161128095Y-91101905D01*
X160842381Y-89911429D02*
X160842381Y-89816190D01*
X160890000Y-89720952D01*
X160937619Y-89673333D01*
X161032857Y-89625714D01*
X161223333Y-89578095D01*
X161461429Y-89578095D01*
X161651905Y-89625714D01*
X161747143Y-89673333D01*
X161794762Y-89720952D01*
X161842381Y-89816190D01*
X161842381Y-89911429D01*
X161794762Y-90006667D01*
X161747143Y-90054286D01*
X161651905Y-90101905D01*
X161461429Y-90149524D01*
X161223333Y-90149524D01*
X161032857Y-90101905D01*
X160937619Y-90054286D01*
X160890000Y-90006667D01*
X160842381Y-89911429D01*
X161842381Y-89149524D02*
X160842381Y-89149524D01*
X161842381Y-88578095D02*
X161270952Y-89006667D01*
X160842381Y-88578095D02*
X161413810Y-89149524D01*
X182709524Y-84752381D02*
X182138095Y-84752381D01*
X182423809Y-84752381D02*
X182423809Y-83752381D01*
X182328571Y-83895238D01*
X182233333Y-83990476D01*
X182138095Y-84038095D01*
X183328571Y-83752381D02*
X183423810Y-83752381D01*
X183519048Y-83800000D01*
X183566667Y-83847619D01*
X183614286Y-83942857D01*
X183661905Y-84133333D01*
X183661905Y-84371429D01*
X183614286Y-84561905D01*
X183566667Y-84657143D01*
X183519048Y-84704762D01*
X183423810Y-84752381D01*
X183328571Y-84752381D01*
X183233333Y-84704762D01*
X183185714Y-84657143D01*
X183138095Y-84561905D01*
X183090476Y-84371429D01*
X183090476Y-84133333D01*
X183138095Y-83942857D01*
X183185714Y-83847619D01*
X183233333Y-83800000D01*
X183328571Y-83752381D01*
X184090476Y-84752381D02*
X184090476Y-83752381D01*
X184661905Y-84752381D02*
X184233333Y-84180952D01*
X184661905Y-83752381D02*
X184090476Y-84323810D01*
X154802381Y-83714285D02*
X154802381Y-84285714D01*
X154802381Y-84000000D02*
X153802381Y-84000000D01*
X153945238Y-84095238D01*
X154040476Y-84190476D01*
X154088095Y-84285714D01*
X154802381Y-83285714D02*
X153802381Y-83285714D01*
X154802381Y-82714285D02*
X154230952Y-83142857D01*
X153802381Y-82714285D02*
X154373810Y-83285714D01*
X157052381Y-83714285D02*
X157052381Y-84285714D01*
X157052381Y-84000000D02*
X156052381Y-84000000D01*
X156195238Y-84095238D01*
X156290476Y-84190476D01*
X156338095Y-84285714D01*
X157052381Y-83285714D02*
X156052381Y-83285714D01*
X157052381Y-82714285D02*
X156480952Y-83142857D01*
X156052381Y-82714285D02*
X156623810Y-83285714D01*
X183936191Y-86157143D02*
X183888572Y-86204762D01*
X183745715Y-86252381D01*
X183650477Y-86252381D01*
X183507619Y-86204762D01*
X183412381Y-86109524D01*
X183364762Y-86014286D01*
X183317143Y-85823810D01*
X183317143Y-85680952D01*
X183364762Y-85490476D01*
X183412381Y-85395238D01*
X183507619Y-85300000D01*
X183650477Y-85252381D01*
X183745715Y-85252381D01*
X183888572Y-85300000D01*
X183936191Y-85347619D01*
X184555238Y-85252381D02*
X184745715Y-85252381D01*
X184840953Y-85300000D01*
X184936191Y-85395238D01*
X184983810Y-85585714D01*
X184983810Y-85919048D01*
X184936191Y-86109524D01*
X184840953Y-86204762D01*
X184745715Y-86252381D01*
X184555238Y-86252381D01*
X184460000Y-86204762D01*
X184364762Y-86109524D01*
X184317143Y-85919048D01*
X184317143Y-85585714D01*
X184364762Y-85395238D01*
X184460000Y-85300000D01*
X184555238Y-85252381D01*
X185412381Y-86252381D02*
X185412381Y-85252381D01*
X185983810Y-86252381D01*
X185983810Y-85252381D01*
X186460000Y-86252381D02*
X186460000Y-85252381D01*
X187031429Y-86252381D01*
X187031429Y-85252381D01*
X187269524Y-86347619D02*
X188031429Y-86347619D01*
X188460000Y-85252381D02*
X188555239Y-85252381D01*
X188650477Y-85300000D01*
X188698096Y-85347619D01*
X188745715Y-85442857D01*
X188793334Y-85633333D01*
X188793334Y-85871429D01*
X188745715Y-86061905D01*
X188698096Y-86157143D01*
X188650477Y-86204762D01*
X188555239Y-86252381D01*
X188460000Y-86252381D01*
X188364762Y-86204762D01*
X188317143Y-86157143D01*
X188269524Y-86061905D01*
X188221905Y-85871429D01*
X188221905Y-85633333D01*
X188269524Y-85442857D01*
X188317143Y-85347619D01*
X188364762Y-85300000D01*
X188460000Y-85252381D01*
X189745715Y-86252381D02*
X189174286Y-86252381D01*
X189460000Y-86252381D02*
X189460000Y-85252381D01*
X189364762Y-85395238D01*
X189269524Y-85490476D01*
X189174286Y-85538095D01*
X190079048Y-85252381D02*
X190745715Y-86252381D01*
X190745715Y-85252381D02*
X190079048Y-86252381D01*
X191650477Y-86252381D02*
X191079048Y-86252381D01*
X191364762Y-86252381D02*
X191364762Y-85252381D01*
X191269524Y-85395238D01*
X191174286Y-85490476D01*
X191079048Y-85538095D01*
X192269524Y-85252381D02*
X192364763Y-85252381D01*
X192460001Y-85300000D01*
X192507620Y-85347619D01*
X192555239Y-85442857D01*
X192602858Y-85633333D01*
X192602858Y-85871429D01*
X192555239Y-86061905D01*
X192507620Y-86157143D01*
X192460001Y-86204762D01*
X192364763Y-86252381D01*
X192269524Y-86252381D01*
X192174286Y-86204762D01*
X192126667Y-86157143D01*
X192079048Y-86061905D01*
X192031429Y-85871429D01*
X192031429Y-85633333D01*
X192079048Y-85442857D01*
X192126667Y-85347619D01*
X192174286Y-85300000D01*
X192269524Y-85252381D01*
X148371429Y-75102381D02*
X147895238Y-75102381D01*
X147895238Y-74102381D01*
X148704762Y-75102381D02*
X148704762Y-74102381D01*
X149085715Y-74102381D01*
X149180953Y-74150000D01*
X149228572Y-74197619D01*
X149276191Y-74292857D01*
X149276191Y-74435714D01*
X149228572Y-74530952D01*
X149180953Y-74578571D01*
X149085715Y-74626190D01*
X148704762Y-74626190D01*
X149657143Y-74197619D02*
X149704762Y-74150000D01*
X149800000Y-74102381D01*
X150038096Y-74102381D01*
X150133334Y-74150000D01*
X150180953Y-74197619D01*
X150228572Y-74292857D01*
X150228572Y-74388095D01*
X150180953Y-74530952D01*
X149609524Y-75102381D01*
X150228572Y-75102381D01*
X150704762Y-75102381D02*
X150895238Y-75102381D01*
X150990477Y-75054762D01*
X151038096Y-75007143D01*
X151133334Y-74864286D01*
X151180953Y-74673810D01*
X151180953Y-74292857D01*
X151133334Y-74197619D01*
X151085715Y-74150000D01*
X150990477Y-74102381D01*
X150800000Y-74102381D01*
X150704762Y-74150000D01*
X150657143Y-74197619D01*
X150609524Y-74292857D01*
X150609524Y-74530952D01*
X150657143Y-74626190D01*
X150704762Y-74673810D01*
X150800000Y-74721429D01*
X150990477Y-74721429D01*
X151085715Y-74673810D01*
X151133334Y-74626190D01*
X151180953Y-74530952D01*
X151752381Y-74530952D02*
X151657143Y-74483333D01*
X151609524Y-74435714D01*
X151561905Y-74340476D01*
X151561905Y-74292857D01*
X151609524Y-74197619D01*
X151657143Y-74150000D01*
X151752381Y-74102381D01*
X151942858Y-74102381D01*
X152038096Y-74150000D01*
X152085715Y-74197619D01*
X152133334Y-74292857D01*
X152133334Y-74340476D01*
X152085715Y-74435714D01*
X152038096Y-74483333D01*
X151942858Y-74530952D01*
X151752381Y-74530952D01*
X151657143Y-74578571D01*
X151609524Y-74626190D01*
X151561905Y-74721429D01*
X151561905Y-74911905D01*
X151609524Y-75007143D01*
X151657143Y-75054762D01*
X151752381Y-75102381D01*
X151942858Y-75102381D01*
X152038096Y-75054762D01*
X152085715Y-75007143D01*
X152133334Y-74911905D01*
X152133334Y-74721429D01*
X152085715Y-74626190D01*
X152038096Y-74578571D01*
X151942858Y-74530952D01*
X153038096Y-74102381D02*
X152561905Y-74102381D01*
X152514286Y-74578571D01*
X152561905Y-74530952D01*
X152657143Y-74483333D01*
X152895239Y-74483333D01*
X152990477Y-74530952D01*
X153038096Y-74578571D01*
X153085715Y-74673810D01*
X153085715Y-74911905D01*
X153038096Y-75007143D01*
X152990477Y-75054762D01*
X152895239Y-75102381D01*
X152657143Y-75102381D01*
X152561905Y-75054762D01*
X152514286Y-75007143D01*
X153990477Y-75102381D02*
X153514286Y-75102381D01*
X153514286Y-74102381D01*
X154180953Y-74102381D02*
X154514286Y-75102381D01*
X154847620Y-74102381D01*
X145248381Y-94261904D02*
X145248381Y-94833333D01*
X145248381Y-94547619D02*
X144248381Y-94547619D01*
X144391238Y-94642857D01*
X144486476Y-94738095D01*
X144534095Y-94833333D01*
X144248381Y-93404761D02*
X144248381Y-93595238D01*
X144296000Y-93690476D01*
X144343619Y-93738095D01*
X144486476Y-93833333D01*
X144676952Y-93880952D01*
X145057905Y-93880952D01*
X145153143Y-93833333D01*
X145200762Y-93785714D01*
X145248381Y-93690476D01*
X145248381Y-93499999D01*
X145200762Y-93404761D01*
X145153143Y-93357142D01*
X145057905Y-93309523D01*
X144819810Y-93309523D01*
X144724571Y-93357142D01*
X144676952Y-93404761D01*
X144629333Y-93499999D01*
X144629333Y-93690476D01*
X144676952Y-93785714D01*
X144724571Y-93833333D01*
X144819810Y-93880952D01*
X145248381Y-92880952D02*
X144248381Y-92880952D01*
X144962667Y-92547618D01*
X144248381Y-92214285D01*
X145248381Y-92214285D01*
X145248381Y-91738095D02*
X144248381Y-91738095D01*
X144724571Y-91738095D02*
X144724571Y-91166666D01*
X145248381Y-91166666D02*
X144248381Y-91166666D01*
X144248381Y-90785714D02*
X144248381Y-90119047D01*
X145248381Y-90785714D01*
X145248381Y-90119047D01*
X148616667Y-104297619D02*
X148616667Y-103821428D01*
X148902381Y-104392857D02*
X147902381Y-104059524D01*
X148902381Y-103726190D01*
X147902381Y-103535714D02*
X147902381Y-102964285D01*
X148902381Y-103250000D02*
X147902381Y-103250000D01*
X148902381Y-102630952D02*
X147902381Y-102630952D01*
X148616667Y-102297618D01*
X147902381Y-101964285D01*
X148902381Y-101964285D01*
X148378571Y-101488095D02*
X148378571Y-101154761D01*
X148902381Y-101011904D02*
X148902381Y-101488095D01*
X147902381Y-101488095D01*
X147902381Y-101011904D01*
X147950000Y-100059523D02*
X147902381Y-100154761D01*
X147902381Y-100297618D01*
X147950000Y-100440476D01*
X148045238Y-100535714D01*
X148140476Y-100583333D01*
X148330952Y-100630952D01*
X148473810Y-100630952D01*
X148664286Y-100583333D01*
X148759524Y-100535714D01*
X148854762Y-100440476D01*
X148902381Y-100297618D01*
X148902381Y-100202380D01*
X148854762Y-100059523D01*
X148807143Y-100011904D01*
X148473810Y-100011904D01*
X148473810Y-100202380D01*
X148616667Y-99630952D02*
X148616667Y-99154761D01*
X148902381Y-99726190D02*
X147902381Y-99392857D01*
X148902381Y-99059523D01*
X147902381Y-98821428D02*
X147902381Y-98202380D01*
X148283333Y-98535714D01*
X148283333Y-98392856D01*
X148330952Y-98297618D01*
X148378571Y-98249999D01*
X148473810Y-98202380D01*
X148711905Y-98202380D01*
X148807143Y-98249999D01*
X148854762Y-98297618D01*
X148902381Y-98392856D01*
X148902381Y-98678571D01*
X148854762Y-98773809D01*
X148807143Y-98821428D01*
X147997619Y-97821428D02*
X147950000Y-97773809D01*
X147902381Y-97678571D01*
X147902381Y-97440475D01*
X147950000Y-97345237D01*
X147997619Y-97297618D01*
X148092857Y-97249999D01*
X148188095Y-97249999D01*
X148330952Y-97297618D01*
X148902381Y-97869047D01*
X148902381Y-97249999D01*
X148330952Y-96678571D02*
X148283333Y-96773809D01*
X148235714Y-96821428D01*
X148140476Y-96869047D01*
X148092857Y-96869047D01*
X147997619Y-96821428D01*
X147950000Y-96773809D01*
X147902381Y-96678571D01*
X147902381Y-96488094D01*
X147950000Y-96392856D01*
X147997619Y-96345237D01*
X148092857Y-96297618D01*
X148140476Y-96297618D01*
X148235714Y-96345237D01*
X148283333Y-96392856D01*
X148330952Y-96488094D01*
X148330952Y-96678571D01*
X148378571Y-96773809D01*
X148426190Y-96821428D01*
X148521429Y-96869047D01*
X148711905Y-96869047D01*
X148807143Y-96821428D01*
X148854762Y-96773809D01*
X148902381Y-96678571D01*
X148902381Y-96488094D01*
X148854762Y-96392856D01*
X148807143Y-96345237D01*
X148711905Y-96297618D01*
X148521429Y-96297618D01*
X148426190Y-96345237D01*
X148378571Y-96392856D01*
X148330952Y-96488094D01*
X148902381Y-95869047D02*
X147902381Y-95869047D01*
X147902381Y-95488094D01*
X147950000Y-95392856D01*
X147997619Y-95345237D01*
X148092857Y-95297618D01*
X148235714Y-95297618D01*
X148330952Y-95345237D01*
X148378571Y-95392856D01*
X148426190Y-95488094D01*
X148426190Y-95869047D01*
X148521429Y-94869047D02*
X148521429Y-94107142D01*
X148616667Y-93678571D02*
X148616667Y-93202380D01*
X148902381Y-93773809D02*
X147902381Y-93440476D01*
X148902381Y-93107142D01*
M02*
