%TF.GenerationSoftware,KiCad,Pcbnew,(after 2015-mar-04 BZR unknown)-product*%
%TF.CreationDate,2015-05-27T15:40:32-04:00*%
%TF.JobID,arduinoquad,61726475696E6F717561642E6B696361,rev?*%
%TF.FileFunction,Legend,Top*%
%FSLAX46Y46*%
G04 Gerber Fmt 4.6, Leading zero omitted, Abs format (unit mm)*
G04 Created by KiCad (PCBNEW (after 2015-mar-04 BZR unknown)-product) date 27/05/2015 3:40:32 PM*
%MOMM*%
G01*
G04 APERTURE LIST*
%ADD10C,0.100000*%
%ADD11C,0.125000*%
%ADD12C,0.300000*%
%ADD13C,0.250000*%
%ADD14C,0.175000*%
%ADD15C,0.200000*%
%ADD16C,0.150000*%
G04 APERTURE END LIST*
D10*
D11*
X194940477Y-96726190D02*
X194940477Y-96226190D01*
X195226191Y-96726190D01*
X195226191Y-96226190D01*
X195535715Y-96726190D02*
X195488096Y-96702381D01*
X195464287Y-96678571D01*
X195440477Y-96630952D01*
X195440477Y-96488095D01*
X195464287Y-96440476D01*
X195488096Y-96416667D01*
X195535715Y-96392857D01*
X195607144Y-96392857D01*
X195654763Y-96416667D01*
X195678572Y-96440476D01*
X195702382Y-96488095D01*
X195702382Y-96630952D01*
X195678572Y-96678571D01*
X195654763Y-96702381D01*
X195607144Y-96726190D01*
X195535715Y-96726190D01*
X196583334Y-96678571D02*
X196559524Y-96702381D01*
X196488096Y-96726190D01*
X196440477Y-96726190D01*
X196369048Y-96702381D01*
X196321429Y-96654762D01*
X196297620Y-96607143D01*
X196273810Y-96511905D01*
X196273810Y-96440476D01*
X196297620Y-96345238D01*
X196321429Y-96297619D01*
X196369048Y-96250000D01*
X196440477Y-96226190D01*
X196488096Y-96226190D01*
X196559524Y-96250000D01*
X196583334Y-96273810D01*
X196869048Y-96726190D02*
X196821429Y-96702381D01*
X196797620Y-96678571D01*
X196773810Y-96630952D01*
X196773810Y-96488095D01*
X196797620Y-96440476D01*
X196821429Y-96416667D01*
X196869048Y-96392857D01*
X196940477Y-96392857D01*
X196988096Y-96416667D01*
X197011905Y-96440476D01*
X197035715Y-96488095D01*
X197035715Y-96630952D01*
X197011905Y-96678571D01*
X196988096Y-96702381D01*
X196940477Y-96726190D01*
X196869048Y-96726190D01*
X197250001Y-96392857D02*
X197250001Y-96726190D01*
X197250001Y-96440476D02*
X197273810Y-96416667D01*
X197321429Y-96392857D01*
X197392858Y-96392857D01*
X197440477Y-96416667D01*
X197464286Y-96464286D01*
X197464286Y-96726190D01*
X197702382Y-96392857D02*
X197702382Y-96726190D01*
X197702382Y-96440476D02*
X197726191Y-96416667D01*
X197773810Y-96392857D01*
X197845239Y-96392857D01*
X197892858Y-96416667D01*
X197916667Y-96464286D01*
X197916667Y-96726190D01*
X198345239Y-96702381D02*
X198297620Y-96726190D01*
X198202382Y-96726190D01*
X198154763Y-96702381D01*
X198130953Y-96654762D01*
X198130953Y-96464286D01*
X198154763Y-96416667D01*
X198202382Y-96392857D01*
X198297620Y-96392857D01*
X198345239Y-96416667D01*
X198369048Y-96464286D01*
X198369048Y-96511905D01*
X198130953Y-96559524D01*
X198797619Y-96702381D02*
X198750000Y-96726190D01*
X198654762Y-96726190D01*
X198607143Y-96702381D01*
X198583334Y-96678571D01*
X198559524Y-96630952D01*
X198559524Y-96488095D01*
X198583334Y-96440476D01*
X198607143Y-96416667D01*
X198654762Y-96392857D01*
X198750000Y-96392857D01*
X198797619Y-96416667D01*
X198940476Y-96392857D02*
X199130952Y-96392857D01*
X199011905Y-96226190D02*
X199011905Y-96654762D01*
X199035714Y-96702381D01*
X199083333Y-96726190D01*
X199130952Y-96726190D01*
D12*
X195635714Y-93250000D02*
X195492857Y-93178571D01*
X195278571Y-93178571D01*
X195064286Y-93250000D01*
X194921428Y-93392857D01*
X194850000Y-93535714D01*
X194778571Y-93821429D01*
X194778571Y-94035714D01*
X194850000Y-94321429D01*
X194921428Y-94464286D01*
X195064286Y-94607143D01*
X195278571Y-94678571D01*
X195421428Y-94678571D01*
X195635714Y-94607143D01*
X195707143Y-94535714D01*
X195707143Y-94035714D01*
X195421428Y-94035714D01*
X196350000Y-93678571D02*
X196350000Y-94678571D01*
X196350000Y-93821429D02*
X196421428Y-93750000D01*
X196564286Y-93678571D01*
X196778571Y-93678571D01*
X196921428Y-93750000D01*
X196992857Y-93892857D01*
X196992857Y-94678571D01*
X198350000Y-94678571D02*
X198350000Y-93178571D01*
X198350000Y-94607143D02*
X198207143Y-94678571D01*
X197921429Y-94678571D01*
X197778571Y-94607143D01*
X197707143Y-94535714D01*
X197635714Y-94392857D01*
X197635714Y-93964286D01*
X197707143Y-93821429D01*
X197778571Y-93750000D01*
X197921429Y-93678571D01*
X198207143Y-93678571D01*
X198350000Y-93750000D01*
X195542858Y-107478571D02*
X195042858Y-106764286D01*
X194685715Y-107478571D02*
X194685715Y-105978571D01*
X195257143Y-105978571D01*
X195400001Y-106050000D01*
X195471429Y-106121429D01*
X195542858Y-106264286D01*
X195542858Y-106478571D01*
X195471429Y-106621429D01*
X195400001Y-106692857D01*
X195257143Y-106764286D01*
X194685715Y-106764286D01*
X196757143Y-107407143D02*
X196614286Y-107478571D01*
X196328572Y-107478571D01*
X196185715Y-107407143D01*
X196114286Y-107264286D01*
X196114286Y-106692857D01*
X196185715Y-106550000D01*
X196328572Y-106478571D01*
X196614286Y-106478571D01*
X196757143Y-106550000D01*
X196828572Y-106692857D01*
X196828572Y-106835714D01*
X196114286Y-106978571D01*
X197400000Y-107407143D02*
X197542857Y-107478571D01*
X197828572Y-107478571D01*
X197971429Y-107407143D01*
X198042857Y-107264286D01*
X198042857Y-107192857D01*
X197971429Y-107050000D01*
X197828572Y-106978571D01*
X197614286Y-106978571D01*
X197471429Y-106907143D01*
X197400000Y-106764286D01*
X197400000Y-106692857D01*
X197471429Y-106550000D01*
X197614286Y-106478571D01*
X197828572Y-106478571D01*
X197971429Y-106550000D01*
X199257143Y-107407143D02*
X199114286Y-107478571D01*
X198828572Y-107478571D01*
X198685715Y-107407143D01*
X198614286Y-107264286D01*
X198614286Y-106692857D01*
X198685715Y-106550000D01*
X198828572Y-106478571D01*
X199114286Y-106478571D01*
X199257143Y-106550000D01*
X199328572Y-106692857D01*
X199328572Y-106835714D01*
X198614286Y-106978571D01*
X199757143Y-106478571D02*
X200328572Y-106478571D01*
X199971429Y-105978571D02*
X199971429Y-107264286D01*
X200042857Y-107407143D01*
X200185715Y-107478571D01*
X200328572Y-107478571D01*
D13*
X194690476Y-99071429D02*
X195452381Y-99071429D01*
X195071429Y-99452381D02*
X195071429Y-98690476D01*
X196404762Y-98452381D02*
X195928571Y-98452381D01*
X195880952Y-98928571D01*
X195928571Y-98880952D01*
X196023809Y-98833333D01*
X196261905Y-98833333D01*
X196357143Y-98880952D01*
X196404762Y-98928571D01*
X196452381Y-99023810D01*
X196452381Y-99261905D01*
X196404762Y-99357143D01*
X196357143Y-99404762D01*
X196261905Y-99452381D01*
X196023809Y-99452381D01*
X195928571Y-99404762D01*
X195880952Y-99357143D01*
X196785714Y-98785714D02*
X197023809Y-99452381D01*
X197261905Y-98785714D01*
X198404762Y-99452381D02*
X198404762Y-98452381D01*
X198880952Y-98785714D02*
X198880952Y-99452381D01*
X198880952Y-98880952D02*
X198928571Y-98833333D01*
X199023809Y-98785714D01*
X199166667Y-98785714D01*
X199261905Y-98833333D01*
X199309524Y-98928571D01*
X199309524Y-99452381D01*
X195338096Y-102052381D02*
X195004762Y-101576190D01*
X194766667Y-102052381D02*
X194766667Y-101052381D01*
X195147620Y-101052381D01*
X195242858Y-101100000D01*
X195290477Y-101147619D01*
X195338096Y-101242857D01*
X195338096Y-101385714D01*
X195290477Y-101480952D01*
X195242858Y-101528571D01*
X195147620Y-101576190D01*
X194766667Y-101576190D01*
X195671429Y-101052381D02*
X196338096Y-102052381D01*
X196338096Y-101052381D02*
X195671429Y-102052381D01*
X197480953Y-101385714D02*
X196719048Y-101671429D01*
X197480953Y-101957143D01*
X198147619Y-101052381D02*
X198242858Y-101052381D01*
X198338096Y-101100000D01*
X198385715Y-101147619D01*
X198433334Y-101242857D01*
X198480953Y-101433333D01*
X198480953Y-101671429D01*
X198433334Y-101861905D01*
X198385715Y-101957143D01*
X198338096Y-102004762D01*
X198242858Y-102052381D01*
X198147619Y-102052381D01*
X198052381Y-102004762D01*
X198004762Y-101957143D01*
X197957143Y-101861905D01*
X197909524Y-101671429D01*
X197909524Y-101433333D01*
X197957143Y-101242857D01*
X198004762Y-101147619D01*
X198052381Y-101100000D01*
X198147619Y-101052381D01*
X194742857Y-103652381D02*
X195314286Y-103652381D01*
X195028571Y-104652381D02*
X195028571Y-103652381D01*
X195552381Y-103652381D02*
X196219048Y-104652381D01*
X196219048Y-103652381D02*
X195552381Y-104652381D01*
X196600000Y-103985714D02*
X197361905Y-104271429D01*
X196600000Y-104557143D01*
X198361905Y-104652381D02*
X197790476Y-104652381D01*
X198076190Y-104652381D02*
X198076190Y-103652381D01*
X197980952Y-103795238D01*
X197885714Y-103890476D01*
X197790476Y-103938095D01*
X181023810Y-114452381D02*
X180452381Y-114452381D01*
X180738095Y-114452381D02*
X180738095Y-113452381D01*
X180642857Y-113595238D01*
X180547619Y-113690476D01*
X180452381Y-113738095D01*
X181642857Y-113452381D02*
X181738096Y-113452381D01*
X181833334Y-113500000D01*
X181880953Y-113547619D01*
X181928572Y-113642857D01*
X181976191Y-113833333D01*
X181976191Y-114071429D01*
X181928572Y-114261905D01*
X181880953Y-114357143D01*
X181833334Y-114404762D01*
X181738096Y-114452381D01*
X181642857Y-114452381D01*
X181547619Y-114404762D01*
X181500000Y-114357143D01*
X181452381Y-114261905D01*
X181404762Y-114071429D01*
X181404762Y-113833333D01*
X181452381Y-113642857D01*
X181500000Y-113547619D01*
X181547619Y-113500000D01*
X181642857Y-113452381D01*
X182404762Y-114071429D02*
X183166667Y-114071429D01*
X183642857Y-114452381D02*
X183642857Y-113452381D01*
X183880952Y-113452381D01*
X184023810Y-113500000D01*
X184119048Y-113595238D01*
X184166667Y-113690476D01*
X184214286Y-113880952D01*
X184214286Y-114023810D01*
X184166667Y-114214286D01*
X184119048Y-114309524D01*
X184023810Y-114404762D01*
X183880952Y-114452381D01*
X183642857Y-114452381D01*
X184833333Y-113452381D02*
X185023810Y-113452381D01*
X185119048Y-113500000D01*
X185214286Y-113595238D01*
X185261905Y-113785714D01*
X185261905Y-114119048D01*
X185214286Y-114309524D01*
X185119048Y-114404762D01*
X185023810Y-114452381D01*
X184833333Y-114452381D01*
X184738095Y-114404762D01*
X184642857Y-114309524D01*
X184595238Y-114119048D01*
X184595238Y-113785714D01*
X184642857Y-113595238D01*
X184738095Y-113500000D01*
X184833333Y-113452381D01*
X186023810Y-113928571D02*
X185690476Y-113928571D01*
X185690476Y-114452381D02*
X185690476Y-113452381D01*
X186166667Y-113452381D01*
X187309524Y-114452381D02*
X187309524Y-113452381D01*
X187785714Y-114452381D02*
X187785714Y-113452381D01*
X188119048Y-114166667D01*
X188452381Y-113452381D01*
X188452381Y-114452381D01*
X188928571Y-113452381D02*
X188928571Y-114261905D01*
X188976190Y-114357143D01*
X189023809Y-114404762D01*
X189119047Y-114452381D01*
X189309524Y-114452381D01*
X189404762Y-114404762D01*
X189452381Y-114357143D01*
X189500000Y-114261905D01*
X189500000Y-113452381D01*
D12*
X138625000Y-83742857D02*
X139482143Y-83742857D01*
X139032144Y-83228571D02*
X138496428Y-84771429D01*
X139303572Y-84257143D02*
X138446429Y-84257143D01*
X138896428Y-84771429D02*
X139432144Y-83228571D01*
X139817858Y-83342857D02*
X140467858Y-84542857D01*
X140617858Y-83342857D02*
X139667858Y-84542857D01*
X141003571Y-83914286D02*
X141917857Y-83914286D01*
X141875000Y-84257143D02*
X140960714Y-84257143D01*
X142410714Y-84542857D02*
X142560714Y-83342857D01*
X143017857Y-83342857D01*
X143125000Y-83400000D01*
X143175000Y-83457143D01*
X143217857Y-83571429D01*
X143196429Y-83742857D01*
X143125000Y-83857143D01*
X143060714Y-83914286D01*
X142939285Y-83971429D01*
X142482142Y-83971429D01*
X143646429Y-83342857D02*
X143782143Y-84542857D01*
X144117857Y-83685714D01*
X144239286Y-84542857D01*
X144675000Y-83342857D01*
X144982143Y-84542857D02*
X145132143Y-83342857D01*
X145425000Y-84200000D01*
X145932143Y-83342857D01*
X145782143Y-84542857D01*
X156801429Y-111934571D02*
X156730000Y-111863142D01*
X156658571Y-111720285D01*
X156658571Y-111363142D01*
X156730000Y-111220285D01*
X156801429Y-111148856D01*
X156944286Y-111077428D01*
X157087143Y-111077428D01*
X157301429Y-111148856D01*
X158158571Y-112005999D01*
X158158571Y-111077428D01*
X174490286Y-97127143D02*
X174704572Y-97198571D01*
X175061715Y-97198571D01*
X175204572Y-97127143D01*
X175276001Y-97055714D01*
X175347429Y-96912857D01*
X175347429Y-96770000D01*
X175276001Y-96627143D01*
X175204572Y-96555714D01*
X175061715Y-96484286D01*
X174776001Y-96412857D01*
X174633143Y-96341429D01*
X174561715Y-96270000D01*
X174490286Y-96127143D01*
X174490286Y-95984286D01*
X174561715Y-95841429D01*
X174633143Y-95770000D01*
X174776001Y-95698571D01*
X175133143Y-95698571D01*
X175347429Y-95770000D01*
X176847429Y-97055714D02*
X176776000Y-97127143D01*
X176561714Y-97198571D01*
X176418857Y-97198571D01*
X176204572Y-97127143D01*
X176061714Y-96984286D01*
X175990286Y-96841429D01*
X175918857Y-96555714D01*
X175918857Y-96341429D01*
X175990286Y-96055714D01*
X176061714Y-95912857D01*
X176204572Y-95770000D01*
X176418857Y-95698571D01*
X176561714Y-95698571D01*
X176776000Y-95770000D01*
X176847429Y-95841429D01*
X178204572Y-97198571D02*
X177490286Y-97198571D01*
X177490286Y-95698571D01*
X174454572Y-99413143D02*
X174668858Y-99484571D01*
X175026001Y-99484571D01*
X175168858Y-99413143D01*
X175240287Y-99341714D01*
X175311715Y-99198857D01*
X175311715Y-99056000D01*
X175240287Y-98913143D01*
X175168858Y-98841714D01*
X175026001Y-98770286D01*
X174740287Y-98698857D01*
X174597429Y-98627429D01*
X174526001Y-98556000D01*
X174454572Y-98413143D01*
X174454572Y-98270286D01*
X174526001Y-98127429D01*
X174597429Y-98056000D01*
X174740287Y-97984571D01*
X175097429Y-97984571D01*
X175311715Y-98056000D01*
X175954572Y-99484571D02*
X175954572Y-97984571D01*
X176311715Y-97984571D01*
X176526000Y-98056000D01*
X176668858Y-98198857D01*
X176740286Y-98341714D01*
X176811715Y-98627429D01*
X176811715Y-98841714D01*
X176740286Y-99127429D01*
X176668858Y-99270286D01*
X176526000Y-99413143D01*
X176311715Y-99484571D01*
X175954572Y-99484571D01*
X177383143Y-99056000D02*
X178097429Y-99056000D01*
X177240286Y-99484571D02*
X177740286Y-97984571D01*
X178240286Y-99484571D01*
X174093429Y-101961143D02*
X175236286Y-101961143D01*
X174664857Y-102532571D02*
X174664857Y-101389714D01*
X176664858Y-101032571D02*
X175950572Y-101032571D01*
X175879143Y-101746857D01*
X175950572Y-101675429D01*
X176093429Y-101604000D01*
X176450572Y-101604000D01*
X176593429Y-101675429D01*
X176664858Y-101746857D01*
X176736286Y-101889714D01*
X176736286Y-102246857D01*
X176664858Y-102389714D01*
X176593429Y-102461143D01*
X176450572Y-102532571D01*
X176093429Y-102532571D01*
X175950572Y-102461143D01*
X175879143Y-102389714D01*
X177164857Y-101032571D02*
X177664857Y-102532571D01*
X178164857Y-101032571D01*
X175387143Y-103644000D02*
X175244286Y-103572571D01*
X175030000Y-103572571D01*
X174815715Y-103644000D01*
X174672857Y-103786857D01*
X174601429Y-103929714D01*
X174530000Y-104215429D01*
X174530000Y-104429714D01*
X174601429Y-104715429D01*
X174672857Y-104858286D01*
X174815715Y-105001143D01*
X175030000Y-105072571D01*
X175172857Y-105072571D01*
X175387143Y-105001143D01*
X175458572Y-104929714D01*
X175458572Y-104429714D01*
X175172857Y-104429714D01*
X176101429Y-105072571D02*
X176101429Y-103572571D01*
X176958572Y-105072571D01*
X176958572Y-103572571D01*
X177672858Y-105072571D02*
X177672858Y-103572571D01*
X178030001Y-103572571D01*
X178244286Y-103644000D01*
X178387144Y-103786857D01*
X178458572Y-103929714D01*
X178530001Y-104215429D01*
X178530001Y-104429714D01*
X178458572Y-104715429D01*
X178387144Y-104858286D01*
X178244286Y-105001143D01*
X178030001Y-105072571D01*
X177672858Y-105072571D01*
X183042857Y-99485714D02*
X183214286Y-99542857D01*
X183500000Y-99542857D01*
X183614286Y-99485714D01*
X183671429Y-99428571D01*
X183728572Y-99314286D01*
X183728572Y-99200000D01*
X183671429Y-99085714D01*
X183614286Y-99028571D01*
X183500000Y-98971429D01*
X183271429Y-98914286D01*
X183157143Y-98857143D01*
X183100000Y-98800000D01*
X183042857Y-98685714D01*
X183042857Y-98571429D01*
X183100000Y-98457143D01*
X183157143Y-98400000D01*
X183271429Y-98342857D01*
X183557143Y-98342857D01*
X183728572Y-98400000D01*
X184242857Y-99542857D02*
X184242857Y-98342857D01*
X184528572Y-98342857D01*
X184700000Y-98400000D01*
X184814286Y-98514286D01*
X184871429Y-98628571D01*
X184928572Y-98857143D01*
X184928572Y-99028571D01*
X184871429Y-99257143D01*
X184814286Y-99371429D01*
X184700000Y-99485714D01*
X184528572Y-99542857D01*
X184242857Y-99542857D01*
X185385714Y-99200000D02*
X185957143Y-99200000D01*
X185271429Y-99542857D02*
X185671429Y-98342857D01*
X186071429Y-99542857D01*
X183071428Y-97107143D02*
X183242857Y-97178571D01*
X183528571Y-97178571D01*
X183642857Y-97107143D01*
X183700000Y-97035714D01*
X183757143Y-96892857D01*
X183757143Y-96750000D01*
X183700000Y-96607143D01*
X183642857Y-96535714D01*
X183528571Y-96464286D01*
X183300000Y-96392857D01*
X183185714Y-96321429D01*
X183128571Y-96250000D01*
X183071428Y-96107143D01*
X183071428Y-95964286D01*
X183128571Y-95821429D01*
X183185714Y-95750000D01*
X183300000Y-95678571D01*
X183585714Y-95678571D01*
X183757143Y-95750000D01*
X184957143Y-97035714D02*
X184900000Y-97107143D01*
X184728571Y-97178571D01*
X184614285Y-97178571D01*
X184442857Y-97107143D01*
X184328571Y-96964286D01*
X184271428Y-96821429D01*
X184214285Y-96535714D01*
X184214285Y-96321429D01*
X184271428Y-96035714D01*
X184328571Y-95892857D01*
X184442857Y-95750000D01*
X184614285Y-95678571D01*
X184728571Y-95678571D01*
X184900000Y-95750000D01*
X184957143Y-95821429D01*
X186042857Y-97178571D02*
X185471428Y-97178571D01*
X185471428Y-95678571D01*
X183335715Y-93650000D02*
X183221429Y-93592857D01*
X183050000Y-93592857D01*
X182878572Y-93650000D01*
X182764286Y-93764286D01*
X182707143Y-93878571D01*
X182650000Y-94107143D01*
X182650000Y-94278571D01*
X182707143Y-94507143D01*
X182764286Y-94621429D01*
X182878572Y-94735714D01*
X183050000Y-94792857D01*
X183164286Y-94792857D01*
X183335715Y-94735714D01*
X183392858Y-94678571D01*
X183392858Y-94278571D01*
X183164286Y-94278571D01*
X183907143Y-94792857D02*
X183907143Y-93592857D01*
X184592858Y-94792857D01*
X184592858Y-93592857D01*
X185164286Y-94792857D02*
X185164286Y-93592857D01*
X185450001Y-93592857D01*
X185621429Y-93650000D01*
X185735715Y-93764286D01*
X185792858Y-93878571D01*
X185850001Y-94107143D01*
X185850001Y-94278571D01*
X185792858Y-94507143D01*
X185735715Y-94621429D01*
X185621429Y-94735714D01*
X185450001Y-94792857D01*
X185164286Y-94792857D01*
X190271429Y-88707143D02*
X191414286Y-88707143D01*
X190842857Y-89278571D02*
X190842857Y-88135714D01*
X192842858Y-87778571D02*
X192128572Y-87778571D01*
X192057143Y-88492857D01*
X192128572Y-88421429D01*
X192271429Y-88350000D01*
X192628572Y-88350000D01*
X192771429Y-88421429D01*
X192842858Y-88492857D01*
X192914286Y-88635714D01*
X192914286Y-88992857D01*
X192842858Y-89135714D01*
X192771429Y-89207143D01*
X192628572Y-89278571D01*
X192271429Y-89278571D01*
X192128572Y-89207143D01*
X192057143Y-89135714D01*
X193342857Y-87778571D02*
X193842857Y-89278571D01*
X194342857Y-87778571D01*
D13*
X163012381Y-111751904D02*
X162536190Y-112085238D01*
X163012381Y-112323333D02*
X162012381Y-112323333D01*
X162012381Y-111942380D01*
X162060000Y-111847142D01*
X162107619Y-111799523D01*
X162202857Y-111751904D01*
X162345714Y-111751904D01*
X162440952Y-111799523D01*
X162488571Y-111847142D01*
X162536190Y-111942380D01*
X162536190Y-112323333D01*
X162012381Y-111418571D02*
X163012381Y-110751904D01*
X162012381Y-110751904D02*
X163012381Y-111418571D01*
X162345714Y-109609047D02*
X162631429Y-110370952D01*
X162917143Y-109609047D01*
X162012381Y-108942381D02*
X162012381Y-108847142D01*
X162060000Y-108751904D01*
X162107619Y-108704285D01*
X162202857Y-108656666D01*
X162393333Y-108609047D01*
X162631429Y-108609047D01*
X162821905Y-108656666D01*
X162917143Y-108704285D01*
X162964762Y-108751904D01*
X163012381Y-108847142D01*
X163012381Y-108942381D01*
X162964762Y-109037619D01*
X162917143Y-109085238D01*
X162821905Y-109132857D01*
X162631429Y-109180476D01*
X162393333Y-109180476D01*
X162202857Y-109132857D01*
X162107619Y-109085238D01*
X162060000Y-109037619D01*
X162012381Y-108942381D01*
X159726381Y-112347143D02*
X159726381Y-111775714D01*
X160726381Y-112061429D02*
X159726381Y-112061429D01*
X159726381Y-111537619D02*
X160726381Y-110870952D01*
X159726381Y-110870952D02*
X160726381Y-111537619D01*
X160059714Y-110490000D02*
X160345429Y-109728095D01*
X160631143Y-110490000D01*
X160726381Y-108728095D02*
X160726381Y-109299524D01*
X160726381Y-109013810D02*
X159726381Y-109013810D01*
X159869238Y-109109048D01*
X159964476Y-109204286D01*
X160012095Y-109299524D01*
D12*
X154110571Y-112684571D02*
X154110571Y-111613142D01*
X153467714Y-112255999D02*
X155396286Y-112684571D01*
X154753429Y-111755999D02*
X154753429Y-112827428D01*
X155396286Y-112184571D02*
X153467714Y-111755999D01*
X153610571Y-111255999D02*
X153610571Y-110327428D01*
X154182000Y-110827428D01*
X154182000Y-110613142D01*
X154253429Y-110470285D01*
X154324857Y-110398856D01*
X154467714Y-110327428D01*
X154824857Y-110327428D01*
X154967714Y-110398856D01*
X155039143Y-110470285D01*
X155110571Y-110613142D01*
X155110571Y-111041714D01*
X155039143Y-111184571D01*
X154967714Y-111255999D01*
X151824571Y-111220285D02*
X152824571Y-111220285D01*
X151253143Y-111577428D02*
X152324571Y-111934571D01*
X152324571Y-111005999D01*
X149538571Y-112684571D02*
X149538571Y-111613142D01*
X148895714Y-112255999D02*
X150824286Y-112684571D01*
X150181429Y-111755999D02*
X150181429Y-112827428D01*
X150824286Y-112184571D02*
X148895714Y-111755999D01*
X149038571Y-110398856D02*
X149038571Y-111113142D01*
X149752857Y-111184571D01*
X149681429Y-111113142D01*
X149610000Y-110970285D01*
X149610000Y-110613142D01*
X149681429Y-110470285D01*
X149752857Y-110398856D01*
X149895714Y-110327428D01*
X150252857Y-110327428D01*
X150395714Y-110398856D01*
X150467143Y-110470285D01*
X150538571Y-110613142D01*
X150538571Y-110970285D01*
X150467143Y-111113142D01*
X150395714Y-111184571D01*
X146998571Y-112684571D02*
X146998571Y-111613142D01*
X146355714Y-112255999D02*
X148284286Y-112684571D01*
X147641429Y-111755999D02*
X147641429Y-112827428D01*
X148284286Y-112184571D02*
X146355714Y-111755999D01*
X146498571Y-110470285D02*
X146498571Y-110755999D01*
X146570000Y-110898856D01*
X146641429Y-110970285D01*
X146855714Y-111113142D01*
X147141429Y-111184571D01*
X147712857Y-111184571D01*
X147855714Y-111113142D01*
X147927143Y-111041714D01*
X147998571Y-110898856D01*
X147998571Y-110613142D01*
X147927143Y-110470285D01*
X147855714Y-110398856D01*
X147712857Y-110327428D01*
X147355714Y-110327428D01*
X147212857Y-110398856D01*
X147141429Y-110470285D01*
X147070000Y-110613142D01*
X147070000Y-110898856D01*
X147141429Y-111041714D01*
X147212857Y-111113142D01*
X147355714Y-111184571D01*
X143958571Y-112005999D02*
X143958571Y-111005999D01*
X145458571Y-111648856D01*
X139214286Y-109928571D02*
X138357143Y-109928571D01*
X138785715Y-109928571D02*
X138785715Y-108428571D01*
X138642858Y-108642857D01*
X138500000Y-108785714D01*
X138357143Y-108857143D01*
X139714286Y-108428571D02*
X140642857Y-108428571D01*
X140142857Y-109000000D01*
X140357143Y-109000000D01*
X140500000Y-109071429D01*
X140571429Y-109142857D01*
X140642857Y-109285714D01*
X140642857Y-109642857D01*
X140571429Y-109785714D01*
X140500000Y-109857143D01*
X140357143Y-109928571D01*
X139928571Y-109928571D01*
X139785714Y-109857143D01*
X139714286Y-109785714D01*
X139214286Y-107428571D02*
X138357143Y-107428571D01*
X138785715Y-107428571D02*
X138785715Y-105928571D01*
X138642858Y-106142857D01*
X138500000Y-106285714D01*
X138357143Y-106357143D01*
X139785714Y-106071429D02*
X139857143Y-106000000D01*
X140000000Y-105928571D01*
X140357143Y-105928571D01*
X140500000Y-106000000D01*
X140571429Y-106071429D01*
X140642857Y-106214286D01*
X140642857Y-106357143D01*
X140571429Y-106571429D01*
X139714286Y-107428571D01*
X140642857Y-107428571D01*
D13*
X138238095Y-103785714D02*
X138952381Y-103785714D01*
X138523809Y-103357143D02*
X138238095Y-104642857D01*
X138857143Y-104214286D02*
X138142857Y-104214286D01*
X138571429Y-104642857D02*
X138857143Y-103357143D01*
X139809524Y-104452381D02*
X139238095Y-104452381D01*
X139523809Y-104452381D02*
X139523809Y-103452381D01*
X139428571Y-103595238D01*
X139333333Y-103690476D01*
X139238095Y-103738095D01*
X140761905Y-104452381D02*
X140190476Y-104452381D01*
X140476190Y-104452381D02*
X140476190Y-103452381D01*
X140380952Y-103595238D01*
X140285714Y-103690476D01*
X140190476Y-103738095D01*
X138238095Y-101285714D02*
X138952381Y-101285714D01*
X138523809Y-100857143D02*
X138238095Y-102142857D01*
X138857143Y-101714286D02*
X138142857Y-101714286D01*
X138571429Y-102142857D02*
X138857143Y-100857143D01*
X139809524Y-101952381D02*
X139238095Y-101952381D01*
X139523809Y-101952381D02*
X139523809Y-100952381D01*
X139428571Y-101095238D01*
X139333333Y-101190476D01*
X139238095Y-101238095D01*
X140428571Y-100952381D02*
X140523810Y-100952381D01*
X140619048Y-101000000D01*
X140666667Y-101047619D01*
X140714286Y-101142857D01*
X140761905Y-101333333D01*
X140761905Y-101571429D01*
X140714286Y-101761905D01*
X140666667Y-101857143D01*
X140619048Y-101904762D01*
X140523810Y-101952381D01*
X140428571Y-101952381D01*
X140333333Y-101904762D01*
X140285714Y-101857143D01*
X140238095Y-101761905D01*
X140190476Y-101571429D01*
X140190476Y-101333333D01*
X140238095Y-101142857D01*
X140285714Y-101047619D01*
X140333333Y-101000000D01*
X140428571Y-100952381D01*
X138741072Y-98785714D02*
X139455358Y-98785714D01*
X139080357Y-98357143D02*
X138633929Y-99642857D01*
X139306548Y-99214286D02*
X138592262Y-99214286D01*
X138967263Y-99642857D02*
X139413691Y-98357143D01*
X139752976Y-99452381D02*
X139943452Y-99452381D01*
X140044644Y-99404762D01*
X140098215Y-99357143D01*
X140211310Y-99214286D01*
X140282739Y-99023810D01*
X140330358Y-98642857D01*
X140294644Y-98547619D01*
X140252977Y-98500000D01*
X140163691Y-98452381D01*
X139973214Y-98452381D01*
X139872024Y-98500000D01*
X139818453Y-98547619D01*
X139758929Y-98642857D01*
X139729167Y-98880952D01*
X139764881Y-98976190D01*
X139806548Y-99023810D01*
X139895833Y-99071429D01*
X140086310Y-99071429D01*
X140187501Y-99023810D01*
X140241072Y-98976190D01*
X140300596Y-98880952D01*
D12*
X139857144Y-96321429D02*
X139714286Y-96250000D01*
X139642858Y-96178571D01*
X139571429Y-96035714D01*
X139571429Y-95964286D01*
X139642858Y-95821429D01*
X139714286Y-95750000D01*
X139857144Y-95678571D01*
X140142858Y-95678571D01*
X140285715Y-95750000D01*
X140357144Y-95821429D01*
X140428572Y-95964286D01*
X140428572Y-96035714D01*
X140357144Y-96178571D01*
X140285715Y-96250000D01*
X140142858Y-96321429D01*
X139857144Y-96321429D01*
X139714286Y-96392857D01*
X139642858Y-96464286D01*
X139571429Y-96607143D01*
X139571429Y-96892857D01*
X139642858Y-97035714D01*
X139714286Y-97107143D01*
X139857144Y-97178571D01*
X140142858Y-97178571D01*
X140285715Y-97107143D01*
X140357144Y-97035714D01*
X140428572Y-96892857D01*
X140428572Y-96607143D01*
X140357144Y-96464286D01*
X140285715Y-96392857D01*
X140142858Y-96321429D01*
D14*
X138716667Y-93650000D02*
X138650001Y-93616667D01*
X138550001Y-93616667D01*
X138450001Y-93650000D01*
X138383334Y-93716667D01*
X138350001Y-93783333D01*
X138316667Y-93916667D01*
X138316667Y-94016667D01*
X138350001Y-94150000D01*
X138383334Y-94216667D01*
X138450001Y-94283333D01*
X138550001Y-94316667D01*
X138616667Y-94316667D01*
X138716667Y-94283333D01*
X138750001Y-94250000D01*
X138750001Y-94016667D01*
X138616667Y-94016667D01*
X139050001Y-94316667D02*
X139050001Y-93616667D01*
X139450001Y-94316667D01*
X139450001Y-93616667D01*
X139783334Y-94316667D02*
X139783334Y-93616667D01*
X139950000Y-93616667D01*
X140050000Y-93650000D01*
X140116667Y-93716667D01*
X140150000Y-93783333D01*
X140183334Y-93916667D01*
X140183334Y-94016667D01*
X140150000Y-94150000D01*
X140116667Y-94216667D01*
X140050000Y-94283333D01*
X139950000Y-94316667D01*
X139783334Y-94316667D01*
X137866667Y-91866667D02*
X138200001Y-91866667D01*
X137800001Y-92066667D02*
X138033334Y-91366667D01*
X138266667Y-92066667D01*
X138900001Y-92066667D02*
X138666667Y-91733333D01*
X138500001Y-92066667D02*
X138500001Y-91366667D01*
X138766667Y-91366667D01*
X138833334Y-91400000D01*
X138866667Y-91433333D01*
X138900001Y-91500000D01*
X138900001Y-91600000D01*
X138866667Y-91666667D01*
X138833334Y-91700000D01*
X138766667Y-91733333D01*
X138500001Y-91733333D01*
X139200001Y-91700000D02*
X139433334Y-91700000D01*
X139533334Y-92066667D02*
X139200001Y-92066667D01*
X139200001Y-91366667D01*
X139533334Y-91366667D01*
X140066667Y-91700000D02*
X139833334Y-91700000D01*
X139833334Y-92066667D02*
X139833334Y-91366667D01*
X140166667Y-91366667D01*
D15*
X155440000Y-86730000D02*
X155440000Y-86700000D01*
X154520000Y-86730000D02*
X155440000Y-86730000D01*
X153760000Y-87490000D02*
X154520000Y-86730000D01*
X160660000Y-86860000D02*
X159590000Y-86860000D01*
X161170000Y-87370000D02*
X160660000Y-86860000D01*
D12*
X156535714Y-85750000D02*
X156392857Y-85678571D01*
X156178571Y-85678571D01*
X155964286Y-85750000D01*
X155821428Y-85892857D01*
X155750000Y-86035714D01*
X155678571Y-86321429D01*
X155678571Y-86535714D01*
X155750000Y-86821429D01*
X155821428Y-86964286D01*
X155964286Y-87107143D01*
X156178571Y-87178571D01*
X156321428Y-87178571D01*
X156535714Y-87107143D01*
X156607143Y-87035714D01*
X156607143Y-86535714D01*
X156321428Y-86535714D01*
X157250000Y-86178571D02*
X157250000Y-87178571D01*
X157250000Y-86321429D02*
X157321428Y-86250000D01*
X157464286Y-86178571D01*
X157678571Y-86178571D01*
X157821428Y-86250000D01*
X157892857Y-86392857D01*
X157892857Y-87178571D01*
X159250000Y-87178571D02*
X159250000Y-85678571D01*
X159250000Y-87107143D02*
X159107143Y-87178571D01*
X158821429Y-87178571D01*
X158678571Y-87107143D01*
X158607143Y-87035714D01*
X158535714Y-86892857D01*
X158535714Y-86464286D01*
X158607143Y-86321429D01*
X158678571Y-86250000D01*
X158821429Y-86178571D01*
X159107143Y-86178571D01*
X159250000Y-86250000D01*
X152607143Y-87428571D02*
X152607143Y-86285714D01*
X153178571Y-86857143D02*
X152035714Y-86857143D01*
X151678571Y-84857142D02*
X151678571Y-85571428D01*
X152392857Y-85642857D01*
X152321429Y-85571428D01*
X152250000Y-85428571D01*
X152250000Y-85071428D01*
X152321429Y-84928571D01*
X152392857Y-84857142D01*
X152535714Y-84785714D01*
X152892857Y-84785714D01*
X153035714Y-84857142D01*
X153107143Y-84928571D01*
X153178571Y-85071428D01*
X153178571Y-85428571D01*
X153107143Y-85571428D01*
X153035714Y-85642857D01*
X151678571Y-84357143D02*
X153178571Y-83857143D01*
X151678571Y-83357143D01*
X150107143Y-87142856D02*
X150107143Y-85999999D01*
X150678571Y-86571428D02*
X149535714Y-86571428D01*
X149178571Y-85428570D02*
X149178571Y-84499999D01*
X149750000Y-84999999D01*
X149750000Y-84785713D01*
X149821429Y-84642856D01*
X149892857Y-84571427D01*
X150035714Y-84499999D01*
X150392857Y-84499999D01*
X150535714Y-84571427D01*
X150607143Y-84642856D01*
X150678571Y-84785713D01*
X150678571Y-85214285D01*
X150607143Y-85357142D01*
X150535714Y-85428570D01*
X149178571Y-84071428D02*
X150678571Y-83571428D01*
X149178571Y-83071428D01*
X149178571Y-82714285D02*
X149178571Y-81785714D01*
X149750000Y-82285714D01*
X149750000Y-82071428D01*
X149821429Y-81928571D01*
X149892857Y-81857142D01*
X150035714Y-81785714D01*
X150392857Y-81785714D01*
X150535714Y-81857142D01*
X150607143Y-81928571D01*
X150678571Y-82071428D01*
X150678571Y-82500000D01*
X150607143Y-82642857D01*
X150535714Y-82714285D01*
X148008571Y-85897142D02*
X147294286Y-86397142D01*
X148008571Y-86754285D02*
X146508571Y-86754285D01*
X146508571Y-86182857D01*
X146580000Y-86039999D01*
X146651429Y-85968571D01*
X146794286Y-85897142D01*
X147008571Y-85897142D01*
X147151429Y-85968571D01*
X147222857Y-86039999D01*
X147294286Y-86182857D01*
X147294286Y-86754285D01*
X147937143Y-84682857D02*
X148008571Y-84825714D01*
X148008571Y-85111428D01*
X147937143Y-85254285D01*
X147794286Y-85325714D01*
X147222857Y-85325714D01*
X147080000Y-85254285D01*
X147008571Y-85111428D01*
X147008571Y-84825714D01*
X147080000Y-84682857D01*
X147222857Y-84611428D01*
X147365714Y-84611428D01*
X147508571Y-85325714D01*
X147937143Y-84040000D02*
X148008571Y-83897143D01*
X148008571Y-83611428D01*
X147937143Y-83468571D01*
X147794286Y-83397143D01*
X147722857Y-83397143D01*
X147580000Y-83468571D01*
X147508571Y-83611428D01*
X147508571Y-83825714D01*
X147437143Y-83968571D01*
X147294286Y-84040000D01*
X147222857Y-84040000D01*
X147080000Y-83968571D01*
X147008571Y-83825714D01*
X147008571Y-83611428D01*
X147080000Y-83468571D01*
X147937143Y-82182857D02*
X148008571Y-82325714D01*
X148008571Y-82611428D01*
X147937143Y-82754285D01*
X147794286Y-82825714D01*
X147222857Y-82825714D01*
X147080000Y-82754285D01*
X147008571Y-82611428D01*
X147008571Y-82325714D01*
X147080000Y-82182857D01*
X147222857Y-82111428D01*
X147365714Y-82111428D01*
X147508571Y-82825714D01*
X147008571Y-81682857D02*
X147008571Y-81111428D01*
X146508571Y-81468571D02*
X147794286Y-81468571D01*
X147937143Y-81397143D01*
X148008571Y-81254285D01*
X148008571Y-81111428D01*
X177796000Y-112323428D02*
X177796000Y-111609142D01*
X178224571Y-112466285D02*
X176724571Y-111966285D01*
X178224571Y-111466285D01*
X176724571Y-110251999D02*
X176724571Y-110966285D01*
X177438857Y-111037714D01*
X177367429Y-110966285D01*
X177296000Y-110823428D01*
X177296000Y-110466285D01*
X177367429Y-110323428D01*
X177438857Y-110251999D01*
X177581714Y-110180571D01*
X177938857Y-110180571D01*
X178081714Y-110251999D01*
X178153143Y-110323428D01*
X178224571Y-110466285D01*
X178224571Y-110823428D01*
X178153143Y-110966285D01*
X178081714Y-111037714D01*
X175256000Y-112323428D02*
X175256000Y-111609142D01*
X175684571Y-112466285D02*
X174184571Y-111966285D01*
X175684571Y-111466285D01*
X174684571Y-110323428D02*
X175684571Y-110323428D01*
X174113143Y-110680571D02*
X175184571Y-111037714D01*
X175184571Y-110109142D01*
X172970000Y-112323428D02*
X172970000Y-111609142D01*
X173398571Y-112466285D02*
X171898571Y-111966285D01*
X173398571Y-111466285D01*
X171898571Y-111109142D02*
X171898571Y-110180571D01*
X172470000Y-110680571D01*
X172470000Y-110466285D01*
X172541429Y-110323428D01*
X172612857Y-110251999D01*
X172755714Y-110180571D01*
X173112857Y-110180571D01*
X173255714Y-110251999D01*
X173327143Y-110323428D01*
X173398571Y-110466285D01*
X173398571Y-110894857D01*
X173327143Y-111037714D01*
X173255714Y-111109142D01*
X170684000Y-112323428D02*
X170684000Y-111609142D01*
X171112571Y-112466285D02*
X169612571Y-111966285D01*
X171112571Y-111466285D01*
X169755429Y-111037714D02*
X169684000Y-110966285D01*
X169612571Y-110823428D01*
X169612571Y-110466285D01*
X169684000Y-110323428D01*
X169755429Y-110251999D01*
X169898286Y-110180571D01*
X170041143Y-110180571D01*
X170255429Y-110251999D01*
X171112571Y-111109142D01*
X171112571Y-110180571D01*
X167636000Y-112323428D02*
X167636000Y-111609142D01*
X168064571Y-112466285D02*
X166564571Y-111966285D01*
X168064571Y-111466285D01*
X168064571Y-110180571D02*
X168064571Y-111037714D01*
X168064571Y-110609142D02*
X166564571Y-110609142D01*
X166778857Y-110751999D01*
X166921714Y-110894857D01*
X166993143Y-111037714D01*
X165350000Y-112323428D02*
X165350000Y-111609142D01*
X165778571Y-112466285D02*
X164278571Y-111966285D01*
X165778571Y-111466285D01*
X164278571Y-110680571D02*
X164278571Y-110537714D01*
X164350000Y-110394857D01*
X164421429Y-110323428D01*
X164564286Y-110251999D01*
X164850000Y-110180571D01*
X165207143Y-110180571D01*
X165492857Y-110251999D01*
X165635714Y-110323428D01*
X165707143Y-110394857D01*
X165778571Y-110537714D01*
X165778571Y-110680571D01*
X165707143Y-110823428D01*
X165635714Y-110894857D01*
X165492857Y-110966285D01*
X165207143Y-111037714D01*
X164850000Y-111037714D01*
X164564286Y-110966285D01*
X164421429Y-110894857D01*
X164350000Y-110823428D01*
X164278571Y-110680571D01*
D13*
X145083331Y-73166667D02*
X145559522Y-73166667D01*
X144988093Y-73452381D02*
X145321426Y-72452381D01*
X145654760Y-73452381D01*
X145988093Y-73452381D02*
X145988093Y-72785714D01*
X145988093Y-72976190D02*
X146035712Y-72880952D01*
X146083331Y-72833333D01*
X146178569Y-72785714D01*
X146273808Y-72785714D01*
X147035713Y-73452381D02*
X147035713Y-72452381D01*
X147035713Y-73404762D02*
X146940475Y-73452381D01*
X146749998Y-73452381D01*
X146654760Y-73404762D01*
X146607141Y-73357143D01*
X146559522Y-73261905D01*
X146559522Y-72976190D01*
X146607141Y-72880952D01*
X146654760Y-72833333D01*
X146749998Y-72785714D01*
X146940475Y-72785714D01*
X147035713Y-72833333D01*
X147940475Y-72785714D02*
X147940475Y-73452381D01*
X147511903Y-72785714D02*
X147511903Y-73309524D01*
X147559522Y-73404762D01*
X147654760Y-73452381D01*
X147797618Y-73452381D01*
X147892856Y-73404762D01*
X147940475Y-73357143D01*
X148988094Y-73357143D02*
X148940475Y-73404762D01*
X148797618Y-73452381D01*
X148702380Y-73452381D01*
X148559522Y-73404762D01*
X148464284Y-73309524D01*
X148416665Y-73214286D01*
X148369046Y-73023810D01*
X148369046Y-72880952D01*
X148416665Y-72690476D01*
X148464284Y-72595238D01*
X148559522Y-72500000D01*
X148702380Y-72452381D01*
X148797618Y-72452381D01*
X148940475Y-72500000D01*
X148988094Y-72547619D01*
X149559522Y-73452381D02*
X149464284Y-73404762D01*
X149416665Y-73357143D01*
X149369046Y-73261905D01*
X149369046Y-72976190D01*
X149416665Y-72880952D01*
X149464284Y-72833333D01*
X149559522Y-72785714D01*
X149702380Y-72785714D01*
X149797618Y-72833333D01*
X149845237Y-72880952D01*
X149892856Y-72976190D01*
X149892856Y-73261905D01*
X149845237Y-73357143D01*
X149797618Y-73404762D01*
X149702380Y-73452381D01*
X149559522Y-73452381D01*
X150321427Y-72785714D02*
X150321427Y-73785714D01*
X150321427Y-72833333D02*
X150416665Y-72785714D01*
X150607142Y-72785714D01*
X150702380Y-72833333D01*
X150749999Y-72880952D01*
X150797618Y-72976190D01*
X150797618Y-73261905D01*
X150749999Y-73357143D01*
X150702380Y-73404762D01*
X150607142Y-73452381D01*
X150416665Y-73452381D01*
X150321427Y-73404762D01*
X151083332Y-72785714D02*
X151464284Y-72785714D01*
X151226189Y-72452381D02*
X151226189Y-73309524D01*
X151273808Y-73404762D01*
X151369046Y-73452381D01*
X151464284Y-73452381D01*
X152178571Y-73404762D02*
X152083333Y-73452381D01*
X151892856Y-73452381D01*
X151797618Y-73404762D01*
X151749999Y-73309524D01*
X151749999Y-72928571D01*
X151797618Y-72833333D01*
X151892856Y-72785714D01*
X152083333Y-72785714D01*
X152178571Y-72833333D01*
X152226190Y-72928571D01*
X152226190Y-73023810D01*
X151749999Y-73119048D01*
X152654761Y-73452381D02*
X152654761Y-72785714D01*
X152654761Y-72976190D02*
X152702380Y-72880952D01*
X152749999Y-72833333D01*
X152845237Y-72785714D01*
X152940476Y-72785714D01*
X154035714Y-73452381D02*
X154035714Y-72452381D01*
X154416667Y-72452381D01*
X154511905Y-72500000D01*
X154559524Y-72547619D01*
X154607143Y-72642857D01*
X154607143Y-72785714D01*
X154559524Y-72880952D01*
X154511905Y-72928571D01*
X154416667Y-72976190D01*
X154035714Y-72976190D01*
X155035714Y-73452381D02*
X155035714Y-72785714D01*
X155035714Y-72976190D02*
X155083333Y-72880952D01*
X155130952Y-72833333D01*
X155226190Y-72785714D01*
X155321429Y-72785714D01*
X155797619Y-73452381D02*
X155702381Y-73404762D01*
X155654762Y-73357143D01*
X155607143Y-73261905D01*
X155607143Y-72976190D01*
X155654762Y-72880952D01*
X155702381Y-72833333D01*
X155797619Y-72785714D01*
X155940477Y-72785714D01*
X156035715Y-72833333D01*
X156083334Y-72880952D01*
X156130953Y-72976190D01*
X156130953Y-73261905D01*
X156083334Y-73357143D01*
X156035715Y-73404762D01*
X155940477Y-73452381D01*
X155797619Y-73452381D01*
X156416667Y-72785714D02*
X156797619Y-72785714D01*
X156559524Y-72452381D02*
X156559524Y-73309524D01*
X156607143Y-73404762D01*
X156702381Y-73452381D01*
X156797619Y-73452381D01*
X157273810Y-73452381D02*
X157178572Y-73404762D01*
X157130953Y-73357143D01*
X157083334Y-73261905D01*
X157083334Y-72976190D01*
X157130953Y-72880952D01*
X157178572Y-72833333D01*
X157273810Y-72785714D01*
X157416668Y-72785714D01*
X157511906Y-72833333D01*
X157559525Y-72880952D01*
X157607144Y-72976190D01*
X157607144Y-73261905D01*
X157559525Y-73357143D01*
X157511906Y-73404762D01*
X157416668Y-73452381D01*
X157273810Y-73452381D01*
X157892858Y-72785714D02*
X158273810Y-72785714D01*
X158035715Y-72452381D02*
X158035715Y-73309524D01*
X158083334Y-73404762D01*
X158178572Y-73452381D01*
X158273810Y-73452381D01*
X158511906Y-72785714D02*
X158750001Y-73452381D01*
X158988097Y-72785714D02*
X158750001Y-73452381D01*
X158654763Y-73690476D01*
X158607144Y-73738095D01*
X158511906Y-73785714D01*
X159369049Y-72785714D02*
X159369049Y-73785714D01*
X159369049Y-72833333D02*
X159464287Y-72785714D01*
X159654764Y-72785714D01*
X159750002Y-72833333D01*
X159797621Y-72880952D01*
X159845240Y-72976190D01*
X159845240Y-73261905D01*
X159797621Y-73357143D01*
X159750002Y-73404762D01*
X159654764Y-73452381D01*
X159464287Y-73452381D01*
X159369049Y-73404762D01*
X160654764Y-73404762D02*
X160559526Y-73452381D01*
X160369049Y-73452381D01*
X160273811Y-73404762D01*
X160226192Y-73309524D01*
X160226192Y-72928571D01*
X160273811Y-72833333D01*
X160369049Y-72785714D01*
X160559526Y-72785714D01*
X160654764Y-72833333D01*
X160702383Y-72928571D01*
X160702383Y-73023810D01*
X160226192Y-73119048D01*
X162464288Y-73452381D02*
X162130954Y-72976190D01*
X161892859Y-73452381D02*
X161892859Y-72452381D01*
X162273812Y-72452381D01*
X162369050Y-72500000D01*
X162416669Y-72547619D01*
X162464288Y-72642857D01*
X162464288Y-72785714D01*
X162416669Y-72880952D01*
X162369050Y-72928571D01*
X162273812Y-72976190D01*
X161892859Y-72976190D01*
X163416669Y-73452381D02*
X162845240Y-73452381D01*
X163130954Y-73452381D02*
X163130954Y-72452381D01*
X163035716Y-72595238D01*
X162940478Y-72690476D01*
X162845240Y-72738095D01*
D16*
X168060714Y-98300000D02*
G75*
G03X168060714Y-98300000I-1750714J0D01*
G01*
X163085000Y-95075000D02*
X163210000Y-95075000D01*
X169535000Y-95075000D02*
X169410000Y-95075000D01*
X169535000Y-101525000D02*
X169410000Y-101525000D01*
X163210000Y-101525000D02*
X163085000Y-101525000D01*
X164910000Y-95075000D02*
X167710000Y-95075000D01*
X163085000Y-101525000D02*
X163085000Y-95075000D01*
X164910000Y-101525000D02*
X167710000Y-101525000D01*
X169535000Y-101525000D02*
X169535000Y-95075000D01*
X195040000Y-92710000D02*
X194310000Y-92710000D01*
X194310000Y-95250000D02*
X194310000Y-92710000D01*
X194310000Y-97790000D02*
X194310000Y-95250000D01*
X195040000Y-95250000D02*
X194310000Y-95250000D01*
X195040000Y-97790000D02*
X194310000Y-97790000D01*
X194310000Y-100330000D02*
X194310000Y-97790000D01*
X194310000Y-102870000D02*
X194310000Y-100330000D01*
X195040000Y-100330000D02*
X194310000Y-100330000D01*
X195040000Y-102870000D02*
X194310000Y-102870000D01*
X194310000Y-105410000D02*
X195040000Y-105410000D01*
X194310000Y-105410000D02*
X194310000Y-102870000D01*
X194310000Y-107950000D02*
X194310000Y-105410000D01*
X191640000Y-106680000D02*
X191640000Y-108230000D01*
X191640000Y-108230000D02*
X193040000Y-108230000D01*
X194310000Y-107950000D02*
X195040000Y-107950000D01*
X187000000Y-75000000D02*
X195500000Y-75000000D01*
X195500000Y-84000000D02*
X187000000Y-84000000D01*
X195000000Y-75000000D02*
X195000000Y-84000000D01*
X195500000Y-84000000D02*
X195500000Y-75000000D01*
X186999760Y-74999120D02*
X186999760Y-84000880D01*
X171449580Y-76800000D02*
X170601220Y-77800760D01*
X170601220Y-77800760D02*
X170601220Y-75799240D01*
X170601220Y-75799240D02*
X171449580Y-76800000D01*
X171449580Y-76800000D02*
X171449580Y-75799240D01*
X171449580Y-76800000D02*
X171449580Y-77800760D01*
X173306320Y-75000000D02*
X173306320Y-75199800D01*
X172849280Y-75000000D02*
X172849280Y-75199000D01*
X168698760Y-75000000D02*
X168698760Y-75149000D01*
X173301240Y-78600000D02*
X173301240Y-78451000D01*
X172849280Y-78600000D02*
X172849280Y-78451000D01*
X168698760Y-78600000D02*
X168698760Y-78451000D01*
X172849280Y-74851020D02*
X172849280Y-75049140D01*
X172849280Y-78798980D02*
X172849280Y-78600860D01*
X168703840Y-74803560D02*
X168703840Y-75001680D01*
X173306320Y-74803560D02*
X168703840Y-74803560D01*
X173306320Y-74803560D02*
X173306320Y-75001680D01*
X173301240Y-78798980D02*
X173301240Y-78600860D01*
X173301240Y-78798980D02*
X168698760Y-78798980D01*
X168698760Y-78798980D02*
X168698760Y-78600860D01*
X150350000Y-107150000D02*
X150350000Y-107850000D01*
X149150000Y-107850000D02*
X149150000Y-107150000D01*
X152400000Y-105900000D02*
X153100000Y-105900000D01*
X153100000Y-107100000D02*
X152400000Y-107100000D01*
X178800000Y-81350000D02*
X178800000Y-80650000D01*
X180000000Y-80650000D02*
X180000000Y-81350000D01*
X178450000Y-89000000D02*
X179150000Y-89000000D01*
X179150000Y-90200000D02*
X178450000Y-90200000D01*
X147150000Y-77600000D02*
X147150000Y-76900000D01*
X148350000Y-76900000D02*
X148350000Y-77600000D01*
X157549720Y-78997840D02*
X157874840Y-78997840D01*
X157874840Y-78997840D02*
X157874840Y-79498220D01*
X157549720Y-79498220D02*
X157874840Y-79498220D01*
X157549720Y-78997840D02*
X157549720Y-79498220D01*
X156927420Y-78997840D02*
X157077280Y-78997840D01*
X157077280Y-78997840D02*
X157077280Y-79249300D01*
X156927420Y-79249300D02*
X157077280Y-79249300D01*
X156927420Y-78997840D02*
X156927420Y-79249300D01*
X157422720Y-78997840D02*
X157572580Y-78997840D01*
X157572580Y-78997840D02*
X157572580Y-79249300D01*
X157422720Y-79249300D02*
X157572580Y-79249300D01*
X157422720Y-78997840D02*
X157422720Y-79249300D01*
X157051880Y-78997840D02*
X157448120Y-78997840D01*
X157448120Y-78997840D02*
X157448120Y-79173100D01*
X157051880Y-79173100D02*
X157448120Y-79173100D01*
X157051880Y-78997840D02*
X157051880Y-79173100D01*
X157549720Y-77501780D02*
X157874840Y-77501780D01*
X157874840Y-77501780D02*
X157874840Y-78002160D01*
X157549720Y-78002160D02*
X157874840Y-78002160D01*
X157549720Y-77501780D02*
X157549720Y-78002160D01*
X156625160Y-77501780D02*
X156950280Y-77501780D01*
X156950280Y-77501780D02*
X156950280Y-78002160D01*
X156625160Y-78002160D02*
X156950280Y-78002160D01*
X156625160Y-77501780D02*
X156625160Y-78002160D01*
X157422720Y-77750700D02*
X157572580Y-77750700D01*
X157572580Y-77750700D02*
X157572580Y-78002160D01*
X157422720Y-78002160D02*
X157572580Y-78002160D01*
X157422720Y-77750700D02*
X157422720Y-78002160D01*
X156927420Y-77750700D02*
X157077280Y-77750700D01*
X157077280Y-77750700D02*
X157077280Y-78002160D01*
X156927420Y-78002160D02*
X157077280Y-78002160D01*
X156927420Y-77750700D02*
X156927420Y-78002160D01*
X157051880Y-77826900D02*
X157448120Y-77826900D01*
X157448120Y-77826900D02*
X157448120Y-78002160D01*
X157051880Y-78002160D02*
X157448120Y-78002160D01*
X157051880Y-77826900D02*
X157051880Y-78002160D01*
X157150940Y-78500000D02*
X157349060Y-78500000D01*
X157349060Y-78500000D02*
X157349060Y-78698120D01*
X157150940Y-78698120D02*
X157349060Y-78698120D01*
X157150940Y-78500000D02*
X157150940Y-78698120D01*
X156650560Y-78997840D02*
X156950280Y-78997840D01*
X156950280Y-78997840D02*
X156950280Y-79297560D01*
X156650560Y-79297560D02*
X156950280Y-79297560D01*
X156650560Y-78997840D02*
X156650560Y-79297560D01*
X156625160Y-79424560D02*
X156851220Y-79424560D01*
X156851220Y-79424560D02*
X156851220Y-79498220D01*
X156625160Y-79498220D02*
X156851220Y-79498220D01*
X156625160Y-79424560D02*
X156625160Y-79498220D01*
X157824040Y-79023240D02*
X157824040Y-77976760D01*
X156675960Y-78002160D02*
X156675960Y-79424560D01*
X156872262Y-79348360D02*
G75*
G03X156872262Y-79348360I-71842J0D01*
G01*
X156902020Y-79498220D02*
G75*
G02X157597980Y-79498220I347980J0D01*
G01*
X157597980Y-77501780D02*
G75*
G02X156902020Y-77501780I-347980J0D01*
G01*
X174270000Y-104140000D02*
X174270000Y-105690000D01*
X174270000Y-105690000D02*
X171170000Y-105690000D01*
X171170000Y-105690000D02*
X171170000Y-104140000D01*
X171450000Y-102870000D02*
X171450000Y-92710000D01*
X171450000Y-92710000D02*
X173990000Y-92710000D01*
X173990000Y-92710000D02*
X173990000Y-102870000D01*
X171450000Y-102870000D02*
X173990000Y-102870000D01*
X180000000Y-86200000D02*
G75*
G03X180000000Y-86200000I-100000J0D01*
G01*
X180150000Y-85550000D02*
X180150000Y-86050000D01*
X183050000Y-85550000D02*
X180150000Y-85550000D01*
X183050000Y-86050000D02*
X183050000Y-85550000D01*
X180150000Y-86050000D02*
X183050000Y-86050000D01*
X165400000Y-89800000D02*
X166400000Y-89800000D01*
X165400000Y-89800000D02*
X165400000Y-88800000D01*
X174400000Y-89800000D02*
X175400000Y-89800000D01*
X175400000Y-89800000D02*
X175400000Y-88800000D01*
X175400000Y-79800000D02*
X175400000Y-80800000D01*
X175400000Y-79800000D02*
X174400000Y-79800000D01*
X165400000Y-79800000D02*
X166400000Y-79800000D01*
X165400000Y-79800000D02*
X165400000Y-80800000D01*
X179350000Y-92430000D02*
X179350000Y-93980000D01*
X176250000Y-93980000D02*
X176250000Y-92430000D01*
X176250000Y-92430000D02*
X179350000Y-92430000D01*
X176530000Y-95250000D02*
X179070000Y-95250000D01*
X184430000Y-89890000D02*
X184430000Y-91440000D01*
X181330000Y-91440000D02*
X181330000Y-89890000D01*
X181330000Y-89890000D02*
X184430000Y-89890000D01*
X181610000Y-92710000D02*
X184150000Y-92710000D01*
X181330000Y-101600000D02*
X181330000Y-100050000D01*
X181330000Y-100050000D02*
X184430000Y-100050000D01*
X184430000Y-100050000D02*
X184430000Y-101600000D01*
X184150000Y-102870000D02*
X184150000Y-113030000D01*
X184150000Y-113030000D02*
X181610000Y-113030000D01*
X181610000Y-113030000D02*
X181610000Y-102870000D01*
X184150000Y-102870000D02*
X181610000Y-102870000D01*
X148590000Y-87630000D02*
X161290000Y-87630000D01*
X161290000Y-87630000D02*
X161290000Y-90170000D01*
X161290000Y-90170000D02*
X148590000Y-90170000D01*
X145770000Y-87350000D02*
X147320000Y-87350000D01*
X148590000Y-87630000D02*
X148590000Y-90170000D01*
X147320000Y-90450000D02*
X145770000Y-90450000D01*
X145770000Y-90450000D02*
X145770000Y-87350000D01*
X161290000Y-115570000D02*
X143510000Y-115570000D01*
X143510000Y-115570000D02*
X143510000Y-113030000D01*
X143510000Y-113030000D02*
X161290000Y-113030000D01*
X164110000Y-115850000D02*
X162560000Y-115850000D01*
X161290000Y-115570000D02*
X161290000Y-113030000D01*
X162560000Y-112750000D02*
X164110000Y-112750000D01*
X164110000Y-112750000D02*
X164110000Y-115850000D01*
X166370000Y-113030000D02*
X179070000Y-113030000D01*
X179070000Y-113030000D02*
X179070000Y-115570000D01*
X179070000Y-115570000D02*
X166370000Y-115570000D01*
X163550000Y-112750000D02*
X165100000Y-112750000D01*
X166370000Y-113030000D02*
X166370000Y-115570000D01*
X165100000Y-115850000D02*
X163550000Y-115850000D01*
X163550000Y-115850000D02*
X163550000Y-112750000D01*
X143510000Y-92710000D02*
X143510000Y-110490000D01*
X143510000Y-110490000D02*
X140970000Y-110490000D01*
X140970000Y-110490000D02*
X140970000Y-92710000D01*
X143790000Y-89890000D02*
X143790000Y-91440000D01*
X143510000Y-92710000D02*
X140970000Y-92710000D01*
X140690000Y-91440000D02*
X140690000Y-89890000D01*
X140690000Y-89890000D02*
X143790000Y-89890000D01*
X178850800Y-78099820D02*
X178149760Y-78099820D01*
X178149760Y-78099820D02*
X178149760Y-77850900D01*
X178149760Y-75300840D02*
X178149760Y-75100180D01*
X178149760Y-75100180D02*
X178850800Y-75100180D01*
X162275000Y-81000000D02*
X162275000Y-82200000D01*
X160525000Y-82200000D02*
X160525000Y-81000000D01*
X163400000Y-78075000D02*
X162200000Y-78075000D01*
X162200000Y-76325000D02*
X163400000Y-76325000D01*
X148125000Y-93600000D02*
X148125000Y-92400000D01*
X149875000Y-92400000D02*
X149875000Y-93600000D01*
X162615000Y-90440000D02*
X162615000Y-89240000D01*
X164365000Y-89240000D02*
X164365000Y-90440000D01*
X184000000Y-83075000D02*
X182800000Y-83075000D01*
X182800000Y-81325000D02*
X184000000Y-81325000D01*
X155575000Y-84000000D02*
X155575000Y-83000000D01*
X156925000Y-83000000D02*
X156925000Y-84000000D01*
X157825000Y-84000000D02*
X157825000Y-83000000D01*
X159175000Y-83000000D02*
X159175000Y-84000000D01*
X189230000Y-90170000D02*
X189230000Y-113030000D01*
X189230000Y-113030000D02*
X186690000Y-113030000D01*
X186690000Y-113030000D02*
X186690000Y-90170000D01*
X189510000Y-87350000D02*
X189510000Y-88900000D01*
X189230000Y-90170000D02*
X186690000Y-90170000D01*
X186410000Y-88900000D02*
X186410000Y-87350000D01*
X186410000Y-87350000D02*
X189510000Y-87350000D01*
X151650000Y-78700000D02*
G75*
G03X151650000Y-78700000I-100000J0D01*
G01*
X151000000Y-78450000D02*
X151500000Y-78450000D01*
X151000000Y-75550000D02*
X151000000Y-78450000D01*
X151500000Y-75550000D02*
X151000000Y-75550000D01*
X151500000Y-78450000D02*
X151500000Y-75550000D01*
X145400000Y-94500000D02*
X145400000Y-91500000D01*
X145400000Y-91500000D02*
X147400000Y-91500000D01*
X147400000Y-91500000D02*
X147400000Y-94500000D01*
X147400000Y-94500000D02*
X145400000Y-94500000D01*
X159283095Y-94450000D02*
G75*
G03X159283095Y-94450000I-583095J0D01*
G01*
X158125000Y-95125000D02*
X157800000Y-95125000D01*
X158125000Y-102375000D02*
X157800000Y-102375000D01*
X150875000Y-102375000D02*
X151200000Y-102375000D01*
X150875000Y-95125000D02*
X151200000Y-95125000D01*
X158125000Y-95125000D02*
X158125000Y-95450000D01*
X150875000Y-95125000D02*
X150875000Y-95450000D01*
X150875000Y-102375000D02*
X150875000Y-102050000D01*
X158125000Y-102375000D02*
X158125000Y-102050000D01*
X157800000Y-95125000D02*
X157800000Y-93700000D01*
X167066667Y-92804762D02*
X167209524Y-92852381D01*
X167447620Y-92852381D01*
X167542858Y-92804762D01*
X167590477Y-92757143D01*
X167638096Y-92661905D01*
X167638096Y-92566667D01*
X167590477Y-92471429D01*
X167542858Y-92423810D01*
X167447620Y-92376190D01*
X167257143Y-92328571D01*
X167161905Y-92280952D01*
X167114286Y-92233333D01*
X167066667Y-92138095D01*
X167066667Y-92042857D01*
X167114286Y-91947619D01*
X167161905Y-91900000D01*
X167257143Y-91852381D01*
X167495239Y-91852381D01*
X167638096Y-91900000D01*
X167971429Y-91852381D02*
X168209524Y-92852381D01*
X168400001Y-92138095D01*
X168590477Y-92852381D01*
X168828572Y-91852381D01*
X169733334Y-92852381D02*
X169161905Y-92852381D01*
X169447619Y-92852381D02*
X169447619Y-91852381D01*
X169352381Y-91995238D01*
X169257143Y-92090476D01*
X169161905Y-92138095D01*
X194443809Y-109864762D02*
X194586666Y-109912381D01*
X194824762Y-109912381D01*
X194920000Y-109864762D01*
X194967619Y-109817143D01*
X195015238Y-109721905D01*
X195015238Y-109626667D01*
X194967619Y-109531429D01*
X194920000Y-109483810D01*
X194824762Y-109436190D01*
X194634285Y-109388571D01*
X194539047Y-109340952D01*
X194491428Y-109293333D01*
X194443809Y-109198095D01*
X194443809Y-109102857D01*
X194491428Y-109007619D01*
X194539047Y-108960000D01*
X194634285Y-108912381D01*
X194872381Y-108912381D01*
X195015238Y-108960000D01*
X195824762Y-109864762D02*
X195729524Y-109912381D01*
X195539047Y-109912381D01*
X195443809Y-109864762D01*
X195396190Y-109769524D01*
X195396190Y-109388571D01*
X195443809Y-109293333D01*
X195539047Y-109245714D01*
X195729524Y-109245714D01*
X195824762Y-109293333D01*
X195872381Y-109388571D01*
X195872381Y-109483810D01*
X195396190Y-109579048D01*
X196300952Y-109912381D02*
X196300952Y-109245714D01*
X196300952Y-109436190D02*
X196348571Y-109340952D01*
X196396190Y-109293333D01*
X196491428Y-109245714D01*
X196586667Y-109245714D01*
X196920000Y-109912381D02*
X196920000Y-109245714D01*
X196920000Y-108912381D02*
X196872381Y-108960000D01*
X196920000Y-109007619D01*
X196967619Y-108960000D01*
X196920000Y-108912381D01*
X196920000Y-109007619D01*
X197824762Y-109912381D02*
X197824762Y-109388571D01*
X197777143Y-109293333D01*
X197681905Y-109245714D01*
X197491428Y-109245714D01*
X197396190Y-109293333D01*
X197824762Y-109864762D02*
X197729524Y-109912381D01*
X197491428Y-109912381D01*
X197396190Y-109864762D01*
X197348571Y-109769524D01*
X197348571Y-109674286D01*
X197396190Y-109579048D01*
X197491428Y-109531429D01*
X197729524Y-109531429D01*
X197824762Y-109483810D01*
X198443809Y-109912381D02*
X198348571Y-109864762D01*
X198300952Y-109769524D01*
X198300952Y-108912381D01*
X188785715Y-76857143D02*
X188738096Y-76904762D01*
X188595239Y-76952381D01*
X188500001Y-76952381D01*
X188357143Y-76904762D01*
X188261905Y-76809524D01*
X188214286Y-76714286D01*
X188166667Y-76523810D01*
X188166667Y-76380952D01*
X188214286Y-76190476D01*
X188261905Y-76095238D01*
X188357143Y-76000000D01*
X188500001Y-75952381D01*
X188595239Y-75952381D01*
X188738096Y-76000000D01*
X188785715Y-76047619D01*
X189404762Y-75952381D02*
X189595239Y-75952381D01*
X189690477Y-76000000D01*
X189785715Y-76095238D01*
X189833334Y-76285714D01*
X189833334Y-76619048D01*
X189785715Y-76809524D01*
X189690477Y-76904762D01*
X189595239Y-76952381D01*
X189404762Y-76952381D01*
X189309524Y-76904762D01*
X189214286Y-76809524D01*
X189166667Y-76619048D01*
X189166667Y-76285714D01*
X189214286Y-76095238D01*
X189309524Y-76000000D01*
X189404762Y-75952381D01*
X190261905Y-76952381D02*
X190261905Y-75952381D01*
X190833334Y-76952381D01*
X190833334Y-75952381D01*
X191833334Y-76952381D02*
X191261905Y-76952381D01*
X191547619Y-76952381D02*
X191547619Y-75952381D01*
X191452381Y-76095238D01*
X191357143Y-76190476D01*
X191261905Y-76238095D01*
X139166667Y-75452381D02*
X138833333Y-74976190D01*
X138595238Y-75452381D02*
X138595238Y-74452381D01*
X138976191Y-74452381D01*
X139071429Y-74500000D01*
X139119048Y-74547619D01*
X139166667Y-74642857D01*
X139166667Y-74785714D01*
X139119048Y-74880952D01*
X139071429Y-74928571D01*
X138976191Y-74976190D01*
X138595238Y-74976190D01*
X139595238Y-74928571D02*
X139928572Y-74928571D01*
X140071429Y-75452381D02*
X139595238Y-75452381D01*
X139595238Y-74452381D01*
X140071429Y-74452381D01*
X140833334Y-74928571D02*
X140500000Y-74928571D01*
X140500000Y-75452381D02*
X140500000Y-74452381D01*
X140976191Y-74452381D01*
X141500000Y-74452381D02*
X141500000Y-74690476D01*
X141261905Y-74595238D02*
X141500000Y-74690476D01*
X141738096Y-74595238D01*
X141357143Y-74880952D02*
X141500000Y-74690476D01*
X141642858Y-74880952D01*
X142261905Y-74452381D02*
X142261905Y-74690476D01*
X142023810Y-74595238D02*
X142261905Y-74690476D01*
X142500001Y-74595238D01*
X142119048Y-74880952D02*
X142261905Y-74690476D01*
X142404763Y-74880952D01*
X196166667Y-89952381D02*
X195833333Y-89476190D01*
X195595238Y-89952381D02*
X195595238Y-88952381D01*
X195976191Y-88952381D01*
X196071429Y-89000000D01*
X196119048Y-89047619D01*
X196166667Y-89142857D01*
X196166667Y-89285714D01*
X196119048Y-89380952D01*
X196071429Y-89428571D01*
X195976191Y-89476190D01*
X195595238Y-89476190D01*
X196595238Y-89428571D02*
X196928572Y-89428571D01*
X197071429Y-89952381D02*
X196595238Y-89952381D01*
X196595238Y-88952381D01*
X197071429Y-88952381D01*
X197833334Y-89428571D02*
X197500000Y-89428571D01*
X197500000Y-89952381D02*
X197500000Y-88952381D01*
X197976191Y-88952381D01*
X198500000Y-88952381D02*
X198500000Y-89190476D01*
X198261905Y-89095238D02*
X198500000Y-89190476D01*
X198738096Y-89095238D01*
X198357143Y-89380952D02*
X198500000Y-89190476D01*
X198642858Y-89380952D01*
X199261905Y-88952381D02*
X199261905Y-89190476D01*
X199023810Y-89095238D02*
X199261905Y-89190476D01*
X199500001Y-89095238D01*
X199119048Y-89380952D02*
X199261905Y-89190476D01*
X199404763Y-89380952D01*
X196166667Y-113452381D02*
X195833333Y-112976190D01*
X195595238Y-113452381D02*
X195595238Y-112452381D01*
X195976191Y-112452381D01*
X196071429Y-112500000D01*
X196119048Y-112547619D01*
X196166667Y-112642857D01*
X196166667Y-112785714D01*
X196119048Y-112880952D01*
X196071429Y-112928571D01*
X195976191Y-112976190D01*
X195595238Y-112976190D01*
X196595238Y-112928571D02*
X196928572Y-112928571D01*
X197071429Y-113452381D02*
X196595238Y-113452381D01*
X196595238Y-112452381D01*
X197071429Y-112452381D01*
X197833334Y-112928571D02*
X197500000Y-112928571D01*
X197500000Y-113452381D02*
X197500000Y-112452381D01*
X197976191Y-112452381D01*
X198500000Y-112452381D02*
X198500000Y-112690476D01*
X198261905Y-112595238D02*
X198500000Y-112690476D01*
X198738096Y-112595238D01*
X198357143Y-112880952D02*
X198500000Y-112690476D01*
X198642858Y-112880952D01*
X199261905Y-112452381D02*
X199261905Y-112690476D01*
X199023810Y-112595238D02*
X199261905Y-112690476D01*
X199500001Y-112595238D01*
X199119048Y-112880952D02*
X199261905Y-112690476D01*
X199404763Y-112880952D01*
X139091667Y-113827381D02*
X138758333Y-113351190D01*
X138520238Y-113827381D02*
X138520238Y-112827381D01*
X138901191Y-112827381D01*
X138996429Y-112875000D01*
X139044048Y-112922619D01*
X139091667Y-113017857D01*
X139091667Y-113160714D01*
X139044048Y-113255952D01*
X138996429Y-113303571D01*
X138901191Y-113351190D01*
X138520238Y-113351190D01*
X139520238Y-113303571D02*
X139853572Y-113303571D01*
X139996429Y-113827381D02*
X139520238Y-113827381D01*
X139520238Y-112827381D01*
X139996429Y-112827381D01*
X140758334Y-113303571D02*
X140425000Y-113303571D01*
X140425000Y-113827381D02*
X140425000Y-112827381D01*
X140901191Y-112827381D01*
X141425000Y-112827381D02*
X141425000Y-113065476D01*
X141186905Y-112970238D02*
X141425000Y-113065476D01*
X141663096Y-112970238D01*
X141282143Y-113255952D02*
X141425000Y-113065476D01*
X141567858Y-113255952D01*
X142186905Y-112827381D02*
X142186905Y-113065476D01*
X141948810Y-112970238D02*
X142186905Y-113065476D01*
X142425001Y-112970238D01*
X142044048Y-113255952D02*
X142186905Y-113065476D01*
X142329763Y-113255952D01*
X170261905Y-80352381D02*
X170261905Y-79352381D01*
X170500000Y-79352381D01*
X170642858Y-79400000D01*
X170738096Y-79495238D01*
X170785715Y-79590476D01*
X170833334Y-79780952D01*
X170833334Y-79923810D01*
X170785715Y-80114286D01*
X170738096Y-80209524D01*
X170642858Y-80304762D01*
X170500000Y-80352381D01*
X170261905Y-80352381D01*
X171785715Y-80352381D02*
X171214286Y-80352381D01*
X171500000Y-80352381D02*
X171500000Y-79352381D01*
X171404762Y-79495238D01*
X171309524Y-79590476D01*
X171214286Y-79638095D01*
X174238095Y-74152381D02*
X174238095Y-73152381D01*
X174809524Y-74152381D02*
X174380952Y-73580952D01*
X174809524Y-73152381D02*
X174238095Y-73723810D01*
X167761905Y-73916667D02*
X168238096Y-73916667D01*
X167666667Y-74202381D02*
X168000000Y-73202381D01*
X168333334Y-74202381D01*
X148357143Y-107666666D02*
X148404762Y-107714285D01*
X148452381Y-107857142D01*
X148452381Y-107952380D01*
X148404762Y-108095238D01*
X148309524Y-108190476D01*
X148214286Y-108238095D01*
X148023810Y-108285714D01*
X147880952Y-108285714D01*
X147690476Y-108238095D01*
X147595238Y-108190476D01*
X147500000Y-108095238D01*
X147452381Y-107952380D01*
X147452381Y-107857142D01*
X147500000Y-107714285D01*
X147547619Y-107666666D01*
X148452381Y-106714285D02*
X148452381Y-107285714D01*
X148452381Y-107000000D02*
X147452381Y-107000000D01*
X147595238Y-107095238D01*
X147690476Y-107190476D01*
X147738095Y-107285714D01*
X155833334Y-107357143D02*
X155785715Y-107404762D01*
X155642858Y-107452381D01*
X155547620Y-107452381D01*
X155404762Y-107404762D01*
X155309524Y-107309524D01*
X155261905Y-107214286D01*
X155214286Y-107023810D01*
X155214286Y-106880952D01*
X155261905Y-106690476D01*
X155309524Y-106595238D01*
X155404762Y-106500000D01*
X155547620Y-106452381D01*
X155642858Y-106452381D01*
X155785715Y-106500000D01*
X155833334Y-106547619D01*
X156214286Y-106547619D02*
X156261905Y-106500000D01*
X156357143Y-106452381D01*
X156595239Y-106452381D01*
X156690477Y-106500000D01*
X156738096Y-106547619D01*
X156785715Y-106642857D01*
X156785715Y-106738095D01*
X156738096Y-106880952D01*
X156166667Y-107452381D01*
X156785715Y-107452381D01*
X177857143Y-81166666D02*
X177904762Y-81214285D01*
X177952381Y-81357142D01*
X177952381Y-81452380D01*
X177904762Y-81595238D01*
X177809524Y-81690476D01*
X177714286Y-81738095D01*
X177523810Y-81785714D01*
X177380952Y-81785714D01*
X177190476Y-81738095D01*
X177095238Y-81690476D01*
X177000000Y-81595238D01*
X176952381Y-81452380D01*
X176952381Y-81357142D01*
X177000000Y-81214285D01*
X177047619Y-81166666D01*
X176952381Y-80833333D02*
X176952381Y-80214285D01*
X177333333Y-80547619D01*
X177333333Y-80404761D01*
X177380952Y-80309523D01*
X177428571Y-80261904D01*
X177523810Y-80214285D01*
X177761905Y-80214285D01*
X177857143Y-80261904D01*
X177904762Y-80309523D01*
X177952381Y-80404761D01*
X177952381Y-80690476D01*
X177904762Y-80785714D01*
X177857143Y-80833333D01*
X178633334Y-88057143D02*
X178585715Y-88104762D01*
X178442858Y-88152381D01*
X178347620Y-88152381D01*
X178204762Y-88104762D01*
X178109524Y-88009524D01*
X178061905Y-87914286D01*
X178014286Y-87723810D01*
X178014286Y-87580952D01*
X178061905Y-87390476D01*
X178109524Y-87295238D01*
X178204762Y-87200000D01*
X178347620Y-87152381D01*
X178442858Y-87152381D01*
X178585715Y-87200000D01*
X178633334Y-87247619D01*
X179490477Y-87485714D02*
X179490477Y-88152381D01*
X179252381Y-87104762D02*
X179014286Y-87819048D01*
X179633334Y-87819048D01*
X146207143Y-77416666D02*
X146254762Y-77464285D01*
X146302381Y-77607142D01*
X146302381Y-77702380D01*
X146254762Y-77845238D01*
X146159524Y-77940476D01*
X146064286Y-77988095D01*
X145873810Y-78035714D01*
X145730952Y-78035714D01*
X145540476Y-77988095D01*
X145445238Y-77940476D01*
X145350000Y-77845238D01*
X145302381Y-77702380D01*
X145302381Y-77607142D01*
X145350000Y-77464285D01*
X145397619Y-77416666D01*
X145302381Y-76511904D02*
X145302381Y-76988095D01*
X145778571Y-77035714D01*
X145730952Y-76988095D01*
X145683333Y-76892857D01*
X145683333Y-76654761D01*
X145730952Y-76559523D01*
X145778571Y-76511904D01*
X145873810Y-76464285D01*
X146111905Y-76464285D01*
X146207143Y-76511904D01*
X146254762Y-76559523D01*
X146302381Y-76654761D01*
X146302381Y-76892857D01*
X146254762Y-76988095D01*
X146207143Y-77035714D01*
X156202381Y-79238095D02*
X155202381Y-79238095D01*
X155202381Y-79000000D01*
X155250000Y-78857142D01*
X155345238Y-78761904D01*
X155440476Y-78714285D01*
X155630952Y-78666666D01*
X155773810Y-78666666D01*
X155964286Y-78714285D01*
X156059524Y-78761904D01*
X156154762Y-78857142D01*
X156202381Y-79000000D01*
X156202381Y-79238095D01*
X155297619Y-78285714D02*
X155250000Y-78238095D01*
X155202381Y-78142857D01*
X155202381Y-77904761D01*
X155250000Y-77809523D01*
X155297619Y-77761904D01*
X155392857Y-77714285D01*
X155488095Y-77714285D01*
X155630952Y-77761904D01*
X156202381Y-78333333D01*
X156202381Y-77714285D01*
X170237143Y-107372381D02*
X170237143Y-106372381D01*
X170475238Y-106372381D01*
X170618096Y-106420000D01*
X170713334Y-106515238D01*
X170760953Y-106610476D01*
X170808572Y-106800952D01*
X170808572Y-106943810D01*
X170760953Y-107134286D01*
X170713334Y-107229524D01*
X170618096Y-107324762D01*
X170475238Y-107372381D01*
X170237143Y-107372381D01*
X171189524Y-107324762D02*
X171332381Y-107372381D01*
X171570477Y-107372381D01*
X171665715Y-107324762D01*
X171713334Y-107277143D01*
X171760953Y-107181905D01*
X171760953Y-107086667D01*
X171713334Y-106991429D01*
X171665715Y-106943810D01*
X171570477Y-106896190D01*
X171380000Y-106848571D01*
X171284762Y-106800952D01*
X171237143Y-106753333D01*
X171189524Y-106658095D01*
X171189524Y-106562857D01*
X171237143Y-106467619D01*
X171284762Y-106420000D01*
X171380000Y-106372381D01*
X171618096Y-106372381D01*
X171760953Y-106420000D01*
X172713334Y-107372381D02*
X172141905Y-107372381D01*
X172427619Y-107372381D02*
X172427619Y-106372381D01*
X172332381Y-106515238D01*
X172237143Y-106610476D01*
X172141905Y-106658095D01*
X173046667Y-106372381D02*
X173665715Y-106372381D01*
X173332381Y-106753333D01*
X173475239Y-106753333D01*
X173570477Y-106800952D01*
X173618096Y-106848571D01*
X173665715Y-106943810D01*
X173665715Y-107181905D01*
X173618096Y-107277143D01*
X173570477Y-107324762D01*
X173475239Y-107372381D01*
X173189524Y-107372381D01*
X173094286Y-107324762D01*
X173046667Y-107277143D01*
X174284762Y-106372381D02*
X174380001Y-106372381D01*
X174475239Y-106420000D01*
X174522858Y-106467619D01*
X174570477Y-106562857D01*
X174618096Y-106753333D01*
X174618096Y-106991429D01*
X174570477Y-107181905D01*
X174522858Y-107277143D01*
X174475239Y-107324762D01*
X174380001Y-107372381D01*
X174284762Y-107372381D01*
X174189524Y-107324762D01*
X174141905Y-107277143D01*
X174094286Y-107181905D01*
X174046667Y-106991429D01*
X174046667Y-106753333D01*
X174094286Y-106562857D01*
X174141905Y-106467619D01*
X174189524Y-106420000D01*
X174284762Y-106372381D01*
X174951429Y-106372381D02*
X175618096Y-106372381D01*
X175189524Y-107372381D01*
X179452381Y-85976190D02*
X178452381Y-85976190D01*
X179357143Y-84928571D02*
X179404762Y-84976190D01*
X179452381Y-85119047D01*
X179452381Y-85214285D01*
X179404762Y-85357143D01*
X179309524Y-85452381D01*
X179214286Y-85500000D01*
X179023810Y-85547619D01*
X178880952Y-85547619D01*
X178690476Y-85500000D01*
X178595238Y-85452381D01*
X178500000Y-85357143D01*
X178452381Y-85214285D01*
X178452381Y-85119047D01*
X178500000Y-84976190D01*
X178547619Y-84928571D01*
X178547619Y-84547619D02*
X178500000Y-84500000D01*
X178452381Y-84404762D01*
X178452381Y-84166666D01*
X178500000Y-84071428D01*
X178547619Y-84023809D01*
X178642857Y-83976190D01*
X178738095Y-83976190D01*
X178880952Y-84023809D01*
X179452381Y-84595238D01*
X179452381Y-83976190D01*
X170952381Y-84666666D02*
X170952381Y-85142857D01*
X169952381Y-85142857D01*
X170952381Y-83809523D02*
X170952381Y-84380952D01*
X170952381Y-84095238D02*
X169952381Y-84095238D01*
X170095238Y-84190476D01*
X170190476Y-84285714D01*
X170238095Y-84380952D01*
X176499048Y-91824762D02*
X176641905Y-91872381D01*
X176880001Y-91872381D01*
X176975239Y-91824762D01*
X177022858Y-91777143D01*
X177070477Y-91681905D01*
X177070477Y-91586667D01*
X177022858Y-91491429D01*
X176975239Y-91443810D01*
X176880001Y-91396190D01*
X176689524Y-91348571D01*
X176594286Y-91300952D01*
X176546667Y-91253333D01*
X176499048Y-91158095D01*
X176499048Y-91062857D01*
X176546667Y-90967619D01*
X176594286Y-90920000D01*
X176689524Y-90872381D01*
X176927620Y-90872381D01*
X177070477Y-90920000D01*
X178165715Y-91967619D02*
X178070477Y-91920000D01*
X177975239Y-91824762D01*
X177832382Y-91681905D01*
X177737143Y-91634286D01*
X177641905Y-91634286D01*
X177689524Y-91872381D02*
X177594286Y-91824762D01*
X177499048Y-91729524D01*
X177451429Y-91539048D01*
X177451429Y-91205714D01*
X177499048Y-91015238D01*
X177594286Y-90920000D01*
X177689524Y-90872381D01*
X177880001Y-90872381D01*
X177975239Y-90920000D01*
X178070477Y-91015238D01*
X178118096Y-91205714D01*
X178118096Y-91539048D01*
X178070477Y-91729524D01*
X177975239Y-91824762D01*
X177880001Y-91872381D01*
X177689524Y-91872381D01*
X178451429Y-90872381D02*
X178689524Y-91872381D01*
X178880001Y-91158095D01*
X179070477Y-91872381D01*
X179308572Y-90872381D01*
X180052381Y-95109524D02*
X180052381Y-94490476D01*
X180433333Y-94823810D01*
X180433333Y-94680952D01*
X180480952Y-94585714D01*
X180528571Y-94538095D01*
X180623810Y-94490476D01*
X180861905Y-94490476D01*
X180957143Y-94538095D01*
X181004762Y-94585714D01*
X181052381Y-94680952D01*
X181052381Y-94966667D01*
X181004762Y-95061905D01*
X180957143Y-95109524D01*
X180052381Y-94204762D02*
X181052381Y-93871429D01*
X180052381Y-93538095D01*
X180052381Y-93300000D02*
X180052381Y-92680952D01*
X180433333Y-93014286D01*
X180433333Y-92871428D01*
X180480952Y-92776190D01*
X180528571Y-92728571D01*
X180623810Y-92680952D01*
X180861905Y-92680952D01*
X180957143Y-92728571D01*
X181004762Y-92776190D01*
X181052381Y-92871428D01*
X181052381Y-93157143D01*
X181004762Y-93252381D01*
X180957143Y-93300000D01*
X181052381Y-91490476D02*
X180385714Y-91490476D01*
X180052381Y-91490476D02*
X180100000Y-91538095D01*
X180147619Y-91490476D01*
X180100000Y-91442857D01*
X180052381Y-91490476D01*
X180147619Y-91490476D01*
X180385714Y-91014286D02*
X181052381Y-91014286D01*
X180480952Y-91014286D02*
X180433333Y-90966667D01*
X180385714Y-90871429D01*
X180385714Y-90728571D01*
X180433333Y-90633333D01*
X180528571Y-90585714D01*
X181052381Y-90585714D01*
X179511905Y-101952381D02*
X179511905Y-100952381D01*
X179892858Y-100952381D01*
X179988096Y-101000000D01*
X180035715Y-101047619D01*
X180083334Y-101142857D01*
X180083334Y-101285714D01*
X180035715Y-101380952D01*
X179988096Y-101428571D01*
X179892858Y-101476190D01*
X179511905Y-101476190D01*
X180416667Y-100952381D02*
X181035715Y-100952381D01*
X180702381Y-101333333D01*
X180845239Y-101333333D01*
X180940477Y-101380952D01*
X180988096Y-101428571D01*
X181035715Y-101523810D01*
X181035715Y-101761905D01*
X180988096Y-101857143D01*
X180940477Y-101904762D01*
X180845239Y-101952381D01*
X180559524Y-101952381D01*
X180464286Y-101904762D01*
X180416667Y-101857143D01*
X145452381Y-89738095D02*
X144452381Y-89738095D01*
X144452381Y-89357142D01*
X144500000Y-89261904D01*
X144547619Y-89214285D01*
X144642857Y-89166666D01*
X144785714Y-89166666D01*
X144880952Y-89214285D01*
X144928571Y-89261904D01*
X144976190Y-89357142D01*
X144976190Y-89738095D01*
X144785714Y-88309523D02*
X145452381Y-88309523D01*
X144404762Y-88547619D02*
X145119048Y-88785714D01*
X145119048Y-88166666D01*
X165961905Y-116752381D02*
X165961905Y-115752381D01*
X166342858Y-115752381D01*
X166438096Y-115800000D01*
X166485715Y-115847619D01*
X166533334Y-115942857D01*
X166533334Y-116085714D01*
X166485715Y-116180952D01*
X166438096Y-116228571D01*
X166342858Y-116276190D01*
X165961905Y-116276190D01*
X167438096Y-115752381D02*
X166961905Y-115752381D01*
X166914286Y-116228571D01*
X166961905Y-116180952D01*
X167057143Y-116133333D01*
X167295239Y-116133333D01*
X167390477Y-116180952D01*
X167438096Y-116228571D01*
X167485715Y-116323810D01*
X167485715Y-116561905D01*
X167438096Y-116657143D01*
X167390477Y-116704762D01*
X167295239Y-116752381D01*
X167057143Y-116752381D01*
X166961905Y-116704762D01*
X166914286Y-116657143D01*
X160452381Y-115038095D02*
X159452381Y-115038095D01*
X159452381Y-114657142D01*
X159500000Y-114561904D01*
X159547619Y-114514285D01*
X159642857Y-114466666D01*
X159785714Y-114466666D01*
X159880952Y-114514285D01*
X159928571Y-114561904D01*
X159976190Y-114657142D01*
X159976190Y-115038095D01*
X159452381Y-113609523D02*
X159452381Y-113800000D01*
X159500000Y-113895238D01*
X159547619Y-113942857D01*
X159690476Y-114038095D01*
X159880952Y-114085714D01*
X160261905Y-114085714D01*
X160357143Y-114038095D01*
X160404762Y-113990476D01*
X160452381Y-113895238D01*
X160452381Y-113704761D01*
X160404762Y-113609523D01*
X160357143Y-113561904D01*
X160261905Y-113514285D01*
X160023810Y-113514285D01*
X159928571Y-113561904D01*
X159880952Y-113609523D01*
X159833333Y-113704761D01*
X159833333Y-113895238D01*
X159880952Y-113990476D01*
X159928571Y-114038095D01*
X160023810Y-114085714D01*
X141261905Y-89452381D02*
X141261905Y-88452381D01*
X141642858Y-88452381D01*
X141738096Y-88500000D01*
X141785715Y-88547619D01*
X141833334Y-88642857D01*
X141833334Y-88785714D01*
X141785715Y-88880952D01*
X141738096Y-88928571D01*
X141642858Y-88976190D01*
X141261905Y-88976190D01*
X142166667Y-88452381D02*
X142833334Y-88452381D01*
X142404762Y-89452381D01*
X179904762Y-74547619D02*
X179809524Y-74500000D01*
X179714286Y-74404762D01*
X179571429Y-74261905D01*
X179476190Y-74214286D01*
X179380952Y-74214286D01*
X179428571Y-74452381D02*
X179333333Y-74404762D01*
X179238095Y-74309524D01*
X179190476Y-74119048D01*
X179190476Y-73785714D01*
X179238095Y-73595238D01*
X179333333Y-73500000D01*
X179428571Y-73452381D01*
X179619048Y-73452381D01*
X179714286Y-73500000D01*
X179809524Y-73595238D01*
X179857143Y-73785714D01*
X179857143Y-74119048D01*
X179809524Y-74309524D01*
X179714286Y-74404762D01*
X179619048Y-74452381D01*
X179428571Y-74452381D01*
X180809524Y-74452381D02*
X180238095Y-74452381D01*
X180523809Y-74452381D02*
X180523809Y-73452381D01*
X180428571Y-73595238D01*
X180333333Y-73690476D01*
X180238095Y-73738095D01*
X163952381Y-81666666D02*
X163476190Y-82000000D01*
X163952381Y-82238095D02*
X162952381Y-82238095D01*
X162952381Y-81857142D01*
X163000000Y-81761904D01*
X163047619Y-81714285D01*
X163142857Y-81666666D01*
X163285714Y-81666666D01*
X163380952Y-81714285D01*
X163428571Y-81761904D01*
X163476190Y-81857142D01*
X163476190Y-82238095D01*
X163952381Y-80714285D02*
X163952381Y-81285714D01*
X163952381Y-81000000D02*
X162952381Y-81000000D01*
X163095238Y-81095238D01*
X163190476Y-81190476D01*
X163238095Y-81285714D01*
X162633334Y-75552381D02*
X162300000Y-75076190D01*
X162061905Y-75552381D02*
X162061905Y-74552381D01*
X162442858Y-74552381D01*
X162538096Y-74600000D01*
X162585715Y-74647619D01*
X162633334Y-74742857D01*
X162633334Y-74885714D01*
X162585715Y-74980952D01*
X162538096Y-75028571D01*
X162442858Y-75076190D01*
X162061905Y-75076190D01*
X163014286Y-74647619D02*
X163061905Y-74600000D01*
X163157143Y-74552381D01*
X163395239Y-74552381D01*
X163490477Y-74600000D01*
X163538096Y-74647619D01*
X163585715Y-74742857D01*
X163585715Y-74838095D01*
X163538096Y-74980952D01*
X162966667Y-75552381D01*
X163585715Y-75552381D01*
X151552381Y-93166666D02*
X151076190Y-93500000D01*
X151552381Y-93738095D02*
X150552381Y-93738095D01*
X150552381Y-93357142D01*
X150600000Y-93261904D01*
X150647619Y-93214285D01*
X150742857Y-93166666D01*
X150885714Y-93166666D01*
X150980952Y-93214285D01*
X151028571Y-93261904D01*
X151076190Y-93357142D01*
X151076190Y-93738095D01*
X150552381Y-92833333D02*
X150552381Y-92214285D01*
X150933333Y-92547619D01*
X150933333Y-92404761D01*
X150980952Y-92309523D01*
X151028571Y-92261904D01*
X151123810Y-92214285D01*
X151361905Y-92214285D01*
X151457143Y-92261904D01*
X151504762Y-92309523D01*
X151552381Y-92404761D01*
X151552381Y-92690476D01*
X151504762Y-92785714D01*
X151457143Y-92833333D01*
X165952381Y-91166666D02*
X165476190Y-91500000D01*
X165952381Y-91738095D02*
X164952381Y-91738095D01*
X164952381Y-91357142D01*
X165000000Y-91261904D01*
X165047619Y-91214285D01*
X165142857Y-91166666D01*
X165285714Y-91166666D01*
X165380952Y-91214285D01*
X165428571Y-91261904D01*
X165476190Y-91357142D01*
X165476190Y-91738095D01*
X165285714Y-90309523D02*
X165952381Y-90309523D01*
X164904762Y-90547619D02*
X165619048Y-90785714D01*
X165619048Y-90166666D01*
X183233334Y-80552381D02*
X182900000Y-80076190D01*
X182661905Y-80552381D02*
X182661905Y-79552381D01*
X183042858Y-79552381D01*
X183138096Y-79600000D01*
X183185715Y-79647619D01*
X183233334Y-79742857D01*
X183233334Y-79885714D01*
X183185715Y-79980952D01*
X183138096Y-80028571D01*
X183042858Y-80076190D01*
X182661905Y-80076190D01*
X184138096Y-79552381D02*
X183661905Y-79552381D01*
X183614286Y-80028571D01*
X183661905Y-79980952D01*
X183757143Y-79933333D01*
X183995239Y-79933333D01*
X184090477Y-79980952D01*
X184138096Y-80028571D01*
X184185715Y-80123810D01*
X184185715Y-80361905D01*
X184138096Y-80457143D01*
X184090477Y-80504762D01*
X183995239Y-80552381D01*
X183757143Y-80552381D01*
X183661905Y-80504762D01*
X183614286Y-80457143D01*
X155373334Y-81192381D02*
X155040000Y-80716190D01*
X154801905Y-81192381D02*
X154801905Y-80192381D01*
X155182858Y-80192381D01*
X155278096Y-80240000D01*
X155325715Y-80287619D01*
X155373334Y-80382857D01*
X155373334Y-80525714D01*
X155325715Y-80620952D01*
X155278096Y-80668571D01*
X155182858Y-80716190D01*
X154801905Y-80716190D01*
X156230477Y-80192381D02*
X156040000Y-80192381D01*
X155944762Y-80240000D01*
X155897143Y-80287619D01*
X155801905Y-80430476D01*
X155754286Y-80620952D01*
X155754286Y-81001905D01*
X155801905Y-81097143D01*
X155849524Y-81144762D01*
X155944762Y-81192381D01*
X156135239Y-81192381D01*
X156230477Y-81144762D01*
X156278096Y-81097143D01*
X156325715Y-81001905D01*
X156325715Y-80763810D01*
X156278096Y-80668571D01*
X156230477Y-80620952D01*
X156135239Y-80573333D01*
X155944762Y-80573333D01*
X155849524Y-80620952D01*
X155801905Y-80668571D01*
X155754286Y-80763810D01*
X158873334Y-81212381D02*
X158540000Y-80736190D01*
X158301905Y-81212381D02*
X158301905Y-80212381D01*
X158682858Y-80212381D01*
X158778096Y-80260000D01*
X158825715Y-80307619D01*
X158873334Y-80402857D01*
X158873334Y-80545714D01*
X158825715Y-80640952D01*
X158778096Y-80688571D01*
X158682858Y-80736190D01*
X158301905Y-80736190D01*
X159206667Y-80212381D02*
X159873334Y-80212381D01*
X159444762Y-81212381D01*
X184438095Y-88252381D02*
X184438095Y-89061905D01*
X184485714Y-89157143D01*
X184533333Y-89204762D01*
X184628571Y-89252381D01*
X184819048Y-89252381D01*
X184914286Y-89204762D01*
X184961905Y-89157143D01*
X185009524Y-89061905D01*
X185009524Y-88252381D01*
X186009524Y-89252381D02*
X185438095Y-89252381D01*
X185723809Y-89252381D02*
X185723809Y-88252381D01*
X185628571Y-88395238D01*
X185533333Y-88490476D01*
X185438095Y-88538095D01*
X150538095Y-79002381D02*
X150538095Y-79811905D01*
X150585714Y-79907143D01*
X150633333Y-79954762D01*
X150728571Y-80002381D01*
X150919048Y-80002381D01*
X151014286Y-79954762D01*
X151061905Y-79907143D01*
X151109524Y-79811905D01*
X151109524Y-79002381D01*
X151538095Y-79097619D02*
X151585714Y-79050000D01*
X151680952Y-79002381D01*
X151919048Y-79002381D01*
X152014286Y-79050000D01*
X152061905Y-79097619D01*
X152109524Y-79192857D01*
X152109524Y-79288095D01*
X152061905Y-79430952D01*
X151490476Y-80002381D01*
X152109524Y-80002381D01*
X143452381Y-93809524D02*
X144452381Y-93142857D01*
X143452381Y-93142857D02*
X144452381Y-93809524D01*
X144452381Y-92238095D02*
X144452381Y-92809524D01*
X144452381Y-92523810D02*
X143452381Y-92523810D01*
X143595238Y-92619048D01*
X143690476Y-92714286D01*
X143738095Y-92809524D01*
X161002381Y-99726190D02*
X160002381Y-99726190D01*
X160907143Y-98678571D02*
X160954762Y-98726190D01*
X161002381Y-98869047D01*
X161002381Y-98964285D01*
X160954762Y-99107143D01*
X160859524Y-99202381D01*
X160764286Y-99250000D01*
X160573810Y-99297619D01*
X160430952Y-99297619D01*
X160240476Y-99250000D01*
X160145238Y-99202381D01*
X160050000Y-99107143D01*
X160002381Y-98964285D01*
X160002381Y-98869047D01*
X160050000Y-98726190D01*
X160097619Y-98678571D01*
X161002381Y-97726190D02*
X161002381Y-98297619D01*
X161002381Y-98011905D02*
X160002381Y-98011905D01*
X160145238Y-98107143D01*
X160240476Y-98202381D01*
X160288095Y-98297619D01*
M02*
