%TF.GenerationSoftware,KiCad,Pcbnew,(after 2015-mar-04 BZR unknown)-product*%
%TF.CreationDate,2015-05-27T15:40:32-04:00*%
%TF.JobID,arduinoquad,61726475696E6F717561642E6B696361,rev?*%
%TF.FileFunction,Other,User*%
%FSLAX46Y46*%
G04 Gerber Fmt 4.6, Leading zero omitted, Abs format (unit mm)*
G04 Created by KiCad (PCBNEW (after 2015-mar-04 BZR unknown)-product) date 27/05/2015 3:40:32 PM*
%MOMM*%
G01*
G04 APERTURE LIST*
%ADD10C,0.100000*%
%ADD11C,0.050000*%
G04 APERTURE END LIST*
D10*
D11*
X169710000Y-93250000D02*
X162910000Y-93250000D01*
X162910000Y-103350000D02*
X169710000Y-103350000D01*
X169710000Y-103350000D02*
X169710000Y-93250000D01*
X162910000Y-103350000D02*
X162910000Y-93250000D01*
X191540000Y-108430000D02*
X203640000Y-108430000D01*
X191540000Y-92230000D02*
X203640000Y-92230000D01*
X191540000Y-108430000D02*
X191540000Y-92230000D01*
X203640000Y-108430000D02*
X203640000Y-92230000D01*
X175700000Y-79050000D02*
X166300000Y-79050000D01*
X166300000Y-79050000D02*
X166300000Y-74550000D01*
X166300000Y-74550000D02*
X175700000Y-74550000D01*
X175700000Y-74550000D02*
X175700000Y-79050000D01*
X150500000Y-105650000D02*
X150500000Y-109350000D01*
X149000000Y-105650000D02*
X149000000Y-109350000D01*
X150500000Y-105650000D02*
X149000000Y-105650000D01*
X150500000Y-109350000D02*
X149000000Y-109350000D01*
X150900000Y-105750000D02*
X154600000Y-105750000D01*
X150900000Y-107250000D02*
X154600000Y-107250000D01*
X150900000Y-105750000D02*
X150900000Y-107250000D01*
X154600000Y-105750000D02*
X154600000Y-107250000D01*
X178650000Y-82850000D02*
X178650000Y-79150000D01*
X180150000Y-82850000D02*
X180150000Y-79150000D01*
X178650000Y-82850000D02*
X180150000Y-82850000D01*
X178650000Y-79150000D02*
X180150000Y-79150000D01*
X176950000Y-88850000D02*
X180650000Y-88850000D01*
X176950000Y-90350000D02*
X180650000Y-90350000D01*
X176950000Y-88850000D02*
X176950000Y-90350000D01*
X180650000Y-88850000D02*
X180650000Y-90350000D01*
X147000000Y-79100000D02*
X147000000Y-75400000D01*
X148500000Y-79100000D02*
X148500000Y-75400000D01*
X147000000Y-79100000D02*
X148500000Y-79100000D01*
X147000000Y-75400000D02*
X148500000Y-75400000D01*
X174470000Y-105890000D02*
X174470000Y-92190000D01*
X170970000Y-105890000D02*
X170970000Y-92190000D01*
X174470000Y-105890000D02*
X170970000Y-105890000D01*
X174470000Y-92190000D02*
X170970000Y-92190000D01*
X176050000Y-92230000D02*
X176050000Y-95730000D01*
X179550000Y-92230000D02*
X179550000Y-95730000D01*
X176050000Y-92230000D02*
X179550000Y-92230000D01*
X176050000Y-95730000D02*
X179550000Y-95730000D01*
X181130000Y-89690000D02*
X181130000Y-93190000D01*
X184630000Y-89690000D02*
X184630000Y-93190000D01*
X181130000Y-89690000D02*
X184630000Y-89690000D01*
X181130000Y-93190000D02*
X184630000Y-93190000D01*
X181130000Y-99850000D02*
X181130000Y-113550000D01*
X184630000Y-99850000D02*
X184630000Y-113550000D01*
X181130000Y-99850000D02*
X184630000Y-99850000D01*
X181130000Y-113550000D02*
X184630000Y-113550000D01*
X145570000Y-90650000D02*
X161770000Y-90650000D01*
X145570000Y-87150000D02*
X161770000Y-87150000D01*
X145570000Y-90650000D02*
X145570000Y-87150000D01*
X161770000Y-90650000D02*
X161770000Y-87150000D01*
X164310000Y-112550000D02*
X143010000Y-112550000D01*
X164310000Y-116050000D02*
X143010000Y-116050000D01*
X164310000Y-112550000D02*
X164310000Y-116050000D01*
X143010000Y-112550000D02*
X143010000Y-116050000D01*
X163350000Y-116050000D02*
X179550000Y-116050000D01*
X163350000Y-112550000D02*
X179550000Y-112550000D01*
X163350000Y-116050000D02*
X163350000Y-112550000D01*
X179550000Y-116050000D02*
X179550000Y-112550000D01*
X140490000Y-89690000D02*
X140490000Y-110990000D01*
X143990000Y-89690000D02*
X143990000Y-110990000D01*
X140490000Y-89690000D02*
X143990000Y-89690000D01*
X140490000Y-110990000D02*
X143990000Y-110990000D01*
X160400000Y-84000000D02*
X160400000Y-79200000D01*
X162400000Y-84000000D02*
X162400000Y-79200000D01*
X160400000Y-84000000D02*
X162400000Y-84000000D01*
X160400000Y-79200000D02*
X162400000Y-79200000D01*
X160400000Y-76200000D02*
X165200000Y-76200000D01*
X160400000Y-78200000D02*
X165200000Y-78200000D01*
X160400000Y-76200000D02*
X160400000Y-78200000D01*
X165200000Y-76200000D02*
X165200000Y-78200000D01*
X150000000Y-90600000D02*
X150000000Y-95400000D01*
X148000000Y-90600000D02*
X148000000Y-95400000D01*
X150000000Y-90600000D02*
X148000000Y-90600000D01*
X150000000Y-95400000D02*
X148000000Y-95400000D01*
X164490000Y-87440000D02*
X164490000Y-92240000D01*
X162490000Y-87440000D02*
X162490000Y-92240000D01*
X164490000Y-87440000D02*
X162490000Y-87440000D01*
X164490000Y-92240000D02*
X162490000Y-92240000D01*
X181000000Y-81200000D02*
X185800000Y-81200000D01*
X181000000Y-83200000D02*
X185800000Y-83200000D01*
X181000000Y-81200000D02*
X181000000Y-83200000D01*
X185800000Y-81200000D02*
X185800000Y-83200000D01*
X157050000Y-81500000D02*
X157050000Y-85500000D01*
X155450000Y-81500000D02*
X155450000Y-85500000D01*
X157050000Y-81500000D02*
X155450000Y-81500000D01*
X157050000Y-85500000D02*
X155450000Y-85500000D01*
X159300000Y-81500000D02*
X159300000Y-85500000D01*
X157700000Y-81500000D02*
X157700000Y-85500000D01*
X159300000Y-81500000D02*
X157700000Y-81500000D01*
X159300000Y-85500000D02*
X157700000Y-85500000D01*
X186210000Y-87150000D02*
X186210000Y-113550000D01*
X189710000Y-87150000D02*
X189710000Y-113550000D01*
X186210000Y-87150000D02*
X189710000Y-87150000D01*
X186210000Y-113550000D02*
X189710000Y-113550000D01*
X153050000Y-78600000D02*
X149450000Y-78600000D01*
X149450000Y-78600000D02*
X149450000Y-75400000D01*
X149450000Y-75400000D02*
X153050000Y-75400000D01*
X153050000Y-75400000D02*
X153050000Y-78600000D01*
X159800000Y-93450000D02*
X149200000Y-93450000D01*
X159800000Y-104050000D02*
X149200000Y-104050000D01*
X159800000Y-93450000D02*
X159800000Y-104050000D01*
X149200000Y-93450000D02*
X149200000Y-104050000D01*
M02*
